<?xml version="1.0" encoding="UTF-8"?>
<!DOCTYPE svg PUBLIC "-//W3C//DTD SVG 1.1//EN" "http://www.w3.org/Graphics/SVG/1.1/DTD/svg11.dtd">
<!-- Creator: CorelDRAW 2020 (64-Bit) -->
<svg xmlns="http://www.w3.org/2000/svg" xml:space="preserve" width="732px" height="110px" version="1.1" shape-rendering="geometricPrecision" text-rendering="geometricPrecision" image-rendering="optimizeQuality" fill-rule="evenodd" clip-rule="evenodd"
viewBox="0 0 732 110"
 xmlns:xlink="http://www.w3.org/1999/xlink"
 xmlns:xodm="http://www.corel.com/coreldraw/odm/2003">
 <g id="Capa_x0020_1">
  <metadata id="CorelCorpID_0Corel-Layer"/>
  <g id="_1809358318576">
   <path fill="black" fill-rule="nonzero" stroke="black" stroke-width="2" stroke-miterlimit="22.9256" d="M190.03 63.22c-0.41,0 -0.63,0.53 -0.63,1.61 -0.76,0.52 -1.44,1.04 -2.13,1.57 -0.65,0.52 -1.31,0.88 -1.97,1.12l-1.2 -0.2c-0.79,0.4 -1.26,0.86 -1.42,1.41 -0.11,0.14 -0.38,0.2 -0.82,0.2 -0.3,0 -0.55,-0.18 -0.71,-0.53 -0.63,0.8 -1.51,1.22 -2.57,1.22l0 0.48 -0.71 0 -0.8 -0.28c-0.98,0.41 -1.45,0.88 -1.45,1.41l-1.2 0 0.33 -0.3 -0.66 0 0 0.49 -1.12 0.88 -1.45 0 0 0.2 -0.87 0 0 0.33 -1.45 0.2 0 0.2 -0.63 -0.2 -0.33 0.39 -0.55 -0.39 -3.28 1.07 0.39 0.2 -0.72 0c-0.21,0.62 -0.84,0.93 -1.91,0.93 -0.33,0.45 -0.85,0.69 -1.53,0.69l-0.33 0.28c-1.23,0 -2.33,0.4 -3.31,1.18 -0.98,0.79 -1.83,1.22 -2.54,1.32l-0.55 -0.48 -0.33 0.48 0 0 -0.32 0.2 0 0.23c-0.96,0.14 -2.22,0.65 -3.75,1.57 -1.18,-0.2 -1.97,-0.48 -2.33,-0.88l-4.73 -5.72c0.44,-0.15 0.63,-0.42 0.63,-0.77 0,-0.5 -0.19,-1 -0.63,-1.51l0.33 0 -1.45 -2.5 0.8 0 -0.8 -0.59 0.33 -0.33c0.3,0 0.47,-0.1 0.47,-0.3l0 -0.28 0.65 0.18 0 -0.48 0.3 -0.69 1.7 -0.43 -0.49 -0.2c0.71,-0.68 1.12,-1.63 1.28,-2.83 0.17,-1.2 0.38,-1.92 0.66,-2.15l-0.82 -0.89 0 -1.21 0.82 -1.62 0.3 0.3c0.44,-0.38 0.85,-1 1.2,-1.82 -0.11,-0.08 -0.13,-0.28 -0.13,-0.58 0,-0.32 0,-0.52 0.05,-0.58l1.53 -0.92 -0.49 -1.08 1.15 -0.89 0 -0.16 0.3 -0.36 0.08 -0.19 0.08 -0.35 0.88 -0.56 0.16 -1.39 0 -0.2 0.49 0.2 0.63 -2.89 0.33 0 1.67 -3.03 -0.55 0.2 2.65 -4.3 -0.32 0 2.65 -2.2 0 -1.17 0.63 -1.11c-0.44,-0.07 -0.9,-0.37 -1.45,-0.89l2.24 -2.3 0 -2.33 -1.42 -0.6c0,-0.15 0.19,-0.45 0.63,-0.87 -0.28,-0.56 -0.5,-0.9 -0.63,-1.03l-3.78 -3.37 -0.65 -0.2c-0.85,0 -1.62,0.17 -2.33,0.5l-0.46 0c-1.34,0 -2.33,-0.41 -2.98,-1.23l0.82 -1.6 -0.33 -0.58 2.16 -0.89 -0.33 -0.3c1.73,-0.21 2.93,-0.71 3.67,-1.46 0.71,-0.75 1.34,-1.34 1.88,-1.75 0.69,0 1.29,-0.07 1.81,-0.2 0.49,-0.14 0.87,-0.32 1.15,-0.57 0.27,-0.23 0.54,-0.48 0.79,-0.75l1.2 0 1.45 -1.37 0 -0.53 1.12 -0.58c0.69,0 1.21,-0.3 1.53,-0.89l0 0 0.3 -0.3 1.13 -0.43c0.27,-0.48 0.79,-0.83 1.58,-1.05 0.77,-0.22 1.83,-0.57 3.23,-1.05 0.16,-0.38 0.79,-0.68 1.91,-0.88l0 -0.2 1.86 -0.19 0 -0.3 5.86 -2 0 -0.2c0.46,-0.48 1.14,-0.73 1.99,-0.73 1.45,0 2.16,0.87 2.16,2.6l0 1.02 -0.33 0 0 0.68c0,1.53 -0.98,2.6 -2.95,3.23 -0.11,0.45 -0.47,0.82 -1.09,1.12 -0.61,0.3 -1.51,0.88 -2.68,1.75l-0.32 0.37c-0.84,0.33 -0.72,0.66 -0.91,1.73 -0.2,1.08 -0.55,2.05 -1.1,2.93l-0.3 -0.25 0.3 0.94 -0.3 0 -0.33 0.2 0.63 0.38c-0.57,0.33 -0.9,0.7 -0.95,1.1 -0.06,0.42 -0.17,0.62 -0.33,0.62l-0.22 0 -1.45 1.11c0.96,0.4 1.45,0.82 1.45,1.27 0,0.27 -0.33,0.43 -0.99,0.5l0 0.53 -0.46 -0.2 0 2.5 -1.45 0 -0.71 1.47 0.38 1.42 -0.87 1.11 0 0.29 -0.63 0 0.33 1.08 -0.66 -0.2 -1.12 4.3 -2.33 4.5 -0.63 1.8c-0.81,0.58 -1.2,1.05 -1.2,1.42 0,0.28 0.14,0.76 0.39,1.41 -1.81,2.37 -2.9,4.7 -3.29,6.99l-0.87 0.2 -0.33 0.28c-0.16,0.65 -0.41,1.15 -0.79,1.52l-0.33 4.4 0.82 1.5 -0.49 2.98 2.32 2.93c-0.96,0 -1.59,0.24 -1.83,0.69l-0.49 0 1.45 0.88 -0.33 0.73 0.87 0 1.45 0.87 1.45 -0.87 1.83 -0.5c0.55,-0.15 1.32,-0.53 2.33,-1.11l1.78 0 0 -0.4 0.3 0.2c1.61,-1 3.25,-1.55 4.97,-1.6l-0.32 -0.2 2.57 -0.49 0 -0.4c1.55,-0.2 2.73,-0.66 3.61,-1.41 1.91,-0.2 3.19,-0.64 3.82,-1.32l0.66 0 2.24 -0.98 1.83 2.3z"/>
   <path fill="black" fill-rule="nonzero" stroke="black" stroke-width="2" stroke-miterlimit="22.9256" d="M234.19 1.12l2.66 0.18 0.3 0.3 3.61 0 7.85 0.2 0 0.92 0.32 -0.19 3.12 0.19 4.48 1.61 1.13 0 0.32 0.69 2.33 0 0.33 0.38 9.68 1.23 5.85 0.87 0.32 0.73 4.16 0.89 0.58 0.3c0.16,0.05 1.34,0.25 3.52,0.58 0.63,0.62 1.67,1.15 3.12,1.6l0.63 0 0 0.4 0.82 -0.2 0.3 0.73 0.66 0c0.46,0.37 1.26,0.79 2.32,1.27l2.63 -0.28 0.33 0.78 1.11 0 0 0.73 1.54 0.39 1.12 1.21 2.62 0.2 0 0.39 -1.12 0.3 0.66 2 4.89 1.11 1.12 0.89 1.51 -0.2 0.65 1.41 2.33 0.69 0.79 1.81 5.12 3.17 3.06 7.43 -0.82 0.97 0 1.82 -1.75 1.6 -1.53 5.91 -3.12 2.49 -0.33 0.88 -2.62 3.12 -1.13 0.5 -0.32 0.48c-2.3,1.17 -4.05,2.22 -5.28,3.12l0 -0.39 -7.71 4.5 -2.24 0.69 -2.63 1.41c-2,0.59 -3.09,0.94 -3.28,1.07l-0.82 0c-2.76,1.07 -4.27,1.68 -4.49,1.8l0 0.2 -4.89 1.9 -2.95 0.2 -0.33 0.38c-1.23,0.3 -2.33,0.77 -3.28,1.44l-0.47 -0.5 -4.1 1.21 0 0.2 -1.04 0 -0.46 0.49c-1.34,0.1 -2.22,0.3 -2.66,0.6l-0.32 0 -8.81 3.01 -0.87 -0.23 -16.68 4.53 -0.39 0.49 -3.44 0.6 -1.78 0 -2.32 1.21 -4.41 0.89 -5.6 2.48c-2.57,1.43 -4.02,2.2 -4.4,2.3l0 0.92 -2.66 0.58 -1.45 1.42 -6.06 0.68 -1.46 0c-1.39,-1.03 -2.1,-1.63 -2.16,-1.8l1.45 -1.37 -1.12 -3.61 1.12 -2.1 2.63 -0.69 11.15 -4 0 0.39 1.21 0.2 0.3 -1.32 1.12 -0.48 0.33 -1.09 0.33 0.2 3.83 -6.83 0.32 -2.88 1.45 -2.99 0 -9.13 0.8 -0.68 1.2 -8.79 4.07 -12.5 -1.99 -1.61 1.53 -2.49 -0.33 -2.73 -3.28 -0.2 0 0.4 -2.66 0 0 0.53 -1.5 0 -1.12 0.89 -2.98 0c-0.16,-0.24 -0.9,-0.77 -2.24,-1.62l0.82 -0.68c1.64,-0.55 2.62,-1 2.95,-1.32l0.33 0.43 0.3 -0.73 0 -0.2 1.12 -0.68 0.33 0 2.65 -1.12c0.33,-0.13 0.8,-0.58 1.45,-1.37l4.95 -1.31 -0.33 -2.49 -1.99 -0.73 -1.12 -2.3 -2.96 -0.88 -3.28 0.48 -1.45 -1.17 1.12 -1.11 6.57 -0.89 -1.51 -3.03 -0.98 0 0.33 -0.87 9.37 -3.41zm17.07 12.5l0 0.18 -2.33 0.93 -0.63 2.3 1.12 0.49 -1.94 2.88 -2.16 10.73 -1.12 3.37 -2.32 2.93 -0.63 0.5 1.12 2 -0.82 0 -1.42 6.59 -3.28 5.91 -2.33 9.77 -1.12 1.32 -3.31 6.88 -0.46 0.23 -3.61 4.5 0.33 1.17 11.45 -1.9 2.96 -0.88 6.72 -1.6 1.94 0.48 1.05 -1.08 3.11 0 -0.49 -0.29 1.45 -1.11 3.77 -0.7 0.8 0 3.28 -1.32 1.2 0 -0.33 -0.28 8.83 -2.69 1.51 -0.2 1.12 -0.73 0.33 0 1.44 -0.2 1.51 -1.17 0.82 0.3 6.4 -2.1 0 -0.4 0.33 0 0 -0.33 4.4 -1.57 10.88 -5.61 2.57 -1.8 6.26 -6.2 1.13 -0.7 -0.33 -2.69 -3.28 -6.1 -1.92 -1.61 0 -1.4 -2.65 -1.52 -1.12 -1.57 -6.26 -3.21 -1.51 -1.09 -2.24 -0.33 -1.2 -1.28 -4.4 -0.92 -2.99 -1.57 -4.89 -1.9 -3.58 -0.4 -2.03 -1.11 -0.95 0.38 -12.01 -2.68 -1.99 -0.34c-0.61,-0.1 -2.05,-0.55 -4.35,-1.36l-1.83 0.1z"/>
   <path fill="black" fill-rule="nonzero" stroke="black" stroke-width="2" stroke-miterlimit="22.9256" d="M362.44 31.33l2.02 0.2 0.3 0 -0.3 0.49 0.63 0 1.12 0.68 3.78 0.2 3.77 0 2.16 0.73 0.79 0 1.2 2.49 -1.69 0.88 0 0.93 2.65 1.6 -0.33 4.5 -1.12 0 -0.38 0.89 -0.33 0 0 1.4 1.53 0.2 0.63 0.48 -0.96 0.93 0 0.69 -1.99 0.58 -1.45 0.73 -4.16 1.37c-1.12,0.72 -2.1,1.25 -2.89,1.62l-1.21 2 -7.05 1.71 -7.03 -0.1 0.3 1.07 -1.42 0 -0.33 0.3 -3.45 0.43 -0.32 -0.73 -1.21 0.3 0 0.43 -2.95 0.69 -1.12 2 1.5 2.5 0 1.21 0.82 1.07c-1.06,1.93 -1.85,2.93 -2.32,3.03l0.47 0.89 -0.8 0.2 1.83 0.48 0 1.52 1.62 0.68c2.68,-0.5 4.29,-0.85 4.89,-1.08l1.2 0.68 0.3 -0.2c2.19,-0.12 3.94,-0.28 5.23,-0.48l0.54 -0.59 1.95 0 1.5 -0.1 1.94 0.59 -0.49 -0.39 1.61 0 2 -1.03 2.32 -0.08 -0.49 0 2.24 -0.6 0.66 0.3 1.2 -0.69 1.59 0 1.53 -0.93c1.18,-0.03 3.06,-0.45 5.69,-1.27l0 -0.53 2.32 -0.4 2.49 -2.18 2.63 0.18c0.92,0.52 1.99,0.83 3.22,0.93l1.21 0.69 -1.86 2.1 0.32 1.31 -2.57 0.89 -0.32 0.48 -3.83 0.3 -2.08 1.32 -2.33 0.1 -0.65 1.11 -3.12 -0.2 -0.96 1.37 -2.48 -0.18 -0.96 0.68c-1.83,0.42 -2.76,0.67 -2.82,0.73l-1.12 -0.4 -1.83 1.09 -2.65 0 -1.59 0.48 -0.98 0 -1.18 0.63c-1.39,0.24 -2.82,0.59 -4.27,1.07l-1.12 -0.48 -2.32 0 -0.96 0.48 -0.87 -0.18 -1.12 0.18 -0.33 -0.18 -0.8 1.11 -2.15 0 -1.78 0.59c-0.58,0.2 -1.86,0.36 -3.83,0.5l-0.82 0.48 -1.42 0 -2.16 0.2 -1.62 1.22 -2.16 -0.5 -1.12 0.88 -0.87 -0.15c-0.22,-0.03 -1.29,-0.65 -3.23,-1.85l0.33 -1.17 -0.33 -0.63 0.33 -1.18 -1.2 -1.8 0.49 -1.42 -0.82 -2.2 0.82 -1.8 -1.12 -2.78 -0.33 -0.2 0.33 -1.42 2.62 -0.58 0 -0.99 -1.12 -0.23 0.33 -1.27 -0.71 -0.73 0.38 -1.18 1.12 -0.39 -0.3 -1.13 0.3 -1.9 0.66 -0.18 1.12 -2.3 2.65 -2.89 2.3 -0.53 0.33 -1.57 -0.33 -0.43 0.33 -0.88 1.45 -0.49 0.87 -1.61 -2 0 0 -0.59 0.8 -0.73 -0.3 -0.68 0.3 -0.69 0.33 0 0 -1.61 2.65 -0.2 1.12 -1.42 5.61 -3.8 1.12 0c0.62,-0.62 1.44,-1.15 2.48,-1.57l1.13 0.2c0.73,-0.16 1.61,-0.7 2.62,-1.61l0.82 0 1.5 -0.59 0.66 0 1.12 -1.01 5.91 -1.09zm-1.91 8.3l-2.8 0.59 -2.16 -0.59c-1.28,0.65 -2.32,1.12 -3.14,1.37 -0.16,0.85 -0.71,1.57 -1.64,2.15 -0.93,0.58 -1.59,0.88 -1.97,0.88l-1.42 0 0.96 1.07c-0.6,0.65 -1.37,1.67 -2.33,3.03l-1.28 -0.2 -0.5 1.27 0.5 1.82 1.61 0.53c0.46,0.17 1.8,0.35 3.99,0.58l2.57 -1.01 5.28 -0.3 2.82 -2.49 3.74 -1.91 0.5 -3.6 -1.29 -1.19 -0.16 -1.7 -1.84 0 -1.44 -0.3z"/>
   <path fill="black" fill-rule="nonzero" stroke="black" stroke-width="2" stroke-miterlimit="22.9256" d="M433.34 25.72l2.65 0.4 1.51 1.41 1.45 0.39 -1.12 2.48 -3.61 1.32 -14.66 4.3 -2.24 2.4 0.49 2.68 5.03 4.63 1.04 2.1 2.9 -0.23 3.12 1.8 0 1.8 1.53 0.4 5.52 6.4 1.67 1.5c-0.41,1.22 -0.63,2.05 -0.63,2.5l0.33 0.73 -1.53 1.37 -2.57 3.32c-3.15,1.66 -5.06,2.96 -5.77,3.9l-2.16 0.2 -0.33 0.68 -10.17 4.83c-2.77,1.7 -4.84,2.65 -6.24,2.89l-9.62 1.61c-0.96,0.79 -2.11,1.39 -3.45,1.8l-1.5 -1.8 0 -1.13 -1.12 -0.87 3.11 -1.41c0.63,-0.72 1.1,-1.15 1.37,-1.27l0.79 -0.45c0.28,-0.13 1.56,-0.35 3.86,-0.68 1.2,-0.75 2.22,-1.12 2.95,-1.12l1.21 0c1.56,-0.78 2.65,-1.37 3.28,-1.77l1.12 0 0.33 -0.53 1.12 -0.2 0.71 -1.47 0.66 0 1.42 -1.41 2.32 -0.59 0.66 -1.21 0.79 -0.39 1.53 -3.03 -1.2 -1.57 -3.28 -5.9 -7.71 -3.31c-1.29,-1.09 -2.44,-1.99 -3.45,-2.7l-0.63 -1.6c-0.22,-0.54 -0.82,-1.24 -1.83,-2.1l-0.82 -0.2 -1.12 -1.9 0 -0.69c-0.36,-1.21 -0.74,-2 -1.12,-2.4l2.08 -3.21 0.82 0.2 0 -1.42 1.83 -0.88 0 -0.59c1.91,-0.85 3.28,-1.55 4.1,-2.1l1.5 0 0 0.69 1.45 -1.42 0 0c0.06,-0.2 1.1,-0.55 3.12,-1.08 0.16,-0.49 0.74,-0.8 1.78,-0.92 1.64,-1.33 2.51,-2.1 2.62,-2.3l1.53 -0.2 1.12 0.2 0.63 -0.38 2.66 0 0 -0.3 4.56 -0.84c0.49,-0.03 1.59,-0.35 3.28,-0.96l0.33 -0.4z"/>
   <path fill="black" fill-rule="nonzero" stroke="black" stroke-width="2" stroke-miterlimit="22.9256" d="M497.52 8.33l-0.49 0 -2.96 3.87 -0.32 -0.2c0,0.35 -0.28,0.67 -0.8,0.93l0 0.19c-1.17,1.15 -2.65,1.96 -4.43,2.5l-0.63 -0.2 0 0.38c-2.07,-0.15 -3.69,-0.43 -4.83,-0.8 -1.15,-0.37 -2,-0.98 -2.58,-1.85 -0.54,-0.87 -1.12,-1.77 -1.64,-2.72 0.8,-0.68 1.48,-1.08 2,-1.21l0.66 -1.32 2.62 -0.88 1.45 -1.9 2.65 -0.89 0 0.3 1.42 0.39c0.39,-0.14 0.63,-0.24 0.77,-0.32 0.14,-0.08 0.33,-0.18 0.57,-0.3 0.25,-0.1 0.88,-0.23 1.89,-0.38 1.01,-0.15 1.78,-0.32 2.33,-0.52l0.87 -0.28 0.63 0 1.2 1.11 0 1.57 0.33 1.42 -0.71 1.11zm-11.62 28.57l-0.33 0 -0.63 2.53 0.63 0.3 -1.12 1.8 -0.33 -0.33 0 0.73c0,1.44 -0.98,2.8 -2.95,4.1l0.63 0 0 0.89 -0.3 0 0.3 5.7 -0.63 0.68 0.33 0.93 -1.21 3.57 0.39 0c0,0.65 -0.25,1.58 -0.8,2.78l-0.71 1.32 -0.98 6.5c-0.19,0.65 -0.3,1.02 -0.3,1.12 0,0.58 0.41,0.88 1.28,0.88 1.01,0 2.13,-0.25 3.37,-0.73l5.19 -2.15c1.45,-1.09 2.49,-1.62 3.12,-1.62l0.49 0c0.9,-0.25 1.75,-0.7 2.57,-1.32 0.79,-0.61 1.39,-0.96 1.83,-1.06 0.79,-0.89 1.53,-1.32 2.16,-1.32 0.06,0 0.28,0.03 0.66,0.08 0.35,0.07 1.34,0.19 2.95,0.35l0.63 1.37c0,0.75 -0.41,1.6 -1.26,2.57 -0.87,0.95 -1.55,1.75 -2.05,2.38 -0.52,0.63 -1.64,1.15 -3.42,1.55l0 0.33 -1.12 -0.2 0 0.69 -0.71 0c-0.16,0.88 -0.9,1.38 -2.24,1.51l0 0.3 -2.16 0 0 0.2 -0.79 0 -2.19 0.87 -0.63 0 -1.12 0.93 -3.28 0.3c-0.33,0.39 -0.82,0.59 -1.53,0.59l-4.08 1.8 0 0.4 -1.99 -0.2 0.54 0.48 -2.65 0.4 0 0.23 -1.12 0 0 0.69 -1.2 0.5 -0.3 0 0 0.18c-0.71,1.2 -1.7,1.82 -2.98,1.82l-1.13 -0.2c-0.63,-1.2 -1.72,-2.42 -3.28,-3.62 0.44,-1.03 0.66,-1.8 0.66,-2.3l-0.66 -2 0 -1.07c0,-1.01 0.17,-2.05 0.5,-3.13l0.46 -1.27 0 -0.25 -0.14 0c-0.11,0 -0.16,-0.01 -0.16,-0.08 0,-0.07 0.24,-0.6 0.74,-1.57 0.52,-0.98 0.76,-2.25 0.76,-3.81 0,-0.39 -0.21,-0.62 -0.71,-0.69l1.04 -1.31 0 -5.9 1.29 -1.72c0.43,-0.52 0.84,-1.55 1.28,-3.07 0.68,-0.26 1.1,-0.51 1.2,-0.73l-0.65 -0.58 0.65 -0.99c-0.84,-1.01 -1.85,-1.51 -2.98,-1.51l-3.74 0c-0.44,0.26 -0.66,0.55 -0.66,0.88l-0.55 0c-0.27,0.88 -0.95,1.42 -2.1,1.62 -0.25,0.83 -1.04,1.35 -2.3,1.5l-1.45 1.41 -0.32 0c-0.39,0.72 -1.04,1.09 -2,1.09 -1.07,0 -1.94,-0.49 -2.6,-1.42 -0.68,-0.95 -1.01,-1.47 -1.01,-1.57 0,-0.13 0.11,-0.26 0.33,-0.43 0.52,-1.43 2.19,-2.62 4.95,-3.57l0 -0.4c1.17,-0.71 2.38,-1.25 3.61,-1.6l0.36 -0.39c2.3,-0.3 2.57,-0.62 2.97,-1.79 0.39,-1.14 1.81,-1.73 4.21,-1.73l0.96 0.2 2 -0.59 -1.21 0 1.83 -0.73 0.5 0.2 1.45 -1.08 0.38 0.2c0.66,-0.95 2.13,-1.42 4.43,-1.42 0.52,0 0.79,-0.13 0.79,-0.38l0 -0.5 0.63 0 -0.3 -0.19 2.63 -1.13c0.84,-0.92 2.21,-1.37 4.1,-1.37 1.17,0 2.19,0.2 3.06,0.59 0.9,0.4 1.34,0.78 1.34,1.18 0,0.42 -0.38,1.02 -1.12,1.8z"/>
   <path fill="black" fill-rule="nonzero" stroke="black" stroke-width="2" stroke-miterlimit="22.9256" d="M539.94 100.68l-0.34 -2.65 1.75 0.07 0.55 -3.04 1.65 0.59 -0.37 -3.62 2.13 -0.87 3.48 0.67c-0.86,-0.96 -3.86,-2.75 -2.58,-2.88l4.5 -0.43 -2.17 -1.09 -0.05 -1.5 3.67 0.29 -2.16 -1.55c-1.2,-0.86 0.36,-2.17 0.21,-2.25l0.82 -0.89 -2.32 -7.13 0.55 -1.57 -1.51 -7.71 -1.94 -0.69 -1.83 0.5 -0.33 -0.2 -0.79 0.69 -1.53 0 0 1.11 -2.24 0.4c-1.18,0.39 -2.38,0.62 -3.62,0.69l-0.87 0.68 -5.85 5.72 -6.07 5.21 -1.86 0.89 -0.63 -0.2 0 0.88 -1.61 1.12 -1.04 0 -1.45 0.3 0 0.91 -3.12 0.4 0 0.2 -0.96 -0.2 -1.2 0.49 -0.79 -0.89 0.79 -1.41 -1.45 -0.72 1.12 -0.68 -0.79 -0.4 0.33 -0.89 -1.45 -0.23 0.33 -0.5 -0.33 -0.87 0 -1.41 0.79 -0.69c-0.57,-1.7 -0.96,-2.61 -1.12,-2.73l0.66 -0.4 -0.33 -0.68 0.33 -1.12 0 -1.37 -1.04 -0.2 0.71 -0.73 -0.71 -1.37 0.38 0 -0.38 -0.73c0.46,-0.23 0.82,-0.58 1.04,-1.07l0.79 -0.2 0 -1.21c0.9,-1.44 1.39,-2.27 1.45,-2.5l-1.12 0 0.46 -0.59 0.66 0 1.83 -4.1 1.29 -1.85c0.49,-0.58 0.82,-1.33 1.03,-2.25l1.45 -1.11c0.63,-2.25 1.62,-3.79 2.96,-4.6l5.22 -3.22 2.32 -0.4c0.41,-0.72 1.81,-1.62 4.16,-2.73l4.4 -2.1c0.61,-0.25 1.34,-0.47 2.24,-0.64l0.33 -0.63 2.16 0 2 -1.17c2.02,-0.55 3.12,-0.93 3.28,-1.13l3.77 -0.18 2.58 -0.3 1.5 0 0.33 -0.2 1.12 0.5 0 -0.3 1.83 0.3 0.49 -0.5 2.16 0.5 1.45 -0.3 0.49 0.88 0.96 -0.2 0.88 0.2 -0.33 0.33 1.45 -0.33 0.62 0.93 -0.3 0.69 1.84 0.68c0.57,1.3 0.95,2.3 1.12,3.02l0.33 0.2 2.62 -0.49 0.49 -1.13 2.16 -0.48 1.45 0 2.33 1.41 -4.1 3.9 -2.33 0.2 -2.16 1.8 -1.12 0 0.66 2.5 -0.33 1.37 -1.12 10.2 -0.71 2.3 0 0.93 -2.25 1.8 0.8 3.17 -0.5 1.32 -0.62 0.2 1.12 0.98 -1.12 0 -0.88 2.73 0.88 1.27 -1.21 0.53c-0.85,1.77 -1.34,3.14 -1.45,4.1l-0.79 0.4 0 0.69 -1.04 0.2 0.71 1.4c0,1.8 -0.38,3 -1.2,3.61 0.54,1.44 1.2,2.72 2,3.87l-2 0.23 -0.63 1.19 -0.82 0 1.15 0.91 -1.15 0.89 0 0 -0.5 1.17c-2.2,10.46 -6.59,-0.93 -5.82,5.77 -3.53,-2.2 0.8,2.64 -1.17,1.88 -0.32,-0.12 -1.1,-0.76 -1.93,-0.34 -0.69,0.35 -0.69,1.47 -1.11,2.23 -0.68,-0.98 -0.7,-2.14 -1.61,-1.99 -0.7,0.12 -0.2,2.73 -0.75,2.41 -1.3,-0.77 -1.26,-0.83 -1.83,-0.45 -0.62,0.42 0.76,1.71 0.16,2.01 -0.92,-0.3 -1.32,-0.43 -1.38,-0.3 -0.72,1.49 -2.83,1.24 -3.58,1.17 -1.62,-0.16 0.93,1.74 0.58,1.78 -2.27,0.28 -3.75,-0.47 -4.45,-0.39 -0.24,0.03 -0.66,0.76 0.18,0.97 2.89,0.71 -1.65,0.65 -4.24,-0.2 -0.33,-0.11 -2.14,-0.37 -1.18,0.17 2.45,1.36 -2.82,-0.14 -2.8,-0.08 -1.34,0.73 -2.31,0.61 -2.91,0.42 -1.03,0.01 -0.63,-0.02 -2.09,-0.42 -0.94,0.29 -4.18,0.85 -2.23,0.31 1.39,-0.86 -0.29,-0.81 -1.25,-0.21 -0.33,0.2 -1.17,-0.15 -2.06,-0.2 0.13,-0.12 1.5,-0.62 1.4,-0.63 -1.73,-0.11 -2.18,0.31 -3.81,0.47 -0.28,-0.14 2.18,-0.64 -1.43,-0.87 -0.42,-0.03 1.27,-0.65 0.96,-0.77 -0.37,-0.16 -0.92,-0.5 -1.43,-0.75 0.18,0.01 1.05,0.29 0.97,0.15 -0.3,-0.49 -0.8,-0.59 -1.26,-0.57 -1.37,0.07 -1.22,-1.33 -1.67,-1.46 -1.23,-0.36 0.17,1.25 -0.12,1.08 -1.97,-1.15 -2.37,-1.29 -3.61,-2.59 -0.23,-0.24 -0.13,-0.66 0.22,-0.64 3.19,0.21 0.14,-1.6 3.18,0.31 3.78,1.88 -0.88,0.76 -0.76,0.84 1.28,0.86 2.79,1.12 2.51,1.74 -0.2,0.45 0.95,0.35 1.53,0.55 0.72,0.32 1.2,1.21 2.17,1.63 0.82,0.36 1.89,0.01 3.06,-0.04 1.58,-0.33 0.97,0.88 2.41,0.18 0,0 1.66,-1.13 3.84,0.12 1.01,0.58 0.62,-0.48 1.12,-0.79 4.54,3.59 0.55,-2.88 4.57,-0.26 0.76,-0.58 1.49,-0.07 2.02,0.12 0.43,-1.15 -1.55,-3.93 2.08,-1.44 1.23,0.17 1.86,-2.03 1.89,-2.05 3.88,2.03 -1.23,-3.15 3.13,-1.84 -0.74,3.08 1.28,0.11 2,0.06zm8.44 -58.46l-1.45 0.68 -1.5 -0.18 -0.82 0.38 -2.63 0 -0.96 -0.38 -1.14 0.58 -1.1 0c-1.15,0.62 -2.13,0.92 -2.98,0.92l-1.53 0 -3.74 2.98c-1.18,1.27 -1.97,1.93 -2.33,2l0.55 1.23 -1.2 1.6 0 0.2 -2.25 0.2 0 3.17c-0.68,0.92 -1.04,2.05 -1.04,3.42 0,1.43 0.52,2.8 1.53,4.1l-0.87 2.68 1.2 0.93 1.43 0 1.2 -1.11c2.84,-1.44 4.32,-2.27 4.4,-2.5 0.93,-0.15 2.79,-0.92 5.63,-2.29l1.1 0.49c1.72,-1.6 3.8,-2.44 6.26,-2.5l1.91 -1.4 -1.42 -2.89c1.12,-0.91 1.7,-1.45 1.75,-1.61l2.65 -0.89 1.51 -1.6 0.82 -0.5 0.3 -0.73 1.45 -0.87 0 -0.93c-1.18,-1.57 -1.92,-2.47 -2.24,-2.68l0 -0.69 -4.49 -1.81z"/>
   <path fill="black" fill-rule="nonzero" stroke="black" stroke-width="2" stroke-miterlimit="22.9256" d="M617.29 30.9l3.12 0.23 4.48 -0.33 0 3.42c-0.9,0.41 -1.37,0.86 -1.37,1.31 -1.48,0.52 -2.24,1.22 -2.24,2.1 0,0.39 0.05,0.69 0.16,0.89l-0.54 1.9 -6.02 6.58 -0.87 3.23 -1.45 1.17 0.16 2.5 -2.32 6.63c-0.22,0.14 -0.33,0.27 -0.33,0.39 0,0.26 0.27,0.5 0.82,0.68l3.66 -2.78 2.11 -0.69 1.67 -2.33 3.11 -1.37 3.78 -3.51c1.01,-0.95 3.2,-1.82 6.56,-2.59 0,-0.56 0.82,-1.35 2.41,-2.4 0.22,-0.03 0.87,-0.31 1.99,-0.88 1.12,-0.55 2.16,-1.02 3.15,-1.42l-0.33 -0.33c3.85,-1.27 5.74,-2.13 5.69,-2.58 2.73,-0.72 4.48,-1.55 5.27,-2.5 3.86,-2.15 6.62,-3.29 8.34,-3.42 0.44,-0.03 1.12,-0.18 2.14,-0.47 0.98,-0.26 1.8,-0.45 2.51,-0.51 1.12,-0.87 2.6,-1.32 4.41,-1.32 1.06,0 1.61,0.48 1.61,1.42l0.22 3.18 -1.04 1.8 -0.17 2.3 -1.75 2.73 -1.83 6.89c-0.22,0.38 -0.6,0.61 -1.12,0.68l0.96 2.2 -1.12 1.22 1.91 0.68 -0.63 0.63c-0.33,0.2 -0.87,0.72 -1.61,1.57 0.55,0.32 0.96,0.63 1.28,0.93l-0.49 3.9 0.33 0c0.55,3.42 1.15,5.15 1.83,5.19l3.45 -0.79c1.34,-1.33 3.39,-2.48 6.18,-3.41 0.95,-0.1 1.69,-0.3 2.16,-0.6 0.84,0 1.39,-0.15 1.61,-0.49 0.96,-0.35 1.81,-0.6 2.54,-0.7 0.77,-0.11 2.33,-0.55 4.73,-1.3l2.74 0.39c0.63,0.36 1.04,0.71 1.2,1.08 -1.45,1.07 -3.01,2.35 -4.7,3.85 -1.67,1.5 -2.87,2.25 -3.56,2.25l-2.24 0 -1.67 1.52 -4.1 0.48 -3.61 2.83 -2.95 0.49 -11.3 4.8 -3.44 2.1 -0.49 -1.82 -2.96 0.1 -1.03 -2.98 -1.62 -0.79 -0.16 -3.41 -0.79 -2.1c0,-1.75 0.54,-2.69 1.61,-2.79l0 -0.23 0.96 -2.3 -0.17 -3.17 1.83 -2.2 -1.28 -0.93 2.57 -1.8 0.16 -3.77 1.37 -1.8 -2.32 -1.91 0.62 -0.09 0 -1.41 1.54 -0.5 0 -0.29 -0.17 -0.83 0 -0.2c-0.46,-0.32 -1.67,-0.58 -3.61,-0.78l-3.82 1.91 -5.39 1.5 -7.85 5.39 -1.2 1.11c-2.36,1.44 -3.5,2.24 -3.45,2.4l-1.58 0.69c-0.22,0.65 -0.33,1.08 -0.33,1.31l-3.12 2.2 -3.28 2.87 -5.61 5.43 -0.32 0 -0.96 1.37 -1.53 3.22c-2.24,1.13 -4.24,2.28 -6.02,3.41l-2.62 0.4 -1.7 1.7 -1.12 0.1 -2.16 -0.3c-1.18,0 -2.43,0.17 -3.77,0.5l1.69 -2 0.63 -1.81c2.08,-3.09 3.66,-5.89 4.73,-8.4l0.33 0 0 -1.42 1.67 -2.88 0.65 -2.49 0.3 0 -0.79 -1.61 0.79 -3.02 0.58 -1.08c0.16,-0.32 0.9,-1.02 2.24,-2.1l-0.49 -1.32 0.98 -0.88c-0.98,-1.55 -1.45,-2.99 -1.45,-4.29l0.47 -1.61 -0.3 -0.3 0 -0.59c-1.51,-0.61 -3.15,-0.91 -4.98,-0.91 -0.57,0 -1.2,0.08 -1.89,0.28 -0.65,0.2 -1.67,1.08 -3,2.63 -3.48,0.72 -5.5,1.19 -6.08,1.37l-1.44 -1.9c0,-0.55 0.27,-0.98 0.84,-1.27 0.55,-0.3 1.02,-0.45 1.4,-0.45l1.37 0 1.28 -1.06 2.46 -0.39 -0.96 -0.4 0 -0.53 3.07 0.3 3.28 -2.2 4.65 -1.67 0.95 1.07 0.33 -1.7 0.69 -0.42c0.44,0.13 -0.74,-0.06 -0.55,-0.06 0.44,0 0.66,-0.3 0.66,-0.89 1.85,-1.36 3.85,-2.13 5.93,-2.3 0.63,-1 1.83,-1.53 3.61,-1.6l0 -0.5 0.63 -0.23z"/>
   <path fill="black" fill-rule="nonzero" stroke="black" stroke-width="2" stroke-miterlimit="22.9256" d="M702.35 16c0,-3.18 1.38,-6.02 4.14,-8.5 2.74,-2.47 5.96,-3.7 9.69,-3.7 3.78,0 7.06,1.23 9.81,3.73 2.76,2.49 4.16,5.4 4.16,8.77 0,3.45 -1.4,6.38 -4.16,8.78 -2.75,2.42 -6.11,3.62 -10.04,3.62 -3.57,0 -6.72,-1.25 -9.46,-3.77 -2.76,-2.5 -4.14,-5.48 -4.14,-8.93zm25.71 0.3c0,-2.93 -1.15,-5.43 -3.46,-7.5 -2.31,-2.07 -5.13,-3.1 -8.42,-3.1 -3.21,0 -5.96,1.05 -8.27,3.15 -2.31,2.1 -3.47,4.58 -3.47,7.45 0,2.87 1.16,5.33 3.47,7.4 2.31,2.07 5.06,3.1 8.27,3.1 3.26,0 6.07,-1.02 8.4,-3.07 2.33,-2.03 3.48,-4.51 3.48,-7.43zm-17.34 -6.7l5.34 0c4.25,0 6.38,1.3 6.38,3.92 0,1.75 -1.07,2.91 -3.21,3.51l3.32 5.9 -3.54 0 -2.95 -5.41 -2.08 0 0 5.41 -3.26 0 0 -13.33zm3.26 2.1l0 3.82 2.08 0c2.03,0 3.06,-0.64 3.06,-1.9 0,-1.29 -1.06,-1.92 -3.17,-1.92l-1.97 0z"/>
   <path fill="black" fill-rule="nonzero" stroke="black" stroke-width="2" stroke-miterlimit="22.9256" d="M85.01 2.03l3.77 0.3 1.83 1.8 -0.33 2.2c0.17,0.42 0.33,0.79 0.44,1.1 0.14,0.3 0.38,1.32 0.68,3l0.66 1.17 0 1.82 1.83 1.11 0 0.69 2.65 12.7 -0.65 0.88 0.61 0 -0.61 0c1.01,1.78 1.88,3.62 2.57,5.52l2.65 0.58 2.49 -1.27 2.62 0.69 1.13 0 0.32 0.18 0.5 -0.18c0.19,0.13 1.28,0.25 3.28,0.38l4.07 -1.8 6.43 0.23 0.3 -0.71 4.1 0.71 7.11 -1.11 1.45 -0.89c0.55,-0.35 1.23,-0.61 2.08,-0.78l3.22 -0.63 1.42 1.41 2.66 0 1.12 2c-1.01,1.29 -2,2.2 -2.96,2.79l-0.82 -0.29 -6.39 4.1 -3.28 1.37 -7.85 0 -4.4 0.73 -3.86 -0.53 -7.68 2 -0.5 -0.2 -4.73 1.22 1.12 10.6 0.33 0 0 0.48 -1.12 0.73 1.12 0.59 0.33 2.3 0.79 0.48 -0.79 0.93 1.5 1.27 0.82 3.92 1.13 0.91 1.12 -0.23 0.38 0.63 -0.17 0.69 -1.03 0 0.32 5.71c-0.95,0.97 -1.94,1.8 -2.95,2.49l-2.9 0.2 -0.87 1.41 -2.08 -0.2 0.3 1.27 -1.26 0.98c-0.38,0.29 -1.83,0.9 -4.35,1.85l-2.78 -1.41c-0.33,-0.14 -0.72,-0.49 -1.13,-1.07l-0.95 -1.42 0 -2.73 -1.53 -4.3 -0.63 -0.68 0.63 -2.79 -0.63 -2.4 1.5 -1.9 -1.83 -4c0.46,-0.61 0.79,-1.45 0.96,-2.5l-0.63 -0.73 0.63 -2.1c0,-0.58 -0.33,-1.78 -0.96,-3.6l1.45 -1.97 -0.49 -3.21 -2.41 -0.89 -1.67 0.4 0 -0.4 -3.61 0.2 0.33 1.37 -1.78 -0.28 -1.99 0.28 -0.5 0.2c-2.46,0.75 -4.84,1.12 -7.19,1.12l-2.32 -0.2 -4.73 0.88 -4.98 0.53 -0.33 1.29 -3.44 -0.89 0 0.89 -0.63 0 -2.33 1.41 -3.28 0 1.21 2 -3.12 -0.4 -4.81 1.77 -1.12 0.73 -2.66 -0.5 -2.95 1.37 -2.9 0 0 1.32 -2.95 0.3 -1.2 1.61 -1.45 0.87 -2 3.13 0.55 0.3c-0.14,0.29 -1.04,0.89 -2.63,1.8l-0.33 2.69 -2.32 1.06 0.33 0.55 -1.12 0 0 1.07 -2.66 1.22 0 0.4c-0.38,0.23 -0.98,0.83 -1.83,1.8l-0.65 0 -1.92 3.41 -0.71 -0.63 0 0.4 -1.94 0.92 -0.47 0.93c-0.11,0.33 -0.68,0.78 -1.69,1.37l-2.95 -0.69c-0.33,-0.55 -0.61,-0.86 -0.82,-0.93l0.32 -0.68 0 -0.39 0.5 -0.93c-0.61,-0.62 -0.96,-1.85 -1.13,-3.7l1.13 0.33 -0.82 -0.53 0 -0.68 0.32 -0.2 -0.63 -1.22 0.63 -0.88 -0.79 -1.12 0.47 -0.4c-0.09,-0.72 -0.2,-1.7 -0.31,-2.97l1.51 -0.73 4.43 2.1 2.62 0 9.3 -7.08 -1.45 -0.59 0.33 -1.03 -2.95 0.73 -0.5 0.49 -0.62 -0.19 -1.86 0.59c-0.52,0.2 -1.67,0.35 -3.45,0.48l-2.62 -2.1c1.25,-1.98 2.4,-3.1 3.44,-3.37 0,-0.35 0.88,-1.08 2.63,-2.2l1.86 -0.33 -0.33 -0.2 2.95 -2.48 0.33 0 7.05 -0.89 0.8 0.89 1.45 -0.2 0.32 0.2 0.88 0 0.63 -0.89 2.32 0.2 0 -0.4 1.78 -0.93 -1.12 -1.17 1.42 -1.31 3.77 -0.89 -0.33 -0.53 0.5 -0.73c0.11,-0.24 0.93,-0.75 2.49,-1.57 1.01,-2.47 2.1,-3.9 3.28,-4.28l-0.66 0 3.77 -2.89 0.33 0.19 5.61 -5.42 -0.33 0 2.08 -1.9 0.49 0 4.49 -4.98 0.62 0 3.78 -3.8 1.12 -0.2 1.86 -2.1c0.19,-0.14 0.68,-0.87 1.42,-2.2l2.65 -1.22 0 -0.2 1.45 -2.3 0.88 -0.18 0.32 -1.82 1.12 0 0.31 -0.68 0.32 0 0.88 -1.12 6.34 -2.3 3.29 -1.37zm-12.58 14.6l-2.66 0.4 0 0.69 -2.62 1.6 -0.82 0 -3.61 3.18 -0.3 0 -2.65 3.12 0 0.5 -0.96 0.86c-0.33,0.37 -0.77,0.64 -1.37,0.84l-2.24 0.78 -1.04 1.62c-0.33,0.45 -0.57,1.58 -0.79,3.41l-1.45 -0.2 -0.33 1.27 -2.95 1.42 0.32 0.2 0 1.11 -2.65 0.69 -2.08 3.56c-0.38,0.69 -0.79,1.22 -1.2,1.62l-1.94 1.62 0.33 0.28 0 0.2 0.79 0.23 4.73 0 2.02 0.69 6.24 -2.29 5.22 -0.2 0.3 0.69 0.49 -1.22 2.96 0 5.3 -0.88 1.42 0.3 3.29 -0.69 0 -0.2 4.97 -1.03 0 -0.18 6.18 -0.89 0 -1.11 -2.1 -1.19 0 -3.8 1.78 -2.5 -1.78 -0.73 -2.3 0.73 -2.98 -2.53 4.16 -0.2 0 -0.68 -4.95 -0.69 0.46 -0.73 -1.42 -1.07 0.96 -0.93 -2.66 -2.48 0.5 -0.5 0.71 -0.19 -1.21 -0.73 -0.95 -3.37 -1.12 -0.4z"/>
  </g>
 </g>
</svg>
