<?xml version="1.0" encoding="UTF-8"?>
<!DOCTYPE svg PUBLIC "-//W3C//DTD SVG 1.1//EN" "http://www.w3.org/Graphics/SVG/1.1/DTD/svg11.dtd">
<!-- Creator: CorelDRAW 2020 (64-Bit) -->
<svg xmlns="http://www.w3.org/2000/svg" xml:space="preserve" width="3254px" height="826px" version="1.1" shape-rendering="geometricPrecision" text-rendering="geometricPrecision" image-rendering="optimizeQuality" fill-rule="evenodd" clip-rule="evenodd"
viewBox="0 0 3254 825.57"
 xmlns:xlink="http://www.w3.org/1999/xlink"
 xmlns:xodm="http://www.corel.com/coreldraw/odm/2003">
 <g id="Capa_x0020_1">
  <metadata id="CorelCorpID_0Corel-Layer"/>
  <path fill="black" fill-rule="nonzero" d="M1460.02 1021.29l19.33 0 0 -143.86 -19.33 0 0 -7.34 76.96 0 0 7.34 -17.51 0 0 143.86 20.31 0c9.14,0 15.82,-0.69 19.94,-2.04 4.16,-1.34 7.63,-3.75 10.4,-7.17 0.39,-0.48 0.77,-0.97 1.13,-1.48l6.49 0 0 12.95c-2.3,0.84 -4.67,1.59 -7.13,2.23 -8.6,2.24 -18.59,3.34 -30.01,3.34l-80.58 0 0 -7.83z"/>
  <path fill="black" d="M2397.87 418.71c0,-3.47 3.86,-8.23 11.32,-14.28 16.47,-12.86 30.62,-21.22 42.58,-25.21l11.19 11.71c-2.44,6.17 -4.5,15.04 -5.91,26.36 -1.55,9.27 -2.32,14.92 -2.32,16.98l0 13.89 -6.3 9.01c0,6.3 2.7,12.35 8.23,18.14 -1.54,2.7 -2.32,4.37 -2.32,4.88l0.78 18.53c0,0 -0.13,1.28 -0.39,4.11 -0.26,1.68 -0.39,4.63 -0.39,8.62l-1.93 72.03c0.26,3.74 1.93,12.35 4.89,25.99l0.77 15.82c1.55,7.46 2.32,11.96 2.32,13.12 0,5.27 -2.32,10.16 -6.82,14.41 -1.28,1.28 -6.04,4.5 -14.28,9.77 -12.47,9.78 -19.68,15.05 -21.35,15.82 -2.57,1.03 -4.76,1.55 -6.82,1.55 -2.95,0 -6.04,-1.55 -9,-4.5 1.03,-6.31 1.54,-10.42 1.8,-12.48 0.26,-3.09 1.67,-8.62 4.25,-16.59l0.25 -18.53 2.7 -36.91 0 -6.69c0.26,-4.12 2.19,-6.05 5.92,-6.05 1.03,0 2.32,0.13 3.73,0.39 1.29,-4.12 1.93,-6.82 1.93,-8.36 0,-1.93 -0.77,-5.92 -2.32,-11.71 -0.64,-2.44 -1.41,-6.05 -2.18,-10.55l-6.3 -4.89c0.77,-5.53 1.02,-9.64 1.02,-12.34 0,-1.29 0,-3.22 -0.25,-5.66 0,-2.06 0,-3.86 0,-5.28 0,-3.34 1.15,-6.94 3.73,-10.93 -2.58,-3.09 -3.73,-6.18 -3.73,-9.52l0 -2.96 0 -2.7 -0.77 -8.62c16.07,-2.96 24.18,-5.66 24.18,-7.97 0,-0.13 -0.26,-0.52 -0.77,-1.03 -3.73,-3.35 -8.24,-4.89 -13.77,-4.89 -3.98,0 -8.87,0.26 -14.53,0.77 0.77,-3.86 1.16,-6.3 1.16,-7.59 0,-0.51 -1.03,-12.99 -3.09,-37.3 -0.26,-3.09 -2.57,-5.79 -7.21,-8.36zm-2398.66 368.77c1.91,-3.72 3.01,-5.72 3.56,-6.29l11.64 -7.57c3.01,-2.29 8.35,-8.86 16.16,-20.15 0.68,-1 3.83,-3.72 9.17,-7.86 2.88,-2.29 5.48,-5.43 7.67,-9.72 -0.27,-2.43 -0.41,-4.71 -0.41,-6.57 0,-6 3.56,-12.29 10.82,-18.86 10.14,-10.15 16.3,-16.87 18.49,-20.15l22.05 -41.87c0.28,-0.29 2.74,-1.14 7.53,-2.57l1.65 -1.57c-0.28,-3.15 -0.41,-5.72 -0.41,-8.01 0,-3.28 0.27,-5.43 0.82,-6.28l10 -13.87 39.72 -64.44 0.82 -4.14c-2.19,-1.72 -3.7,-2.58 -4.8,-2.58 -0.55,0 -2.05,0.29 -4.38,0.86 -1.1,0.29 -2.46,0.43 -4.11,0.43 -2.05,0 -4.65,-0.14 -7.53,-0.43 -1.64,-5.29 -2.47,-9.14 -2.47,-11.72 0,-1.43 1.78,-4.57 5.21,-9.57 2.19,-7.29 4.38,-12.86 6.85,-16.72 3.97,-5.86 7.25,-10.72 9.58,-14.29 5.35,0 9.18,0.43 11.23,1.29 11.78,4.14 17.67,6.28 17.67,6.28 0,0 0.41,-0.28 1.23,-0.85 0.83,-3.15 1.24,-5.29 1.24,-6.72 0,-2.29 -0.69,-5.43 -2.06,-9.57 4.8,-3.43 7.53,-5.72 8.08,-7.15l7.95 -15.86c1.91,-4 7.12,-10 15.74,-18 0.83,-6.72 1.65,-10.86 2.61,-12.15 0.96,-1.43 6.02,-6.43 15.47,-15.15 0.69,-1.14 3.84,-8.57 9.18,-22.57 1.64,-3.58 8.9,-15.58 22.05,-36.01l26.43 -53.59 10.82 -12.15c0.55,-5 1.1,-8 1.65,-8.71 0.54,-0.86 4.24,-6.57 11.23,-17.29 0.54,-0.72 0.82,-1.72 0.82,-2.86 0,-2 -0.28,-4.14 -0.82,-6.72 2.46,-2.28 4.93,-6.14 7.67,-11.71 2.32,-5.29 4.93,-10.01 7.67,-14.29l7.94 12.14c1.37,-3.28 2.05,-5.71 2.05,-7.14 0,-2.15 -1.09,-5.57 -3.28,-10 2.74,-6.72 4.79,-10.86 6.02,-12.58 5.07,-7.72 7.67,-12.43 7.67,-13.72 0.28,-0.28 0.41,-3.43 0.41,-9.29 0,-0.85 1.51,-3.85 4.39,-9.14 1.09,-1.72 3.83,-8.57 8.08,-20.58 0.54,-1.71 1.91,-5.43 4.38,-11.29l17.26 -1.71 -1.65 -5.43 -10.41 -5 0 -6.72c3.97,-3.29 6.99,-7.14 8.91,-11.29l-4.52 -4.14 0 -1.72c4.1,-3.85 7.94,-9.28 11.64,-16.29 3.56,-6.71 6.57,-12.29 9.31,-16.71 -2.19,-4.01 -3.29,-7.15 -3.29,-9.72l0 -2.86 0 -4.29 0 -8.71 32.6 -23.44 7.53 5.86c2.74,-5.29 4.25,-8.86 4.8,-10.43 1.91,-4.86 3.83,-7.14 5.61,-7.14 1.92,0 4.11,0.57 6.44,1.71 1.37,-5.86 4.11,-10.29 8.08,-13 5.34,-4.29 10.13,-6.29 14.38,-6.29 8.08,0 12.46,10.15 13.28,30.58 2.88,13.29 4.52,22.58 4.8,27.58 1.09,8.71 4.52,18.43 10.41,29.29 3.56,14.58 5.2,24.01 5.2,28.44 0,3.14 0,6.43 0,10.14l-16.02 8.72c2.46,5.57 4.65,9.14 6.84,10.43 1.37,0.57 7.4,2.57 18.08,5.86 5.07,1.71 10.41,10 16.03,24.72 3.97,10.43 6.02,16.72 6.02,18.86 0,1.72 -1.64,5.15 -4.79,10.43 4.24,4.58 7.12,7.29 8.35,8.43 6.71,6.15 10.41,9.86 10.82,11.29l4.93 13.01 7.95 20.86c0.82,1.71 1.5,6.29 2.05,13.86 8.22,9 13.01,18.15 13.97,27.58 0.82,7.57 1.23,11.57 1.23,11.72l8.91 14.29c0.96,2.28 6.57,14 16.84,35.15l-9.31 5.86c1.64,5.28 3.83,9.28 6.44,11.71l6.02 1.29 -1.23 9.15c27.39,27.15 41.36,53.44 42.18,79.16 1.1,6.14 6.85,19.15 17.26,39.01 14.38,28.44 22.46,45.01 24.1,49.73 2.06,6.14 5.07,12.14 8.77,18l24.92 57.45 -0.82 12.14c16.03,8.86 24.11,17.43 24.11,25.44 0,4 -3.98,7.86 -11.64,11.71 2.05,4.72 4.24,7.72 6.43,8.86 0.55,0.58 3.15,1.72 7.95,3.29 3.83,1.43 7.8,6.57 12.05,15.58 2.19,4.14 5.61,14.14 10.41,30.15 11.5,18.29 18.76,30.29 21.64,36.01 -5.07,4.14 -7.54,8.57 -7.54,13.29 0,1.71 0.14,3.85 0.41,6.28 -9.17,4.29 -15.61,6.72 -19.31,7.58 -1.37,0.57 -6.02,1 -13.97,1.28 -3.83,0.29 -13.14,3.58 -28.21,10.01 -6.85,-16.44 -11.09,-28.16 -12.33,-35.16 -1.09,-5.86 -3.69,-12.14 -7.67,-18.86 -7.25,-20.58 -10.82,-32.15 -10.82,-34.72 0,-2 0.14,-4.15 0.42,-6.72 -4.8,-4.71 -7.67,-8.86 -8.5,-12.57 -0.27,-0.86 -0.54,-5.15 -0.82,-13.01 -0.41,-3 -0.68,-5.14 -0.68,-6.28 0,-3.29 1.23,-7.86 3.97,-13.72l-12.05 -11.29c3.15,-4.29 5.48,-7 6.84,-8.43 2.61,-2.29 3.98,-4.15 3.98,-5.86 0,-1.72 -0.28,-3.57 -0.82,-5.86l-19.18 1.72c-6.44,-9.01 -10.82,-16.15 -13.28,-21.44 -1.37,-3.29 -3.43,-12.15 -6.44,-26.29l-6.03 -14.72c-3.15,-17.86 -5.61,-28.44 -7.26,-31.72 -4.52,-10.15 -12.05,-15.15 -22.46,-15.15 -9.31,0 -14.51,10.43 -15.61,31.44 -2.19,0.85 -3.42,1.28 -3.97,1.28 -3.01,0 -6.71,-2 -11.23,-5.86 -7.81,-5.57 -15.89,-9.28 -24.11,-11 -3.97,-0.43 -9.58,-2.57 -16.84,-6.29 -9.59,-4.71 -17.39,-7 -23.28,-7 -2.47,0 -9.73,1.29 -22.05,4.15l-11.65 -2.15 -12.87 1.29 -10.82 0 -10.82 1.71 -18.9 0.43c-7.94,0.29 -13.28,0.43 -16.02,0.43 -3.98,0.29 -6.03,0.43 -6.03,0.43l-24.93 -5.86 -11.91 2.43c-8.63,-2.43 -13.29,-3.71 -14.11,-3.71 -1.64,0 -8.08,1.57 -19.31,4.57 -8.22,2 -15.61,3.28 -22.05,3.71l-11.23 -13.29c-8.49,1.58 -17.12,4.86 -25.61,9.58 -0.82,0.57 -6.71,1.71 -17.67,3.28 -3.97,0.58 -6.16,0.86 -6.43,0.86 -3.15,0 -7.26,-0.43 -12.06,-1.14 -6.71,-1.43 -12.6,-2.14 -17.66,-2.14 -3.7,0 -10.41,1.28 -20,3.71 -5.62,1.72 -11.5,2.86 -17.67,3.43 -3.01,5 -4.79,8.29 -5.61,10 -4.11,8.72 -9.31,17.01 -15.62,25.15 -4.65,7.58 -10.95,18.58 -18.9,33.01l-7.25 -1.57c-2.2,2.14 -3.15,4.29 -3.15,6.29 0,1.57 0.41,4.57 1.09,8.71 0.28,1.72 0.55,4 0.82,7.15 -5.06,6.14 -7.8,9.86 -8.35,11.29l-19.31 40.58c-3.43,5.86 -7.26,12.29 -11.23,19.29l-3.56 5.86 -22.05 14.57c-1.1,0.86 -1.65,2.43 -1.65,4.72 0,3 3.02,7.14 9.18,12.57l-6.03 19.58c-6.43,2.57 -10.82,4.72 -13.14,6.72 -3.84,2.85 -7.67,9 -11.65,18.43 -7.8,3.29 -12.73,5.86 -14.92,7.57 -3.7,2.72 -6.58,4.15 -8.36,4.15 -0.82,0 -3.56,-1.43 -8.08,-4.15 -1.09,-0.85 -2.74,-1.28 -5.2,-1.28 -1.65,0 -3.43,0.14 -5.62,0.43 -5.07,-5.29 -10.68,-9.01 -16.84,-10.86zm221.45 -289.8c5.89,-3.28 9.59,-5 10.82,-5 1.92,0 4.8,1.86 8.5,5.43l12.46 -1.57 4.79 8.72c5.62,-2 13.15,-2.86 22.87,-2.86l35.75 0c6.57,0.29 15.61,2.29 26.84,6.29 11.78,0.71 20.41,1.71 26.03,2.86 5.61,8.71 12.18,13 19.72,13l25.2 -13 0 0 13.69 3 22.88 0 8.76 2.43 11.64 -1.72 10.96 1.29 10.82 -0.86 10 3 23.69 -4.14 18.35 -1.29 35.75 -3.86 29.72 2.57c4.24,0 6.43,-1.71 6.43,-5 0,-1.43 -1.23,-6.14 -3.69,-14.29 -0.42,-2.14 -0.83,-5.57 -1.1,-10 -5.07,-3.71 -8.9,-7.86 -11.23,-12.57 -9.45,-19.87 -14.79,-29.73 -16.02,-29.73 -2.74,-3.85 -4.8,-8.57 -6.03,-13.86 -1.09,-4.71 -3.29,-9.71 -6.44,-15 1.24,-7.29 1.92,-13.43 1.92,-18.43 0,-2.86 -0.96,-7.43 -3.15,-13.86l-14.11 2.14c-2.87,-6.43 -4.65,-10.58 -5.2,-12.58l-2.74 -10.43 -8.9 -13 -10 -18.43 -4.38 -8.01c-1.92,-11.43 -5.34,-21.72 -10.41,-30.86 -3.84,-7 -5.48,-13.15 -5.21,-18.44l7.95 -3.85c-2.6,-4.43 -6.03,-6.72 -10,-6.72 -1.64,0 -3.42,0.14 -5.61,0.43 -2.74,-5.86 -4.52,-9.57 -5.62,-11.29 -6.16,-9.43 -9.31,-14.57 -9.59,-15.43l-2.46 -16.29 -6.03 -11.01 -6.02 -14.57 -13.29 -17.15 -7.12 -24.29 -6.85 -12.58c-3.42,-7.57 -7.4,-14.57 -11.64,-21 -6.71,4.29 -11.23,8.72 -13.7,13.43 -4.52,9.29 -6.57,17.58 -6.43,25.15l-2.33 0c-4.52,8.15 -10.41,17.43 -17.67,28.01l-23.28 46.15c-4.25,7.72 -7.12,14.44 -8.36,20.01 -4.93,3.14 -7.94,7 -9.31,11.72 -5.07,12 -12.33,19.72 -21.64,23l2.06 11.72 -6.03 3 -0.41 0c-5.07,-0.57 -9.59,-1 -13.29,-1.29l-3.15 5.43 10.41 6.72c-3.28,10.86 -7.94,21.86 -14.1,33.01 -12.6,25.15 -24.38,41.44 -35.75,48.58 -2.6,1.72 -4.25,6.15 -4.79,13.44 -0.28,5.28 -1.37,10.28 -3.56,15.14 0,0 -3.57,6.86 -10.82,20.87l-9.32 10.43 -4.79 11.71c-6.16,10.44 -9.86,17.29 -11.23,21.01 -1.51,5 -3.29,9.86 -5.21,14.57zm629.74 -469.03c4.11,-1.1 7.39,-2.61 10.13,-4.39 6.3,-4.38 11.23,-7.12 14.79,-8.49 7.12,-3.15 13.83,-8.35 20,-15.61 1.37,0 2.6,0 3.56,0 6.16,0 9.31,3.56 9.31,10.82l0 0.82c0,1.64 -0.13,3.29 -0.41,5.2 -0.27,1.37 -0.41,2.2 -0.41,2.33l3.97 14.11 -1.64 33.69c-0.28,21.64 -0.55,33.01 -0.82,34.1 -0.41,2.74 -2.74,6.3 -6.71,10.82l-2.47 12.88 8.49 1.23c1.51,6.71 2.33,11.5 2.33,14.38 0,5.07 -2.74,10.41 -8.35,16.02 -0.55,7.54 -0.83,12.33 -0.83,14.52 0,2.88 1.78,5.89 5.21,8.77 0.27,5.06 0.41,8.9 0.41,11.23l-2.06 50.26 0 50.95c0,2.6 -2.32,7.81 -7.12,15.61 -1.64,2.88 -2.46,5.62 -2.46,8.08 0,0.41 1.92,7.12 5.61,20 0,0.27 0,0.96 0,2.05 0,3.97 -2.87,8.49 -8.35,13.56l8.76 19.31 4.39 3.15 0 24.93 1.23 90.25 -7.26 4.39c0.82,5.89 1.23,10.82 1.23,14.51 0,1.1 -0.82,7.54 -2.46,19.31 0,0.42 0,4.11 0,10.82l12.6 1.51c-0.82,1.92 -1.23,2.88 -1.23,2.88l7.25 65.33 -0.82 16.84c1.65,8.08 2.47,12.05 2.47,12.05 -5.48,8.63 -8.08,13.29 -8.08,14.11 0,1.37 0.68,3.01 2.05,5.21 -5.48,2.19 -12.87,6.16 -22.6,12.05 -5.61,3.15 -8.76,4.93 -9.31,5.2 -0.68,0.28 -3.29,0.41 -7.94,0.41 -6.3,5.07 -11.64,7.67 -15.62,7.67 -1.09,0 -2.87,-0.55 -5.61,-1.64 0.27,-4.11 0.41,-7.4 0.41,-10.14 0,-2.6 -0.55,-6.71 -1.64,-12.32 -0.55,-2.47 -0.69,-4.66 -0.69,-6.44 0,-0.82 0.96,-4.93 3.15,-12.46l0.82 -8.77 1.51 -12.05 -1.1 -7.67 33.7 -21.64 -32.6 -22.46 0.82 -5.2 2.88 -14.52 3.56 -10c0,-0.55 -2.33,-5.34 -7.26,-14.52 -0.68,-1.5 -1.1,-3.01 -1.1,-4.38 0,-0.82 1.92,-6.44 6.03,-16.85 2.88,-7.67 4.52,-14.92 4.79,-21.64l-9.31 -4.79c0,-6.71 0,-11.23 0,-13.69 -0.41,-6.17 -0.69,-10.14 -0.69,-12.06 0,-0.82 1.37,-6.57 4.39,-17.66 0.27,-0.96 0.41,-3.15 0.41,-6.3 0,-9.45 -0.55,-19.86 -1.64,-31.37 -0.55,-4.24 -0.83,-8.08 -0.83,-11.23 0,-2.74 2.2,-8.63 6.44,-18.08 0.28,-8.21 1.1,-14.79 2.47,-19.58l-8.5 -10.14 0 -88.2c3.43,-2.74 5.76,-5.34 6.85,-8.08 1.51,-4.52 3.7,-9.72 6.44,-15.61 -5.62,-2.19 -10.14,-4.52 -13.7,-7.26 1.92,-7.39 2.88,-12.19 2.88,-13.97 0,-2.74 -2.47,-5.34 -7.26,-8.08 -0.82,-3.7 -1.23,-8.49 -1.23,-14.38l-0.41 -16.43c0,-2.2 1.92,-6.3 5.61,-12.47 0.82,-1.09 1.24,-2.19 1.24,-3.28 0,-0.55 -0.69,-3.15 -2.2,-7.81 -1.5,-4.66 -2.32,-7.12 -2.6,-7.4 0,0 -0.41,-0.82 -1.23,-2.46l30.13 -21.23 -20.54 -27.67c-10.41,-13.97 -15.62,-22.05 -15.62,-24.51 0,-2.06 0.82,-6.57 2.47,-13.15 0.82,-3.01 1.37,-7.4 1.92,-13.28zm136.84 -15.69c4.8,0 11.05,-4.07 18.76,-12.36 6.99,0 11.35,0 12.66,0 5.24,0.29 8.29,0.43 9.45,0.43l22.99 -0.87c1.74,0 8.72,2.76 20.94,8.14 0.44,0.3 1.17,0.44 2.04,0.44 0.87,0 3.78,-1.31 8.58,-3.78l4.66 0 79.57 -2.62c2.33,-0.29 5.67,1.16 10.18,4.22 2.33,1.74 6.11,3.49 11.64,5.24l7.12 -7.28c15.72,0 31.72,1.17 48.15,3.35l1.31 -1.31c4.8,6.55 9.31,9.89 13.68,9.89 3.92,0 7.71,-3.49 11.49,-10.33 7.85,0.58 14.84,0.88 20.8,0.88l59.64 7.71 18.62 0.43c9.45,2.33 17.75,3.64 24.73,4.22 1.16,5.67 2.91,8.87 5.09,9.46 1.16,0.87 6.84,1.6 17.17,2.47 3.05,-6.26 6.25,-9.31 9.74,-9.31 0.58,0 3.35,0.87 8.44,2.47l14.54 0.44c2.77,0 7.72,2.18 14.41,6.4 9.16,5.67 14.98,8.58 17.45,8.58l9.02 -2.62 39.13 16.73c25.6,5.38 39.86,9.17 43.06,11.49 3.64,2.77 5.82,4.22 6.4,4.22l8.44 1.31c6.54,4.8 11.34,8.15 14.54,10.18l17.89 14.11 19.06 11.93c10.91,8.15 19.49,13.82 26.04,17.02 -1.75,6.26 -2.62,10.62 -2.62,13.24 0,7.42 2.47,11.05 7.27,11.05 3.93,0 8.44,-1.01 13.24,-3.05 5.38,6.54 12.95,14.4 22.55,23.56 6.54,6.4 9.45,10.62 8.87,12.22l3.06 12.8 10.62 29.53 0.87 19.5 7.27 26.47 1.16 32.44 3.06 13.53 -2.18 32.44c-0.58,16.43 -1.75,29.09 -3.78,37.96 -1.75,7.42 -4.95,17.6 -9.75,30.7l-7.71 0c-0.29,1.01 -0.44,2.03 -0.44,2.91 0,0.58 1.6,3.78 4.66,9.45 0.29,0.87 0.43,1.89 0.43,3.35 0,3.92 -1.01,8.58 -2.9,13.67 -2.33,5.67 -3.64,9.02 -3.93,10.18 -4.22,13.38 -8.29,20.08 -12.37,20.08 -3.34,0 -6.83,-4.37 -10.62,-13.24l-9.31 15.42 2.91 5.09 -2.03 8.44 7.56 11.05c-4.51,5.97 -10.62,17.31 -18.18,33.75l-10.77 13.67 -1.6 5.09 -19.2 20.08 -2.91 7.56 -12.36 14.55c-4.66,5.38 -7.56,8 -9.02,8 -1.45,0 -3.35,-1.16 -5.96,-3.78l-6.4 0 -5.53 -7.27c-5.09,5.67 -7.57,10.18 -7.57,13.23 0,2.62 1.89,6.26 5.97,11.06 -6.84,6.54 -15.57,13.23 -26.04,20.07 -5.97,3.93 -10.62,8.15 -14.11,12.37 -8.73,-3.64 -17.89,-6.11 -27.2,-7.28l-1.75 5.09c3.78,5.1 6.11,9.46 7.27,12.8 -5.38,5.39 -14.98,12.95 -28.94,22.7l-28.95 14.84c-2.33,1.16 -6.98,5.09 -14.11,11.92 -6.4,-5.96 -12.37,-9.02 -17.75,-9.31 -2.03,9.02 -4.65,14.84 -7.71,17.46 -1.45,0.87 -10.18,3.35 -26.47,7.71 -1.6,0.14 -3.78,1.31 -6.4,3.34 -10.48,8.73 -16,13.24 -16.58,13.24l-9.32 0c-1.16,0 -5.09,2.47 -11.92,7.57 -1.46,1.16 -7.71,3.63 -18.77,7.27 -1.89,0.87 -4.51,2.04 -7.71,3.49 -16.73,7.86 -28.65,12.51 -35.64,13.53 -7.71,0.58 -17.02,2.62 -28.22,6.11l-40.87 13.96 -28.08 2.62 -10.62 3.35 -7.27 0.87 -15.71 2.18 -9.31 0 -17.89 4.22 -24.29 0.87 -33.61 2.48 -7.71 -0.44c-7.42,-0.29 -13.09,-0.58 -17.02,-1.16l-64.73 2.47c-0.29,0 -1.6,0.44 -3.92,1.31 -0.88,0.29 -1.61,0.43 -2.48,0.43 -7.42,0 -11.05,-3.49 -11.05,-10.61 0,-2.33 0.87,-4.08 2.76,-5.1 1.75,-1.16 8.29,-3.92 19.35,-8.14 11.63,-4.22 19.93,-8.15 24.73,-11.49 1.16,-7.71 3.92,-14.55 8.43,-20.51 -0.72,-9.02 -1.16,-15.71 -1.16,-19.93l5.53 -32.44 0 -0.44c0,-3.2 -0.44,-6.54 -1.31,-10.18 -1.17,-4.07 -1.75,-5.96 -1.75,-5.96 0,-0.88 2.04,-9.9 5.97,-26.92 0.58,-2.61 0.87,-4.94 0.87,-7.27 0,-2.76 -1.75,-8 -5.09,-15.71l34.91 -9.89 -33.6 -54.11c0,0 0.29,-0.59 0.87,-1.6 10.76,-2.33 16.15,-5.97 16.15,-11.2 0,-3.06 -2.04,-7.42 -5.97,-13.1 -2.62,1.02 -4.94,1.6 -7.27,1.6 -4.22,0 -6.4,-4.65 -6.4,-13.96l0.87 -10.77 0 -57.45c0,-3.93 -0.29,-7.42 -0.87,-10.19 -0.29,-2.91 -0.44,-4.65 -0.44,-5.23 0,-4.51 2.48,-10.62 7.27,-18.33l-7.27 -5.09 0 -12.37 6.84 -6.69c-5.38,-5.53 -8.15,-11.93 -8.15,-19.2l0 -1.75 0 -9.45c0,-16.73 -0.43,-28.66 -1.16,-35.79 -0.29,-3.92 -0.44,-7.12 -0.44,-9.74 0,-2.62 0.88,-5.68 2.48,-9.31 3.49,0.43 6.4,0.72 9.01,0.72 3.64,0 5.53,-1.45 5.53,-4.65 0,-0.87 -1.74,-2.91 -5.09,-6.4 -2.62,-3.64 -5.09,-6.55 -7.71,-8.44 -7.13,-0.58 -10.91,-3.92 -11.49,-9.89l0 0 2.91 -23.42 -3.35 -84.37 3.06 -2.91 3.34 0c3.06,-9.16 4.66,-15.27 4.66,-18.33 0,-4.07 -4.07,-8 -12.37,-11.92 -0.58,-6.26 -3.2,-19.06 -8.14,-38.41l-0.73 -15.42c-2.33,-7.56 -3.49,-15.27 -3.49,-22.98 -0.29,-7.71 -1.75,-21.24 -4.65,-40.88 -6.26,0 -10.19,-0.14 -11.93,-0.43 -1.75,-0.29 -2.62,-0.44 -2.62,-0.44 -1.31,0 -4.51,0.87 -9.31,2.62 -3.2,1.31 -9.02,2.04 -17.46,2.04 -1.74,-3.64 -2.62,-6.84 -2.62,-9.31 0,-6.26 3.93,-11.06 11.5,-14.55 4.94,-1.89 8.14,-4.07 9.89,-6.4zm90.48 95.86l10.18 0c2.33,5.82 4.07,14.98 5.53,27.79l2.18 9.31 -0.87 27.34 1.31 15.71c-4.37,9.46 -6.41,14.69 -6.41,15.86 0,1.02 1.17,5.67 3.35,13.53l-1.6 31.13 0.29 9.01 0.44 13.97c2.03,9.16 3.05,14.55 3.05,16.29 0,2.18 -0.72,4.8 -2.18,7.71l-11.05 -3.49c-1.75,3.49 -2.62,6.11 -2.62,8.15 0,5.09 2.18,8.14 6.4,9.31 0.58,0.29 2.18,0.58 4.8,0.87 2.47,0.29 5.96,1.16 10.18,2.62 -5.96,5.96 -10.47,10.03 -13.67,12.36 -13.53,10.18 -20.37,18.48 -20.37,24.73 0,0.73 11.49,18.77 34.48,54.11 -2.62,12.22 -3.93,23.13 -4.22,32.73l-10.33 4.66 2.18 4.36 10.62 3.78 0.87 4.22 0 60.95c0,37.82 0.73,58.04 2.19,60.52 0.29,2.03 0.43,3.63 0.43,4.8 0,0.43 -0.73,5.23 -2.18,13.96 -0.29,2.91 -0.44,5.24 -0.44,7.27 0,5.1 1.6,16.73 4.66,34.92 0.29,1.74 0.44,3.49 0.44,5.09 0,2.62 -1.02,5.67 -2.91,9.02l-17.46 -5.53c-3.2,4.51 -4.8,8.29 -4.8,11.05 0,9.46 5.38,14.11 15.86,14.11 1.45,0 2.91,0 4.65,0 0.29,6.26 1.16,12.51 2.62,18.77 1.02,5.09 1.6,14.4 1.6,28.07 0,4.22 1.16,14.84 3.49,31.57 -8.58,5.96 -14.4,12.8 -17.46,20.37l-12.36 5.23 0 2.47 1.16 1.75c2.91,-1.16 4.66,-1.75 5.24,-1.75l22.98 0.88c9.6,0 14.99,0.14 16.15,0.43 1.16,0.29 3.78,1.75 8.15,4.22l5.96 -8.44c3.93,0.59 6.69,0.88 8,0.88l42.62 -1.31c0.58,0 3.06,1.02 7.28,2.91 2.91,-5.67 5.52,-9.17 8.14,-10.62 3.93,-1.75 9.89,-2.62 17.89,-2.62l4.22 0c16,0 26.04,-0.73 30.26,-2.47l11.49 -5.09 17.02 -5.09c25.02,-10.33 40.44,-17.17 46.11,-20.52l13.68 -3.78c15.27,-6.54 23.85,-10.18 25.45,-10.76 1.17,0 4.51,-0.15 9.89,-0.44l22.55 -12.36c10.18,-2.18 15.71,-3.93 16.58,-5.09 0.3,-0.88 0.59,-2.48 0.88,-5.1 5.67,-2.61 9.6,-4.21 11.49,-5.09 10.04,-3.92 22.84,-11.2 38.4,-21.67 8.73,-4.37 14.69,-7.42 17.89,-9.46 2.04,-1.45 16.01,-13.09 42.19,-34.91l23.86 -18.76 12.36 -18.33 20.95 -19.64c1.89,-1.74 4.51,-5.53 7.56,-11.49 2.04,-4.22 11.35,-16.44 28.22,-36.66 0.29,-0.29 1.6,-3.78 4.22,-10.62 1.16,-2.62 4.07,-8.58 9.02,-17.89 3.34,-6.84 5.24,-14.69 5.53,-23.42 0.29,-5.09 3.34,-14.4 9.31,-27.78 5.67,-13.39 8.14,-21.53 7.27,-24.73l0.44 -19.49 3.78 -23.13c0.87,-9.31 1.89,-16.15 3.05,-20.37 10.48,-2.33 15.71,-10.18 15.71,-23.42 0,-8 -5.23,-14.4 -15.71,-19.2 -0.58,-7.42 -2.32,-17.46 -5.23,-30.26l-0.73 -12.36c-3.49,-10.33 -5.24,-16.29 -5.24,-17.89 0,-3.79 0.58,-8.44 1.75,-14.11 -5.68,-5.1 -11.2,-12.22 -16.59,-21.24 -8.29,-14.55 -12.65,-22.55 -13.23,-23.86 -0.29,-0.29 -0.88,-4.36 -1.75,-11.93l-4.65 -4.8c-4.51,0 -7.86,-0.29 -9.75,-0.87 -2.91,-0.29 -8,-3.49 -15.42,-9.74 1.75,-4.51 2.62,-8.44 2.62,-11.5 0,-2.03 -1.31,-4.65 -3.78,-8.14 -4.37,-0.59 -8.15,-0.88 -11.64,-0.88 -0.73,0 -4.65,0.59 -11.49,1.75 -0.29,0 -0.58,0 -0.87,0 -1.6,0 -10.33,-6.4 -25.9,-19.2l-19.64 -11.49 -12.8 -10.19 -13.23 -6.4 -30.26 -15.71 -12.8 -3.92 -11.06 -3.79 -21.67 -3.05 -16.29 -4.66 -34.48 -5.52 -25.89 -5.53c-22.84,-3.93 -34.91,-6.4 -36.37,-7.27 -0.72,-0.59 -3.63,-2.91 -8.43,-7.28 -2.91,-2.47 -4.95,-3.78 -6.4,-3.78 -2.62,0 -5.97,1.16 -10.19,3.35 -3.2,1.74 -5.82,2.61 -8.14,2.61 -0.29,0 -5.09,-0.72 -14.55,-2.18l-17.46 -0.43 -45.09 -2.91 -36.66 1.31 -20.07 0 -4.22 0 -2.62 0c-3.63,0 -7.13,-0.73 -10.18,-2.19 -7.71,-3.05 -11.93,-4.65 -12.8,-4.65 -0.29,0 -2.62,0.87 -6.84,2.47 -2.33,0.88 -5.82,1.6 -10.62,2.18 -2.62,4.51 -3.78,7.57 -3.78,9.02l1.16 15.28 -3.34 12.36c-1.17,9.89 -2.77,17.89 -4.66,23.86l-7.71 -2.62c-2.61,4.36 -3.78,7.71 -3.78,10.33 0,1.6 0.44,3.05 1.6,4.22l3.06 3.34zm895.66 294.07l11.96 -7.59c3.86,4.63 6.44,7.46 7.98,8.74 0.51,0.52 3.09,1.81 7.85,3.86 2.57,1.16 13.37,11.84 32.41,31.77 6.05,6.44 10.29,12.35 12.48,17.88 2.06,4.77 4.11,10.68 6.43,17.5 1.54,3.47 3.22,8.1 5.27,13.63l-2.57 2.58c-2.83,-0.39 -6.56,-1.55 -11.32,-3.35l-14.41 5.28 -12.73 -2.32 -11.32 3.09c-15.56,-11.06 -23.8,-16.72 -24.57,-16.72 -1.54,0 -7.33,5.27 -17.75,15.56 -16.08,-2.96 -24.57,-4.5 -25.6,-4.5 -3.98,0 -8.74,0.38 -14.27,1.16l-1.93 -1.55c-3.99,0.52 -14.92,0.77 -32.8,0.77l-13.9 1.55 -17.36 1.41 -17.75 3.09 -15.82 -0.39c-14.54,4.51 -24.44,7.08 -29.72,7.85 -1.28,8.49 -2.57,14.41 -3.86,17.62 -1.41,3.73 -4.5,7.85 -9,12.35 7.97,5.53 12.35,9.39 12.86,11.58 2.45,16.08 4.89,26.75 7.08,32.28l6.81 3.73 -1.92 13.9 11.7 2.95c2.57,10.17 5.79,17.11 9.78,20.59 3.85,3.21 10.03,5.53 18.9,6.68 1.29,7.85 3.22,12.35 6.05,13.9 1.93,1.54 6.43,2.57 13.51,3.08l6.43 9.78c2.7,-0.51 5.14,-0.77 7.2,-0.77 1.42,0 9.01,3.08 22.51,9.39 3.09,1.54 6.3,2.31 9.91,2.31 3.21,0 9.64,-1.54 19.16,-4.5l24.18 -2.7 18.4 -5.27c8.75,-0.52 14.66,-1.29 17.75,-2.19 4.24,-1.8 12.09,-6.17 23.28,-13.25 11.06,-6.56 17.5,-11.19 19.3,-13.63 4.5,-5.15 8.74,-10.94 12.73,-17.63 2.06,-2.96 5.53,-4.5 10.55,-4.5 2.31,0 5.53,1.67 9.9,4.89 -1.8,9 -3.47,14.79 -4.88,17.49 -10.55,17.63 -17.24,29.33 -20.07,35.12 -3.22,-1.54 -6.05,-2.32 -8.23,-2.32 -1.55,0 -5.66,2.58 -12.48,7.46 -4.5,2.96 -10.16,4.76 -16.98,5.28 -15.56,4.24 -26.37,6.69 -32.41,7.46 -10.29,1.03 -16.73,1.8 -19.56,2.57 -7.84,2.45 -11.83,3.73 -12.09,3.73l-22.25 -3.34 -13.12 2.18 -6.43 0.39c-6.05,0.77 -10.68,1.16 -13.9,1.16 -3.34,0 -12.47,-0.9 -27.52,-2.7 -4.76,-0.39 -7.21,-0.65 -7.21,-0.65l-7.84 -4.88c-18.91,-5.79 -29.33,-9.27 -31.39,-10.17 -1.16,-0.77 -5.4,-4.63 -12.73,-11.32 -0.52,-0.51 -4.89,-3.34 -13.25,-8.36 -6.95,-4.24 -10.68,-7.46 -11.19,-9.77l-6.82 -11.97c-1.03,-2.05 -5.27,-6.81 -12.86,-14.4 2.57,-3.99 3.86,-6.95 3.86,-9.01 0,-0.77 -3.35,-7.84 -9.78,-21.09 -1.8,-3.47 -2.7,-14.15 -2.7,-32.03 0,-5.53 1.8,-14.54 5.27,-27.14 3.09,-9.78 5.15,-15.44 6.44,-16.85l12.86 -15.18 8.23 -17.62c8.49,-8.11 18.39,-17.11 29.33,-27.15l27.53 -16.97 27.91 -19.17 10.16 -1.93 28.68 -9 18.53 -1.55c14.79,-5.53 22.89,-8.23 24.44,-8.23 14.02,0 23.67,6.69 28.68,20.07zm-43.86 56.85l6.3 7.98c5.02,-1.03 8.36,-1.68 10.16,-1.93 6.82,-1.03 13.51,-2.7 20.33,-5.28l21.35 1.93c0.26,0 0.9,-1.28 1.93,-3.86 0.26,-1.41 0.39,-2.7 0.39,-3.73 0,-2.31 -1.55,-5.01 -4.64,-8.36 -0.38,-0.38 -1.67,-1.93 -3.73,-4.5 -5.91,-8.1 -9.77,-11.83 -11.19,-11.32l-12.47 -6.04c-1.42,-0.78 -3.86,-3.61 -7.08,-8.62 -7.2,-1.03 -19.68,-1.55 -37.17,-1.55l-7.46 -0.38 -12.87 7.59c-0.38,0.51 -7.33,2.18 -20.58,5.27 -10.55,3.73 -19.81,7.33 -27.78,10.94 -1.8,1.28 -6.69,5.53 -14.67,12.86 -1.54,1.28 -4.37,3.47 -8.61,6.81l0 2.19 0.77 0.77 27.4 10.94 8.23 8.36 14.66 -17.75c1.29,-1.03 2.58,-1.55 4.12,-1.55 0.77,0 6.95,1.68 18.39,4.89 0.26,0 0.52,0 0.77,0 3.22,0 10.42,-1.16 21.36,-3.73 2.57,-0.77 6.56,-1.41 12.09,-1.93zm367.14 67.66l-9.9 7.08c-9.78,-2.7 -17.62,-4.12 -23.41,-4.12 -6.82,0 -15.05,0.51 -24.57,1.54 -2.83,-5.79 -6.56,-10.16 -11.32,-13.25l-7.2 9.39c-5.28,0.78 -11.58,2.19 -18.91,4.25 -3.09,0.77 -5.66,1.16 -7.98,1.16 -0.51,0 -1.28,-0.13 -2.31,-0.39 -9.52,-2.06 -14.28,-3.09 -14.28,-3.09 -0.26,0 -0.64,0.39 -1.16,1.16l-7.2 -7.59c-3.99,1.8 -7.46,2.7 -10.16,2.7 -1.03,0 -4.25,-1.28 -9.52,-3.85 -1.29,-0.39 -3.48,-1.29 -6.82,-2.58 -19.42,-6.82 -29.07,-17.88 -29.07,-33.31 0,-13.25 5.14,-26.5 15.44,-39.62 2.7,-3.73 9.77,-10.42 21.09,-20.07l7.46 -7.07 17.75 -10.68c18.14,-11.06 31.39,-18.39 40.01,-21.87 19.55,-8.1 35.24,-12.09 47.08,-12.09 1.92,0 13.24,2.7 33.82,7.98l19.69 -3.48c12.22,0.78 19.42,1.68 21.48,2.71 5.01,2.57 7.46,5.01 7.46,7.59 0,2.57 -1.16,5.01 -3.73,7.58 -0.77,0.52 -6.95,4.25 -18.53,11.32 -11.96,7.34 -18.78,11.07 -20.32,11.07 -16.34,0 -28.17,-1.16 -35.76,-3.35 -2.57,-5.27 -5.14,-9.65 -7.97,-12.86l-2.19 0 -7.2 7.59c-4.25,0.26 -7.34,0.26 -9.39,0.26 -2.32,0 -4.38,0 -6.44,-0.26 -2.7,-0.26 -4.75,-0.39 -6.04,-0.39 -0.52,0 -3.73,0.77 -9.78,2.19 -2.05,-1.42 -5.79,-2.19 -11.32,-2.19 -5.01,3.73 -13.24,8.75 -24.82,15.05 -6.05,3.22 -11.32,8.11 -15.7,14.67 -4.37,6.56 -6.56,12.73 -6.56,18.52 0,2.7 2.45,6.3 7.21,10.55 0.77,0.77 5.14,2.7 13.25,6.04 4.76,2.19 9.64,5.02 14.66,8.23 -0.26,2.06 -0.39,3.61 -0.39,4.89 0,5.28 2.19,7.98 6.44,7.98 3.98,0 8.62,-3.35 13.63,-9.78 5.79,0.64 10.68,1.03 14.67,1.03 1.54,0 8.74,-1.03 21.48,-3.34l12.09 1.15c11.19,-1.54 17.11,-2.31 18.13,-2.31 1.81,0 8.24,1.8 19.3,5.27l13.63 -1.41 13.51 9.39c14.66,6.81 24.57,13.12 29.84,19.16 4.12,5.02 6.31,9.14 6.82,12.09l2.7 12.48c3.47,15.05 5.28,23.67 5.28,25.98 0,1.55 -0.52,5.92 -1.55,13.13 -1.28,16.2 -5.91,24.18 -13.89,24.18 -2.44,0 -5.27,-0.39 -8.62,-1.16 -2.96,12.61 -5.4,19.81 -7.46,21.48 -11.19,13.12 -18.39,21.87 -21.74,26.37 -12.73,1.8 -23.28,5.66 -31.64,11.71 -3.73,3.08 -6.05,4.63 -6.82,4.88 -0.64,0.26 -3.86,0.65 -9.39,1.16l-30.48 8.36c-10.04,-1.8 -15.57,-2.7 -16.6,-2.7 -1.54,0 -9,2.06 -22.64,6.05l-9 -1.16c-12.09,-0.77 -21.1,-1.67 -27.14,-2.96 -13.12,-3.21 -19.94,-5.53 -20.71,-7.07l-12.09 -7.85c-14.8,-9 -23.93,-15.44 -27.53,-19.42 -7.46,-8.88 -11.32,-17.37 -11.32,-25.6 0,-1.8 2.83,-4.89 8.36,-9.13l10.16 -9.39c9.52,-7.08 15.05,-10.55 16.6,-10.55 1.03,0 1.8,0.39 2.57,1.16 5.79,5.53 8.75,11.57 8.75,18l-1.55 12.1 0 0.38c-0.25,2.32 0.39,3.99 1.93,5.28 0.9,1.03 5.53,3.73 13.51,8.23 1.8,1.03 3.99,2.7 6.82,5.01 6.3,5.54 9.52,8.24 9.77,8.24l13.89 5.66 12.87 6.81 14.28 0 9.13 1.8c9.26,-2.7 17.49,-4.24 24.82,-4.5 7.08,-0.25 12.22,-1.28 15.44,-2.96l14.66 -7.2c8.11,-2.7 12.74,-4.63 14.02,-5.66 4.76,-3.73 11.07,-12.09 18.78,-24.95 8.11,-13.38 12.1,-28.56 12.1,-45.67 0,-3.86 -1.16,-7.33 -3.35,-10.54 -9.9,-14.93 -16.21,-25.09 -18.91,-30.62zm505.14 -103.42c1.93,-8.74 8.36,-15.56 19.17,-20.32 11.58,-9.26 20.07,-13.89 25.6,-13.89 5.79,0 9.52,1.41 10.93,4.5 0.51,0.77 0.9,7.97 1.16,21.87 0,3.47 2.83,10.29 8.62,20.32 10.03,-12.86 15.95,-19.17 17.75,-18.91l13.25 -8.23c10.03,-8.36 16.33,-12.48 19.16,-12.48 3.22,0 6.56,2.83 9.78,8.36 13.89,-10.03 27.53,-15.05 41.03,-15.05 2.83,0 5.15,0.39 7.2,1.03 5.02,1.54 7.59,2.32 7.59,2.32 9.78,-3.48 15.7,-5.28 17.63,-5.28 2.83,0 9.9,1.42 21.09,4.12 6.82,1.54 13.12,2.57 18.91,3.09 3.47,4.24 6.05,6.56 7.46,6.81l8.75 1.42c6.56,1.03 14.15,8.1 23.02,21.22 5.28,8.24 7.98,26.63 8.24,55.06 -6.05,0 -12.22,1.15 -18.53,3.34 -6.17,2.32 -9.39,4.37 -9.39,6.43 0,0.26 8.49,4.89 25.21,14.02 2.06,0.9 3.09,3.48 3.09,7.46 0,4.38 -2.44,11.97 -7.2,23.03 -0.26,0.51 -0.39,1.29 -0.39,2.31 0,2.96 2.7,7.08 7.98,12.1 -0.77,5.27 -1.16,9.77 -1.16,13.5 0,2.57 1.93,9.01 5.66,19.3l0.77 20.71 1.16 18.13 -1.16 15.82c0,2.58 1.29,7.21 3.73,14.03 -6.82,5.01 -11.58,8.23 -14.28,9.77 -1.28,0.77 -7.07,3.22 -17.11,7.2 -2.05,1.03 -7.58,4.51 -16.72,10.55 -7.07,-7.33 -10.67,-13.5 -10.67,-18.52 0,-1.8 2.31,-11.58 6.81,-29.59 0.26,-1.28 0.52,-4.11 0.78,-8.61 0.25,-2.32 0.38,-4.25 0.38,-5.79l7.59 -2.58c12.74,-1.79 19.17,-3.34 19.42,-4.5 0,0 -1.41,-0.9 -4.24,-2.7 -6.05,-3.73 -15.56,-7.07 -28.43,-9.77 1.55,-10.81 3.35,-17.37 5.66,-19.68l11.32 -10.55c6.05,-5.79 9.01,-11.06 9.01,-15.82 0,-1.03 -8.24,-4.63 -24.83,-10.94l1.16 -13.5 -1.93 -20.07c0,-0.26 0.38,-1.29 1.16,-2.96 1.02,-2.57 1.93,-6.17 2.95,-10.93 -3.98,-4.5 -6.04,-7.59 -6.04,-9.13l0.38 -18.79c0,-2.57 -1.92,-5.91 -6.04,-10.16 -3.99,-4.37 -5.92,-8.61 -5.92,-12.86l-1.93 -2.31c-6.04,-1.68 -9.39,-3.09 -10.16,-4.12l-10.55 -18.01c-1.93,-3.34 -4.24,-5.02 -6.81,-5.02 -4.25,0 -9.39,2.58 -15.31,7.59 -9.39,7.98 -17.62,12.09 -24.96,12.09 -1.15,0 -6.3,-1.02 -15.3,-3.08l-7.21 7.2 0 1.93c-5.27,-12.61 -10.54,-18.91 -15.82,-18.91 -0.26,0 -1.67,0.52 -4.11,1.54 -3.48,1.81 -7.46,3.09 -11.71,4.12 -5.27,1.54 -11.96,4.89 -20.32,10.16 -12.22,6.82 -19.43,11.97 -21.48,15.44 -3.99,6.04 -5.92,11.96 -5.92,17.62 0,0.26 0.26,8.36 0.64,24.05l0 1.16 0 0.39c0,4.5 -0.9,7.33 -2.96,8.62l-16.98 12.47c-1.67,1.16 -2.57,2.45 -2.57,3.73 0,2.45 2.19,5.02 6.69,7.47 10.16,5.27 15.82,8.61 17.37,10.16 1.28,1.54 1.93,3.86 1.93,7.2 0,0.64 -0.26,3.22 -0.78,7.46l0.78 27.78c0,1.55 -2.32,5.28 -6.82,11.32 -0.52,0.78 -0.77,2.06 -0.77,4.12 0,4.5 2.7,9.26 7.97,14.28l-1.16 1.16c0.52,6.04 0.78,10.03 0.78,12.09 1.02,14.79 2.95,26.37 6.04,34.34 -2.57,5.28 -5.02,8.49 -7.59,9.52 -1.03,0.52 -5.14,1.16 -12.35,2.19 -1.28,0 -3.08,0.64 -5.27,1.93 -3.09,1.28 -5.02,2.05 -6.05,2.31 -1.8,0.26 -3.6,1.93 -5.66,5.28 -1.93,2.95 -4.88,4.5 -8.61,4.5 -1.55,0 -3.74,-1.8 -6.82,-5.28 -1.93,-2.05 -2.96,-4.11 -2.96,-6.43 0,-1.93 0.26,-4.24 0.77,-6.69 1.67,-7.59 2.57,-11.96 2.57,-13.25l0.39 -28.55c2.31,-7.33 3.34,-11.58 3.34,-12.86 0,-2.45 -0.38,-5.54 -1.41,-9.01 -1.29,-5.02 -1.93,-8.36 -1.93,-10.16 0,-1.03 0.26,-3.47 0.77,-7.59 0.26,-2.44 0.39,-4.63 0.39,-6.3 0,-3.35 -0.13,-8.11 -0.39,-14.28 -0.26,-3.09 -0.39,-6.05 -0.39,-9.13 0,-3.22 0.91,-7.34 2.71,-12.35l10.54 -4.89c-0.51,-2.31 -1.41,-4.12 -2.7,-5.27 -1.54,-0.78 -5.53,-1.42 -12.09,-1.93 -0.25,-4.76 -0.38,-8.62 -0.38,-11.71 0,-2.19 0.51,-5.92 1.54,-11.19 0.26,-1.29 0.38,-2.83 0.38,-4.63 0,-5.66 -1.41,-16.34 -4.11,-31.9l8.62 -4.89c-4.76,-7.07 -7.33,-11.19 -7.85,-12.48 -0.51,-0.77 -1.03,-3.6 -1.54,-8.61 -0.26,-3.99 -3.22,-9.52 -9.01,-16.6zm383.79 254.67c11.83,0 22.97,3.05 33.43,9.19 10.57,6.26 18.92,14.62 25.03,25.15 6.1,10.57 9.16,21.9 9.16,33.96 0,11.94 -2.98,23.12 -8.93,33.54 -6.18,10.72 -14.62,19.19 -25.26,25.37 -10.69,6.1 -22.17,9.16 -34.57,9.2 -17.06,-0.04 -32.05,-5.5 -45.03,-16.45 -12.74,-10.8 -20.45,-24.42 -23.16,-40.83 -0.57,-3.47 -0.87,-7.06 -0.87,-10.72 0,-20.03 7.55,-36.93 22.7,-50.63 12.97,-11.83 28.81,-17.78 47.5,-17.78zm-64.06 68.64l0 0.8c0,10.57 2.82,20.64 8.51,30.18 5.64,9.47 13.28,16.91 22.89,22.36 9.77,5.5 20.22,8.24 31.33,8.24 11.25,0 21.79,-2.78 31.63,-8.35 9.69,-5.61 17.28,-13.17 22.78,-22.7 5.53,-9.47 8.28,-19.77 8.28,-30.87 0,-11.18 -2.79,-21.56 -8.4,-31.18 -5.57,-9.54 -13.12,-17.05 -22.66,-22.59 -9.77,-5.57 -20.3,-8.39 -31.52,-8.39 -11.25,0 -21.79,2.82 -31.55,8.39 -9.7,5.54 -17.29,13.13 -22.78,22.82 -5.69,9.77 -8.51,20.19 -8.51,31.29zm37.77 -29.61l-2.21 -1.45 0 -1.68c0.8,-0.53 1.45,-0.8 1.91,-0.8 0.27,0 0.61,0.04 0.99,0.12 0.57,-1.19 0.95,-1.8 1.11,-1.8l6.48 0.46 1.45 0 4.16 0 2.44 -0.23 10.38 0.57 5.04 -0.11c5.84,0.49 9.35,0.88 10.65,1.11 1.64,0.38 3.96,1.6 7.02,3.7 0.07,1.48 0.19,2.67 0.34,3.58 0.08,0.42 0.11,0.84 0.11,1.22 0,0.31 -0.68,1.19 -2.06,2.64 -1.37,1.45 -2.55,2.48 -3.54,3.05 -1.68,1.11 -2.87,2.1 -3.44,2.9l-2.94 1.14 -2.78 1.87 -4.47 2.37c-2.44,1.41 -4.61,2.4 -6.48,3.01 0,0.69 0.03,1.3 0.11,1.91 0.08,0.8 0.99,2.02 2.79,3.59 0.07,-0.08 1.1,0.99 3.01,3.24 0.53,0.65 1.15,1.38 1.79,2.1 1.42,1.56 3.13,3.81 5.16,6.72 0.07,0.15 1.45,1.67 4.12,4.57 0.91,1.07 1.48,2.1 1.67,3.13 0.08,0.54 0.31,1 0.69,1.34 2.98,1.22 5.5,3.89 7.59,8.05 1.57,0.46 2.87,1.18 3.93,2.14 0.65,0.68 1.19,0.95 1.57,0.87l0.23 0c1.68,-0.11 2.86,-0.19 3.43,-0.19l0.8 1.64c-1.1,0.84 -3.01,1.68 -5.72,2.6 -2.98,0.95 -4.58,1.45 -4.77,1.45 -0.76,0 -1.53,-0.23 -2.25,-0.69 -0.15,-0.15 -1.22,-1.68 -3.24,-4.58 -1.42,-1.56 -2.45,-2.97 -3.13,-4.23 -0.54,-1.19 -1.61,-2.56 -3.25,-4.12 -1.41,-1.45 -2.93,-3.44 -4.58,-6.07 -4.46,-4.31 -7.25,-7.29 -8.27,-8.93 -0.96,-0.3 -1.49,-0.49 -1.57,-0.57l-4.69 -5.69c-0.69,-0.84 -2.25,-2.13 -4.7,-3.93 -1.64,0.54 -2.71,0.88 -3.24,1.03 -1.56,0.42 -2.82,1.3 -3.81,2.56 0.15,1.11 0.22,2.48 0.22,4.04l0.23 6.03 0.12 3.78 0 1.26 0 0.76c0,0.23 -0.19,1.3 -0.57,3.25l0.68 10.95c0,2.25 -1.75,4.04 -5.26,5.38 -2.06,0.72 -3.21,1.1 -3.36,1.1 -0.57,0 -1.3,-0.11 -2.1,-0.34l0 -0.76 1.34 -3.25 0.45 -2.36 0.77 -3.36c-0.61,-3.24 -0.88,-5.11 -0.88,-5.57 0,-0.46 0.34,-1.37 1.11,-2.79l-0.23 -3.7 0.8 -3.81 -0.46 -2.9 0.34 -4.24 -0.34 -2.78 0 -11.53c-0.38,-4.54 -0.57,-7.13 -0.57,-7.7 0,-1 0.07,-2.56 0.23,-4.7 0,-0.53 0,-0.99 0,-1.33 0,-0.31 -0.16,-1 -0.46,-2.03 -0.08,-0.22 -0.12,-0.49 -0.12,-0.8 0,-0.57 0.08,-1.33 0.23,-2.21zm7.71 22.78c1.79,0 3.13,-0.04 3.93,-0.11 1.79,-0.2 3.32,-0.61 4.58,-1.23l11.41 -5.68 4.46 -1.79c5.15,-3.74 7.86,-5.69 8.17,-5.92 0.95,-0.84 1.45,-1.64 1.45,-2.48 0,-1.94 -0.84,-3.36 -2.56,-4.23 -2.78,-1.57 -7.13,-2.37 -13.09,-2.37l-0.45 0 -2.67 0 -0.92 0c-0.34,0 -0.69,0 -0.99,0 -2.02,-0.15 -3.02,-0.19 -3.02,-0.19l-3.36 0.53c-3.2,0.16 -5.49,0.46 -6.94,0.92 0,1.91 -0.04,3.17 -0.08,3.66 0,0.31 0,0.5 0,0.57 0,0.08 0.12,1.34 0.42,3.82 -0.42,2.06 -0.64,3.24 -0.64,3.43 0,0.23 0.19,0.81 0.53,1.68 0.08,0.31 0.11,0.65 0.11,1.03 0,0.58 -0.03,1.34 -0.11,2.22 -0.15,1.33 -0.23,3.39 -0.23,6.14zm-711.81 -11.04c4.82,-0.82 8.71,-3.07 11.68,-6.66 4.2,-5.12 7.99,-8.61 11.48,-10.14 12.39,-5.02 20.69,-8.61 24.89,-10.86 2.16,2.66 3.28,4.91 3.28,6.96 0,2.16 -0.92,4.21 -2.66,5.95 -0.41,0.61 -3.89,3.28 -10.55,8.09 -1.23,0.82 -2.77,2.87 -4.82,6.05 -3.59,5.43 -5.33,10.55 -5.33,15.57 0,1.23 0.1,3.18 0.51,5.74 -4.91,2.15 -7.48,4.71 -7.48,7.48 0,2.66 1.03,4.3 2.98,5.12 0.41,0.21 1.23,0.31 2.45,0.31 1.64,0.2 3.8,0.82 6.56,1.84 1.44,4.51 4.92,8.81 10.56,12.81 7.58,5.64 13.62,9.12 18.03,10.55l4.81 7.79c11.17,2.87 18.45,4.2 21.93,4.2 1.33,0 3.38,-0.31 5.94,-0.92 1.03,-0.21 1.95,-0.31 2.77,-0.31 1.13,0 5.64,4.72 13.42,14.14l2.77 -5.74c0.82,-4.2 1.64,-6.25 2.66,-6.25l42.32 1.54c0.62,0 1.95,-0.41 4,-1.23 1.94,-0.82 5.12,-1.64 9.53,-2.46 19.87,-3.58 32.48,-6.35 37.91,-8.4 12.39,-4.71 19.16,-7.38 20.39,-7.79 1.94,-0.41 5.94,-0.71 11.98,-0.82 1.64,-1.64 3.38,-4.2 5.43,-7.58 0.62,-0.82 6.36,-4.51 17.42,-11.06 4.2,-3.18 7.69,-5.54 10.45,-6.87 0.82,-2.66 2.36,-4.92 4.51,-6.97 3.48,-2.76 5.02,-4.91 4.82,-6.25l-1.44 -11.16c2.56,-6.36 4,-11.79 4.2,-16.19 0.21,-2.36 0.41,-4.1 0.82,-5.13 1.85,-4.81 2.77,-7.58 2.77,-8.4 0,-1.95 -2.15,-3.69 -6.35,-5.12 -2.36,-9.74 -5.23,-16.7 -8.4,-20.7 -2.77,-3.38 -4.21,-5.94 -4.21,-7.79 0,-1.74 0.21,-3.79 0.62,-5.94 -10.76,-7.27 -24.9,-12.19 -42.32,-14.75l-0.3 0c-2.67,0 -4.31,0 -5.13,0 -1.02,0.2 -1.54,0.3 -1.54,0.3 -0.92,0 -4.61,-0.82 -11.06,-2.45 -2.05,-0.31 -3.79,-0.52 -5.43,-0.52 -2.77,0 -6.05,0.31 -9.84,0.82 -3.07,0.62 -5.63,0.92 -7.89,0.92 -1.12,0 -4.81,-1.74 -10.76,-5.32 -0.41,-0.21 -0.81,-0.31 -1.22,-0.31 -1.23,0 -5.54,1.74 -12.91,5.33l-7.18 1.23 -11.78 2.15 -15.57 -15.99 -9.94 15.37c0,0 -1.85,-0.82 -5.64,-2.46 -1.64,-0.81 -3.38,-1.22 -5.12,-1.22 -1.64,0 -3.38,0.1 -5.43,0.3 -3.18,4.61 -6.76,6.97 -10.76,6.97 -2.05,0 -6.97,-1.02 -14.75,-2.97 -6.66,-1.64 -12.91,-4.2 -18.96,-7.58 -9.22,-5.54 -14.24,-9.94 -15.27,-13.22 -0.41,-1.13 -1.02,-4.2 -1.84,-9.22 -1.54,-6.46 -2.36,-9.94 -2.36,-10.56 0,-4.4 3.08,-9.63 9.33,-15.88 6.76,-6.76 11.17,-10.96 13.21,-12.6 1.95,-1.54 5.64,-3.79 11.07,-6.56l7.79 -4.81c7.99,-1.03 12.7,-1.85 14.14,-2.46 1.43,-0.51 4.2,-2.46 8.4,-5.64l0 -1.23c-2.56,-1.23 -4.82,-1.74 -6.56,-1.74 -2.87,0 -5.94,0.21 -9.32,0.51 -2.05,0.41 -3.69,0.62 -5.13,0.62 -3.99,0 -10.24,-2.26 -18.64,-6.87 -1.95,-1.23 -3.18,-2.35 -3.59,-3.58 -0.2,-0.21 -1.02,-2.97 -2.36,-8.41 -0.61,-2.45 -2.66,-4.2 -6.04,-5.43 -5.23,-1.43 -7.79,-2.15 -7.79,-2.35l-4.2 -6.97c-3.79,-5.12 -5.74,-8.71 -5.74,-10.76 0,-0.41 0.62,-4.92 1.85,-13.52 0.2,-9.33 0.51,-14.76 1.12,-16.19 0.41,-0.82 2.16,-3.38 5.13,-7.79 1.23,-1.64 1.84,-3.38 1.84,-5.43 0,-1.94 -0.92,-5.12 -2.77,-9.53 3.69,-3.28 8.82,-9.12 15.68,-17.72 2.36,-2.77 7.38,-6.46 14.96,-11.07l15.06 -14.45c1.74,-1.63 4,-2.56 6.56,-2.97 3.28,-0.82 5.22,-1.43 5.84,-1.84 0.72,-0.41 1.64,-1.54 2.56,-3.59 4.41,-0.61 15.68,-3.38 33.71,-8.4l10.14 -1.13c6.87,-1.43 11.48,-2.15 13.84,-2.15 2.05,0 9.22,0.92 21.62,2.67 8.81,0 15.47,0.2 19.87,0.61 4.2,-4.2 9.74,-7.58 16.81,-10.14 3.58,-1.44 5.84,-2.15 6.86,-2.15 2.36,0 6.15,0.51 11.17,1.53 3.59,0.82 6.97,1.13 10.14,1.13 5.02,0 11.68,-0.41 20.09,-1.44l0.3 0c1.85,0 5.33,2.16 10.56,6.56 3.79,-0.61 5.73,-2.87 5.73,-6.86 0,-1.23 -0.1,-2.56 -0.3,-4.2 6.35,-3.39 12.91,-6.77 19.47,-9.94 0.61,-0.21 2.35,-0.41 5.12,-0.62 1.84,-0.2 4.3,-0.71 7.48,-1.74 1.43,1.74 2.15,3.28 2.15,4.51 0,9.63 -7.58,17.52 -22.54,23.67 -0.41,3.58 -1.13,6.15 -2.15,7.68 -0.93,1.44 -3.49,3.59 -7.48,6.36 -4.41,3.48 -8.3,5.43 -11.68,6.04 -5.64,1.02 -9.74,1.54 -12.3,1.54 -1.43,0 -2.25,-0.21 -2.46,-0.62l-9.53 -13.22c-0.61,-0.81 -1.33,-1.22 -2.15,-1.22 -3.79,0 -7.38,4.81 -10.76,14.44 2.77,2.97 4.61,4.82 5.64,5.64 5.22,4.61 8.3,7.48 9.32,8.71 0.82,1.23 1.74,3.69 2.67,7.48l5.12 4.2 0 9.32 0.92 1.23 -9.63 4.71 0 3.9c3.79,2.66 5.74,5.02 5.74,7.17 0,5.23 -4.41,12.4 -13.22,21.62l-7.48 8.71 -15.68 12.29 -4.5 7.48c-0.72,0.93 -3.39,2.87 -7.79,5.64l-5.43 3.58c-7.99,5.23 -15.88,8.92 -23.67,11.17 -10.86,3.38 -17.52,5.13 -20.08,5.33 -4.82,0.62 -9.43,1.64 -13.83,3.08 0.2,2.35 0.3,4.5 0.3,6.25 0,2.86 -1.23,5.63 -3.58,8.5 -9.22,0 -15.27,0.2 -18.24,0.82 -2.87,0.61 -9.22,2.87 -19.06,6.66 -14.04,2.97 -22.34,5.22 -24.9,6.66 -7.78,4.2 -12.91,8.91 -15.37,14.14 -0.92,1.95 -1.43,3.07 -1.43,3.28 1.13,2.66 8.61,5.12 22.23,7.58 4,2.36 6.87,5.53 8.71,9.53 5.13,-1.33 9.22,-2.05 12.3,-2.05l17.42 2.36 0.3 0c3.38,0 6.15,-0.31 8.41,-0.82 2.35,-0.41 3.68,-0.62 3.89,-0.62 1.74,0.41 6.04,5.23 12.91,14.65 1.74,2.67 3.69,3.9 5.74,3.9 0.92,0 1.84,-0.62 2.66,-2.05 4,-8.4 6.56,-13.12 7.79,-14.14 7.58,-5.23 14.55,-7.79 20.69,-7.79l10.56 0.92 0.31 0 14.14 -0.92 0 0c2.15,0.21 4.5,2.87 6.86,8.09l4.2 0 4.51 -7.47c3.18,-0.21 6.15,-0.31 8.71,-0.31 1.64,0 6.04,0.72 13.22,2.05l8.7 0.61 8.71 4.2c13.84,4.41 22.65,7.59 26.44,9.63 -0.21,1.64 -0.31,2.98 -0.31,4.21 0,1.63 1.95,4.91 5.94,9.93l9.94 -2.15c5.64,2.77 8.92,5.54 9.94,8.1 0.21,0.61 0.82,2.87 1.74,6.96l4.2 11.69 1.85 12.6 2.36 10.76c0,0.2 -0.82,4.91 -2.67,14.14 -1.23,6.55 -3.79,14.24 -7.79,23.05 -1.63,3.38 -5.12,7.99 -10.55,13.83l-5.94 10.76c-2.46,4 -4,6.56 -4.82,7.48 -0.41,1.23 -2.05,1.95 -4.81,2.15 -2.26,3.18 -4.1,5.33 -5.74,6.25 -0.62,0.62 -4,2.67 -10.14,6.05 -4.82,5.63 -8.41,8.91 -10.87,9.94 -4.2,1.74 -10.45,5.02 -18.85,9.83l-17.72 7.17 -8.41 4.82 -11.47 3.07 -9.84 4.41 -4.51 0.31 -9.01 1.84 -22.54 1.84c-15.47,4.92 -24.59,7.48 -27.36,7.48l-16.8 -1.22 -0.31 0c-5.43,0 -8.2,-0.21 -8.4,-0.62 -0.21,-0.2 -2.15,-4.61 -5.74,-13.11l-6.56 12.8 -12.6 -11.68 -11.78 12.3 -0.82 -0.62 -4.82 -2.35c-5.22,-3.8 -8.3,-5.95 -9.32,-6.36 -1.23,-0.2 -6.15,-0.41 -14.76,-0.82 -3.58,-0.2 -5.84,-0.82 -6.86,-1.84l-6.87 -4.51 -8.71 -5.33 -6.66 -5.73c-6.96,-3.18 -10.86,-5.13 -11.68,-5.74 -1.84,-0.92 -4.51,-5.13 -8.09,-12.61 -3.38,-7.17 -5.13,-13.83 -5.13,-20.08 0,-3.79 2.05,-10.24 6.26,-19.16 2.04,-4.4 4.09,-7.68 6.04,-9.63zm83.1 -227.67c-0.31,2.77 -0.52,5.13 -0.52,7.17 0,3.8 1.13,6.56 3.59,8.41 1.13,0.82 4.61,1.64 10.14,2.66 6.97,6.56 11.07,10.14 12.3,10.76 5.84,3.18 15.57,4.81 29.41,4.81 2.97,0 7.88,-1.02 14.65,-2.97l7.17 -0.3 21.62 -9.02c1.23,-0.41 4.1,-0.62 8.71,-0.62 3.58,-4.4 9.01,-9.11 16.49,-14.03 1.54,-1.23 2.77,-2.46 3.59,-3.59 0.2,-0.2 1.02,-3.17 2.66,-8.71 2.57,-6.25 3.9,-10.14 3.9,-11.68 0,-6.25 -0.41,-13.11 -1.23,-20.7 -0.62,-7.17 -4.82,-13.72 -12.81,-19.46 -3.28,-2.46 -6.56,-6.36 -9.94,-11.68 -1.43,-2.26 -3.38,-3.79 -5.94,-4.82 -1.03,-0.41 -5.02,-1.43 -11.99,-2.97l-4.81 -2.77 -8.1 -2.66 -2.77 -0.92 -14.03 4.2c-6.25,-1.03 -9.84,-1.54 -10.76,-1.54 -2.66,0 -8.1,1.54 -16.5,4.51l-8.71 1.54c-1.43,0.2 -3.68,1.64 -6.86,4.3 -2.67,0.41 -4.61,1.33 -6.05,2.66 -3.38,3.38 -6.76,6.87 -10.14,10.56 -4.82,5.12 -7.68,8.4 -8.71,9.83 -1.02,1.44 -1.95,5.43 -2.66,11.99 -1.23,6.76 -1.85,13.42 -1.85,20.08 0,3.18 0.41,5.43 1.23,6.87 1.33,2.15 4.41,4.92 8.92,8.09zm-133.61 -234.18l0 -0.39c-0.51,-8.87 5.92,-18.39 19.17,-28.81 3.09,-2.19 6.3,-5.53 9.9,-9.78 0.13,-0.25 2.7,-2.31 7.46,-6.04 9.26,-13.9 15.05,-21.61 17.37,-23.16 3.73,-2.7 6.95,-4.11 9.39,-4.11 1.03,0 3.86,1.93 8.62,5.66 4.89,3.6 7.2,7.84 7.2,12.86 0,4.12 -2.19,7.59 -6.82,10.55 -11.44,8.36 -22.51,17.49 -33.06,27.27l-10.54 6.82 -13.25 9.13c-7.08,3.73 -11.06,5.66 -12.09,5.66 -2.19,0 -3.35,-1.93 -3.35,-5.66z"/>
 </g>
</svg>
