<?xml version="1.0" encoding="UTF-8"?>
<!DOCTYPE svg PUBLIC "-//W3C//DTD SVG 1.1//EN" "http://www.w3.org/Graphics/SVG/1.1/DTD/svg11.dtd">
<!-- Creator: CorelDRAW 2020 (64-Bit) -->
<svg xmlns="http://www.w3.org/2000/svg" xml:space="preserve" width="6514px" height="1506px" version="1.1" shape-rendering="geometricPrecision" text-rendering="geometricPrecision" image-rendering="optimizeQuality" fill-rule="evenodd" clip-rule="evenodd"
viewBox="0 0 6514 1506"
 xmlns:xlink="http://www.w3.org/1999/xlink"
 xmlns:xodm="http://www.corel.com/coreldraw/odm/2003">
 <g id="Capa_x0020_1">
  <metadata id="CorelCorpID_0Corel-Layer"/>
  <path fill="black" fill-rule="nonzero" d="M205.52 811.27c-15.66,0 -193.01,169.71 -204.57,222.48 -3.17,18.84 19.21,70.31 50.16,70.31 97.53,0 340.52,-180.89 566.54,-378.19 89.14,-77.95 188.54,-164.3 286.44,-248.77 84.11,-11.75 167.84,-22.01 247.47,-29.1 40.84,-3.73 90.07,-8.2 140.98,-10.81 -102.38,272.64 -184.81,559.45 -173.06,670.41 1.68,16.6 51.47,41.58 65.27,42.52 22.38,-94.92 106.86,-261.83 116.37,-273.95 0.37,-7.09 -1.31,-15.1 -5.04,-11.56 -47.37,49.23 -79.07,108.35 -101.07,157.58 10.25,-135.58 82.42,-373.34 160.19,-586.87 13.05,-0.37 25.92,0 38.97,0 70.68,1.5 169.7,3.17 205.51,50.73 9.69,12.86 13.42,29.09 4.85,52.77 15.66,-13.42 33.19,-37.11 22.75,-57.25 -26.86,-52.03 -141.73,-69.37 -219.68,-70.86l-43.45 0c55.94,-151.24 113.75,-287.75 151.8,-361.6 -2.8,-10.63 -32.64,-40.28 -39.35,-40.28 -68.07,1.31 -328.03,220.61 -590.41,440.85 -157.02,17.91 -306.58,35.43 -454.28,62.29l12.5 -7.27c12.68,-7.46 63.59,-44.76 63.59,-56.7 0,-1.49 -0.37,-2.23 -1.68,-1.86 -18.83,9.32 -62.66,30.4 -99.02,41.59 -57.63,17.9 -127.93,34.49 -171.76,44.38 -2.23,11.56 8.96,58.18 20.52,65.27 154.78,-36.18 370.17,-78.7 587.24,-111.33 -90.82,76.08 -180.33,150.68 -261.45,215.2 -206.25,163.73 -399.64,301.73 -536.52,325.79 31.7,-77.39 147.7,-190.22 167.28,-205.32 1.3,-0.93 1.86,-10.45 -7.09,-10.45zm927.39 -386.58c-47.93,4.48 -116.37,11.19 -189.84,19.21 246.53,-210.73 477.02,-400.19 518.61,-400.57 -51.84,102.01 -108.16,233.11 -160.19,369.62 -58.56,2.79 -118.98,7.27 -168.58,11.74zm689.99 -303.41c-9.88,29.09 -70.68,98.47 -115.99,136.88 -36.18,30.96 -50.91,27.23 -50.91,32.26 0,1.31 2.23,3.17 9.32,3.17 15.67,0 28.16,-3.17 39.35,-8.2 -24.06,34.13 -49.61,71.24 -75.53,109.65 -116.36,173.25 -237.76,376.51 -237.76,417.73 0,28.16 35.8,65.64 46.24,65.64 31.33,0 133.71,-73.29 190.96,-120.28 45.32,-37.11 108.35,-93.62 153.67,-132.59 3.91,-2.99 2.98,-9.7 0,-11.94 -2.8,-1.86 -7.28,-0.93 -10.45,1.68 -86.34,72.54 -265.74,208.12 -307.88,208.12 -3.92,0 -5.41,-5.79 -5.41,-9.89 0,-48.3 110.21,-233.1 215.76,-391.05 47.93,-71.61 175.48,-249.33 193.01,-250.64 0,-10.26 -29.65,-47.93 -44.38,-50.54zm589.29 61.17c0,-7.09 -23.12,-46.99 -31.7,-46.99 -47,57.43 -95.85,123.08 -142.85,191.7 -58.55,69.75 -112.63,128.3 -163.36,180.33 -22.75,-20.14 -53.15,-33.56 -75.15,-33.56 -58.19,0 -176.23,83.73 -255.11,167.27 -72.54,77.02 -106.86,145.46 -106.86,172.31 0,27.79 30.4,51.47 39.72,51.47 43.08,0 190.78,-127.92 241.31,-172.68 47.37,-41.59 98.47,-92.13 149.01,-145.46 1.3,4.1 -1.87,16.97 -3.55,22.75 -7.27,24.62 -23.68,72.54 -52.77,124.57 -36.37,67.88 -58.75,118.61 -58.75,135.02 0,18.83 22.94,57.81 43.08,57.81 49.98,0 281.03,-227.33 281.03,-244.3 0,-3.73 -2.79,-7.64 -6.71,-7.64 -2.24,0 -5.41,0.93 -7.65,3.91 -12.49,16.23 -184.43,192.08 -237.2,192.08 -2.24,0 -3.17,-2.24 -3.17,-6.34 0,-31.33 60.42,-162.43 151.24,-312.36 77.95,-128.49 173.8,-251.57 239.44,-329.89zm-521.78 497.35c-43.83,38.98 -172.31,141.36 -190.22,141.36 0,-23.69 55.95,-109.09 127.56,-180.33 69.74,-69.75 162.05,-124.95 199.54,-124.95 10.81,0 21.07,4.11 28.34,9.89 -58.74,58.74 -112.82,107.97 -165.22,154.03zm199.16 -156.27c22.01,-23.31 43.45,-46.43 64.53,-70.3 -18.84,29.65 -37.3,58.74 -54.27,86.9 -2.61,-5.78 -6.15,-11.19 -10.26,-16.6zm196 88.58c-38.6,38.98 -120.84,134.27 -120.84,187.6 0,33.2 49.6,73.85 70.67,73.85 139.68,0 368.31,-218 368.31,-308.44 0,-23.69 -11.56,-42.52 -33.01,-56.32 29.47,-5.78 57.63,-10.26 79.63,-11.19 52.78,-2.24 89.51,9.32 89.51,35.43 0,14.73 -16.97,38.42 -16.97,39.72 0,1.31 2.24,1.31 2.99,1.31 14.36,-0.38 35.43,-25.92 35.43,-46.44 0,-38.6 -50.17,-53.7 -101.63,-52.03 -41.96,1.87 -86.72,8.58 -125.7,16.6 -27.41,-8.02 -61.72,-12.12 -101.63,-12.12 -15.29,0 -57.81,40.84 -61.73,59.67 -29.09,21.82 -60.42,47.37 -85.03,72.36zm288.67 -46.99c0,37.29 -80.18,150.49 -187.6,218.55 -49.6,31.33 -90.82,53.15 -140.05,53.15 -13.42,0 -22.38,-3.54 -22.38,-17.34 0,-30.96 42.15,-102.19 112.83,-172.87 33.94,-33.94 82.8,-80 129.23,-111.33 20.14,-6.34 43.08,-12.68 66.39,-18.46 23.68,8.95 41.58,27.41 41.58,48.3zm1777.76 -554.42c-6.71,-6.71 -15.29,-10.26 -23.68,-10.26 -3.17,0 -6.34,0.37 -9.51,1.68 -190.59,67.13 -403.56,99.4 -592.46,107.04 -9.33,-3.17 -18.28,-5.41 -26.86,-6.71 -54.08,-7.27 -140.05,-7.27 -160.75,-13.06 -5.78,0.94 -44.75,69 -44.75,78.89l0 0.74c21.07,-10.25 114.12,-20.51 167.09,-20.51 80,0 139.11,26.85 139.11,63.96 0,2.24 0,4.48 -0.93,6.34 8.58,-8.57 11.75,-17.9 11.75,-27.78 0,-20.14 -15.67,-41.21 -38.04,-57.25 145.45,-12.5 290.91,-36.74 433.57,-73.85 -216.51,99.4 -387.51,221.54 -608.12,385.84 -355.82,264.8 -730.46,566.91 -738.11,628.26 0,13.43 27.79,58.74 42.52,59.12 53.33,-46.06 184.81,-80.56 307.89,-110.96 227.88,-56.51 514.32,-93.62 731.76,-93.62 55.95,0 313.29,0 313.29,77.95 0,66.21 -128.48,119.91 -128.86,122.52 0,1.5 1.87,3.73 6.34,3.73 23.13,0 171.76,-65.82 171.76,-137.99 0,-94.37 -287.75,-94.37 -343.69,-94.37 -249.71,0 -547.9,43.83 -759.56,92.13 -67.5,15.66 -192.82,47.55 -259.58,77.02 116.36,-128.87 403.74,-371.48 699.13,-588.92 232.73,-171.38 418.84,-299.5 656.05,-410.08 10.26,-4.85 33.19,-13.8 57.81,-13.8 12.49,0 21.45,4.85 24.99,4.85 0.93,0 1.3,-0.75 1.3,-1.68 0,-7.65 -20.14,-39.35 -29.46,-49.23zm39.35 764.4c-30.77,24.99 -71.61,53.7 -85.41,53.7 -13.06,-13.05 104.24,-234.59 191.52,-340.52 0,-7.27 -24.99,-28.34 -33.57,-28.71 -15.66,0.37 -54.64,39.34 -67.13,50.16 -68.07,58.18 -260.9,247.84 -375.4,305.27 -11.19,-9.88 8.95,-56.87 24.99,-81.11 25.92,-38.98 69.75,-96.23 117.67,-148.07 19.77,-21.45 47,-47.56 61.36,-61.36 0,-8.95 -39.91,-39.35 -49.24,-34.87 -22,20.51 -85.03,88.21 -111.51,84.1 -1.68,5.79 12.68,15.3 20.7,17.53 -30.03,39.72 -134.83,157.96 -136.51,204.39 -0.56,11.75 37.48,67.13 51.47,67.13 77.39,-12.86 288.68,-233.47 382.67,-307.32 -65.83,75.52 -143.22,223.22 -143.22,260.89 0,16.04 36.73,49.23 56.31,54.64 14.74,0 52.03,-28.72 95.86,-67.13 76.08,-67.14 156.64,-150.5 156.64,-161.13 0,-3.73 -2.79,-7.64 -6.71,-7.64 -2.24,0 -5.41,0.93 -7.65,3.91 -8.01,10.45 -78.32,83.36 -142.84,136.14zm280.28 -230.87c0,-10.82 -30.95,-42.15 -37.11,-42.15 -32.82,25.55 -68.62,55.58 -81.12,56.32 1.31,5.97 11.19,14.36 21.45,20.14 -43.27,60.42 -97.53,147.33 -129.8,206.81 -10.25,18.47 -24.61,46.62 -27.22,55.02 0.93,7.64 30.39,41.77 47.92,44.38 3.92,-12.5 3.55,-16.97 17.91,-41.21 67.13,-113.57 192.45,-209.42 296.69,-303.79 -16.97,36.18 -34.5,83.18 -35.8,114.51 -1.87,32.63 37.67,78.32 77.39,78.32 27.79,0 78.32,-44.38 78.32,-54.08 0,-0.93 -0.37,-2.24 -2.23,-2.24 -2.62,0 -40.66,34.87 -75.16,34.87 -29.46,0 -28.16,-38.97 -27.78,-48.3 4.47,-72.17 76.64,-150.49 114.12,-205.13 0,-6.15 -34.87,-38.04 -43.45,-34.31 -4.47,0 -38.79,37.48 -50.91,56.69 -95.29,74.78 -192.45,165.22 -275.81,257.35 36.37,-75.53 113.76,-170.45 132.59,-193.2zm238.52 303.78c24.61,2.8 42.52,6.72 60.98,11.75 13.8,3.92 32.63,10.26 52.21,19.21 -82.24,25.55 -170.82,59.49 -254.55,102.01 -218,110.95 -413.06,259.95 -419.03,378.56 -5.78,113.38 93.99,146.02 187.98,146.02 188.53,0 631.99,-239.08 644.11,-475.35 3.17,-57.81 -47.92,-107.42 -102.93,-145.83 79.62,-23.31 152.54,-37.67 209.98,-44.01 5.78,-0.38 11.19,-0.75 15.66,-0.75 6.72,0 11.56,-0.93 11.56,-4.48 0.38,-6.71 -9.88,-13.42 -30.95,-13.98 -5.78,0 -11.94,0.56 -19.21,1.3 -51.84,7.28 -126.62,22.38 -210.36,46.62 -15.1,-9.88 -38.97,-25.54 -59.11,-34.87 128.11,-70.3 313.29,-250.26 313.29,-305.64 0,-33.2 -47.36,-82.8 -89.51,-82.8 -123.83,0 -349.47,147.13 -349.47,223.22 0,46.06 62.66,63.96 87.27,63.96 5.41,0 40.28,-1.68 40.28,-13.8 0,-3.54 -1.3,-4.47 -5.4,-5.78 -14.74,4.48 -76.46,5.78 -76.09,-12.49 1.31,-49.24 217.07,-221.17 328.59,-221.17 8.01,0 15.66,2.23 15.66,10.81 0,87.65 -273.94,294.46 -352.27,327.09 -2.24,6.35 -1.86,24.99 1.31,30.4zm215.39 158.51c-9.51,184.81 -398.89,446.26 -626.59,446.26 -69.37,0 -123.08,-22.94 -120.1,-84.29 5.41,-109.65 194.32,-257.35 409.52,-368.68 86.53,-44.76 177.72,-80.56 262.76,-107.04 40.84,23.68 77.02,59.49 74.41,113.75zm258.65 -394.41c-38.6,38.98 -120.84,134.27 -120.84,187.6 0,33.2 49.6,73.85 70.68,73.85 139.67,0 368.3,-218 368.3,-308.44 0,-23.69 -11.56,-42.52 -33.01,-56.32 29.47,-5.78 57.63,-10.26 79.63,-11.19 52.78,-2.24 89.51,9.32 89.51,35.43 0,14.73 -16.97,38.42 -16.97,39.72 0,1.31 2.24,1.31 2.99,1.31 14.36,-0.38 35.43,-25.92 35.43,-46.44 0,-38.6 -50.16,-53.7 -101.63,-52.03 -41.96,1.87 -86.72,8.58 -125.69,16.6 -27.42,-8.02 -61.73,-12.12 -101.64,-12.12 -15.29,0 -57.81,40.84 -61.72,59.67 -29.1,21.82 -60.43,47.37 -85.04,72.36zm288.68 -46.99c0,37.29 -80.19,150.49 -187.61,218.55 -49.6,31.33 -90.81,53.15 -140.05,53.15 -13.42,0 -22.37,-3.54 -22.37,-17.34 0,-30.96 42.14,-102.19 112.82,-172.87 33.94,-33.94 82.8,-80 129.23,-111.33 20.14,-6.34 43.08,-12.68 66.39,-18.46 23.68,8.95 41.59,27.41 41.59,48.3zm414.92 -443.84c-9.88,29.09 -70.67,98.47 -115.99,136.88 -36.18,30.96 -50.91,27.23 -50.91,32.26 0,1.31 2.24,3.17 9.33,3.17 15.66,0 28.16,-3.17 39.34,-8.2 -24.05,34.13 -49.6,71.24 -75.52,109.65 -116.37,173.25 -237.77,376.51 -237.77,417.73 0,28.16 35.81,65.64 46.25,65.64 31.33,0 133.71,-73.29 190.96,-120.28 45.31,-37.11 108.35,-93.62 153.66,-132.59 3.92,-2.99 2.99,-9.7 0,-11.94 -2.8,-1.86 -7.27,-0.93 -10.44,1.68 -86.34,72.54 -265.74,208.12 -307.89,208.12 -3.91,0 -5.41,-5.79 -5.41,-9.89 0,-48.3 110.22,-233.1 215.77,-391.05 47.92,-71.61 175.48,-249.33 193.01,-250.64 0,-10.26 -29.65,-47.93 -44.39,-50.54zm-50.16 490.83c-38.6,38.98 -120.84,134.27 -120.84,187.6 0,33.2 49.6,73.85 70.68,73.85 139.67,0 368.3,-218 368.3,-308.44 0,-23.69 -11.56,-42.52 -33,-56.32 29.46,-5.78 57.62,-10.26 79.62,-11.19 52.78,-2.24 89.52,9.32 89.52,35.43 0,14.73 -16.97,38.42 -16.97,39.72 0,1.31 2.23,1.31 2.98,1.31 14.36,-0.38 35.43,-25.92 35.43,-46.44 0,-38.6 -50.16,-53.7 -101.63,-52.03 -41.96,1.87 -86.72,8.58 -125.69,16.6 -27.42,-8.02 -61.73,-12.12 -101.64,-12.12 -15.29,0 -57.81,40.84 -61.72,59.67 -29.09,21.82 -60.42,47.37 -85.04,72.36zm288.68 -46.99c0,37.29 -80.19,150.49 -187.61,218.55 -49.6,31.33 -90.81,53.15 -140.04,53.15 -13.43,0 -22.38,-3.54 -22.38,-17.34 0,-30.96 42.14,-102.19 112.82,-172.87 33.94,-33.94 82.8,-80 129.23,-111.33 20.14,-6.34 43.08,-12.68 66.39,-18.46 23.69,8.95 41.59,27.41 41.59,48.3z"/>
 </g>
</svg>
