<?xml version="1.0" standalone="no"?>
<!DOCTYPE svg PUBLIC "-//W3C//DTD SVG 1.1//EN" "http://www.w3.org/Graphics/SVG/1.1/DTD/svg11.dtd">
<svg xmlns="http://www.w3.org/2000/svg" xmlns:xlink="http://www.w3.org/1999/xlink" xmlns:xodm="http://www.corel.com/coreldraw/odm/2003" xml:space="preserve" width="925" height="134.52999877929688" version="1.1" shape-rendering="geometricPrecision" text-rendering="geometricPrecision" image-rendering="optimizeQuality" fill-rule="evenodd" clip-rule="evenodd" viewBox="0 0 925 134.53">
 <g id="Capa_x0020_1">
  <metadata id="CorelCorpID_0Corel-Layer"/>
  <path fill="custom" fill-rule="nonzero" d="M17.76 73.22c-1.41,0 -17.26,15.16 -18.29,19.88 -0.28,1.68 1.72,6.28 4.48,6.28 8.72,0 30.44,-16.16 50.64,-33.8 7.97,-6.97 16.85,-14.68 25.61,-22.24 7.51,-1.05 15,-1.96 22.11,-2.6 3.65,-0.33 8.05,-0.73 12.61,-0.96 -9.15,24.37 -16.52,50 -15.47,59.92 0.15,1.48 4.6,3.72 5.83,3.8 2,-8.48 9.55,-23.4 10.4,-24.48 0.04,-0.64 -0.11,-1.36 -0.45,-1.04 -4.23,4.4 -7.06,9.69 -9.03,14.09 0.92,-12.12 7.37,-33.37 14.32,-52.46 1.16,-0.03 2.31,0 3.48,0 6.32,0.13 15.17,0.28 18.37,4.54 0.87,1.14 1.2,2.59 0.43,4.71 1.4,-1.2 2.97,-3.32 2.04,-5.12 -2.4,-4.65 -12.67,-6.2 -19.64,-6.33l-3.88 0c5,-13.52 10.16,-25.72 13.57,-32.32 -0.26,-0.95 -2.92,-3.6 -3.52,-3.6 -6.09,0.12 -29.32,19.72 -52.78,39.4 -14.03,1.6 -27.4,3.17 -40.6,5.57l1.12 -0.65c1.13,-0.67 5.68,-4 5.68,-5.07 0,-0.13 -0.03,-0.2 -0.15,-0.16 -1.68,0.83 -5.6,2.71 -8.85,3.72 -5.15,1.59 -11.43,3.08 -15.35,3.96 -0.2,1.04 0.8,5.2 1.83,5.84 13.84,-3.24 33.09,-7.04 52.49,-9.95 -8.12,6.8 -16.12,13.46 -23.37,19.23 -18.43,14.64 -35.72,26.97 -47.95,29.12 2.83,-6.92 13.2,-17 14.95,-18.35 0.12,-0.09 0.16,-0.93 -0.63,-0.93zm82.89 -34.56c-4.29,0.4 -10.4,1 -16.97,1.72 22.03,-18.84 42.64,-35.77 46.35,-35.81 -4.63,9.12 -9.66,20.84 -14.31,33.04 -5.24,0.25 -10.64,0.65 -15.07,1.05zm61.67 -27.12c-0.88,2.6 -6.32,8.8 -10.37,12.24 -3.23,2.76 -4.55,2.43 -4.55,2.88 0,0.12 0.2,0.28 0.84,0.28 1.4,0 2.51,-0.28 3.51,-0.73 -2.15,3.05 -4.43,6.37 -6.75,9.8 -10.4,15.49 -21.25,33.65 -21.25,37.34 0,2.51 3.2,5.87 4.13,5.87 2.8,0 11.96,-6.56 17.07,-10.76 4.05,-3.31 9.69,-8.36 13.74,-11.85 0.35,-0.26 0.26,-0.86 0,-1.06 -0.25,-0.17 -0.65,-0.09 -0.94,0.15 -7.71,6.48 -23.75,18.6 -27.52,18.6 -0.35,0 -0.48,-0.52 -0.48,-0.89 0,-4.31 9.85,-20.83 19.29,-34.95 4.28,-6.4 15.68,-22.29 17.25,-22.4 0,-0.92 -2.65,-4.29 -3.97,-4.52zm52.67 5.47c0,-0.64 -2.06,-4.2 -2.83,-4.2 -4.2,5.13 -8.57,11 -12.77,17.13 -5.23,6.24 -10.07,11.47 -14.6,16.12 -2.03,-1.8 -4.75,-3 -6.72,-3 -5.2,0 -15.75,7.48 -22.8,14.95 -6.48,6.89 -9.55,13 -9.55,15.4 0,2.49 2.72,4.61 3.55,4.61 3.85,0 17.05,-11.44 21.57,-15.44 4.23,-3.72 8.8,-8.23 13.32,-13 0.11,0.36 -0.17,1.52 -0.32,2.03 -0.65,2.2 -2.12,6.49 -4.72,11.14 -3.25,6.06 -5.25,10.6 -5.25,12.06 0,1.69 2.05,5.17 3.85,5.17 4.47,0 25.12,-20.32 25.12,-21.83 0,-0.34 -0.25,-0.69 -0.6,-0.69 -0.2,0 -0.48,0.09 -0.68,0.35 -1.12,1.45 -16.49,17.17 -21.2,17.17 -0.2,0 -0.29,-0.2 -0.29,-0.56 0,-2.81 5.4,-14.52 13.52,-27.93 6.97,-11.48 15.54,-22.48 21.4,-29.48zm-46.63 44.45c-3.92,3.49 -15.41,12.64 -17.01,12.64 0,-2.12 5,-9.75 11.41,-16.12 6.23,-6.23 14.48,-11.17 17.83,-11.17 0.97,0 1.88,0.37 2.53,0.88 -5.25,5.26 -10.08,9.66 -14.76,13.77zm17.8 -13.96c1.96,-2.09 3.88,-4.16 5.77,-6.29 -1.69,2.65 -3.34,5.25 -4.86,7.77 -0.23,-0.52 -0.55,-1 -0.91,-1.48zm17.52 7.91c-3.45,3.49 -10.8,12 -10.8,16.77 0,2.97 4.43,6.6 6.31,6.6 12.49,0 32.92,-19.48 32.92,-27.57 0,-2.11 -1.03,-3.8 -2.95,-5.03 2.64,-0.52 5.15,-0.92 7.12,-1 4.72,-0.2 8,0.83 8,3.17 0,1.31 -1.52,3.43 -1.52,3.55 0,0.11 0.2,0.11 0.27,0.11 1.28,-0.03 3.17,-2.31 3.17,-4.15 0,-3.45 -4.49,-4.8 -9.09,-4.65 -3.75,0.17 -7.75,0.77 -11.23,1.48 -2.45,-0.71 -5.52,-1.08 -9.09,-1.08 -1.36,0 -5.16,3.65 -5.51,5.34 -2.6,1.95 -5.4,4.23 -7.6,6.46zm25.8 -4.2c0,3.34 -7.17,13.45 -16.77,19.54 -4.43,2.8 -8.12,4.75 -12.52,4.75 -1.2,0 -2,-0.32 -2,-1.55 0,-2.77 3.77,-9.14 10.09,-15.45 3.03,-3.04 7.4,-7.15 11.55,-9.95 1.8,-0.57 3.85,-1.14 5.93,-1.66 2.12,0.8 3.72,2.45 3.72,4.32zm38.89 -5.43c-0.2,1 2.96,4.8 3.51,4.83 5.97,-2.6 12.37,-3.8 18.61,-5.07 6.28,-1.33 13.65,-2.76 21.13,-3.96 -22.65,24.48 -37.25,46.09 -37.25,52.12 0,3 4.85,8.65 7.2,8.65 5.68,0 44.57,-14.65 80.61,-14.65 2.08,0 4.17,0.08 6.2,0.17 9.63,0.43 14.83,2.11 14.83,6.15 0,3.13 -4.26,6 -4.26,6.96 0,0.2 0.11,0.32 0.43,0.32 1.4,0 7.28,-5.32 7.28,-10.03 0,-7.17 -19.88,-6.65 -21,-6.65 -28.57,0 -74.44,13.45 -80.52,13.45 -2.32,0 -4.12,-1.65 -4.12,-2.85 0,-7.95 19.43,-34.27 38.35,-54.81 7.6,-1 15,-1.72 21.29,-1.72 8.52,0 24.04,0.2 24.04,6.45 0,0.64 -0.07,1.41 -0.27,2.27 1.06,-1.07 2.11,-2.63 2.11,-4.07 0,-5.33 -12.48,-6.8 -23.2,-6.8 -6.92,0 -14.32,0.6 -21.72,1.47 7.75,-8.23 15.32,-15.32 21.24,-19.55 0,-1.69 -5,-5.17 -5.72,-4.97 -1.65,2.48 -9.85,11.6 -13.72,11.69 0,0.31 0.64,1.4 1.8,1.88 0.12,0 0.35,-0.08 0.6,-0.17 -4.16,4.09 -8.13,8.17 -11.88,12.17 -8.45,1.23 -16.65,2.72 -23.72,4.03 0.63,-1.15 1.27,-2.55 1.83,-3.91 -4.68,2.23 -18.08,5.16 -23.68,6.6zm38.45 -39.29c-0.17,0 -0.2,0.17 -0.2,0.45 0,1.87 1.47,5.75 1.95,5.75 4.32,0 46.81,-8.95 78.53,-8.95 22.05,0 27.88,3.52 27.88,6.6 0,3.15 -6.48,7.55 -6.48,7.83 0,0.12 0.08,0.24 0.2,0.24 2.88,0 9.45,-5.15 9.45,-8.52 0,-6 -12.88,-8.43 -30.05,-8.43 -24.41,0 -67.04,5.08 -80.05,5.08 -0.43,0 -0.88,-0.05 -1.23,-0.05zm93.81 65.92c-2.31,1.74 -4.16,2.89 -4.83,2.89 -1.88,0 0.67,-7.09 3,-11.95 2.4,-5.05 4.47,-8.14 7.55,-14.09 0.25,-0.37 -2.63,-3.05 -3.08,-3.16 -4.04,0 -27.21,20.48 -33.92,26.91 3.36,-6 8.36,-12.55 12.85,-18.8 3.71,-5.2 8.8,-12.15 8.8,-13.47 0,-0.85 -3.77,-3.73 -4.45,-3.13 -1.44,1.6 -4.6,5.2 -6.15,5.53 -0.05,0.32 1.55,0.67 2.86,0.4 -4.43,7.15 -10.86,15.64 -15.63,22.67 -0.92,1.4 -4.37,6.41 -4,8 0.36,1.34 2.96,4.89 3.68,4.37 1.64,-1.48 3,-2.63 4.29,-4 8.95,-9.23 20.6,-18.57 27.72,-23.89 -2.72,4.06 -10.37,18.29 -10.37,22.57 0,2.49 4.37,5.61 6,5.41 1.37,-0.17 3.65,-1.72 6.28,-3.92 7.32,-6.09 16.09,-15.6 16.09,-16.6 0,-0.34 -0.25,-0.69 -0.6,-0.69 -0.2,0 -0.49,0.09 -0.69,0.35 -0.8,1.05 -9.16,9.94 -15.4,14.6zm27.66 -23.07c0,-0.96 -2.77,-3.76 -3.32,-3.76 -2.93,2.28 -6.14,4.96 -7.25,5.03 0.12,0.54 1,1.29 1.92,1.8 -3.87,5.4 -8.72,13.17 -11.61,18.49 -0.91,1.65 -2.2,4.16 -2.43,4.92 0.08,0.68 2.72,3.73 4.28,3.96 0.35,-1.11 0.32,-1.52 1.6,-3.68 6,-10.15 17.21,-18.72 26.52,-27.15 -1.51,3.23 -3.08,7.43 -3.2,10.23 -0.16,2.92 3.37,7 6.92,7 2.48,0 7,-3.97 7,-4.83 0,-0.09 -0.03,-0.2 -0.2,-0.2 -0.23,0 -3.63,3.11 -6.72,3.11 -2.63,0 -2.51,-3.48 -2.48,-4.31 0.4,-6.45 6.85,-13.46 10.2,-18.34 0,-0.55 -3.12,-3.4 -3.88,-3.07 -0.4,0 -3.47,3.35 -4.55,5.07 -8.52,6.69 -17.2,14.77 -24.66,23 3.26,-6.75 10.17,-15.23 11.86,-17.27zm26.68 3.24c-5.52,7.4 -12.6,16.97 -12.6,20.92 0,3.2 3.43,5.57 3.88,5.57 5.92,0 22.52,-16.32 26.52,-20.17 1.15,-1.12 -0.08,-2.04 -1.2,-0.92 -4.76,4.68 -19.8,17.04 -23.25,17.04 -0.47,0 -0.75,-0.24 -0.75,-0.84 0,-2.97 8.55,-15.08 12.72,-20.12 0.92,0.52 1.17,0.55 1.57,0.4 0,-2.4 4.06,-7.48 4.63,-8.4 0,-0.6 -2.68,-2.68 -3.4,-2.77 -1.83,1.2 -5.88,6.29 -8.12,9.29zm22.64 -32.89c-4.12,3.85 -9.55,12.65 -10.89,16.8 -0.43,1.4 0.29,3.6 1.94,3.77 0.11,0 0.31,-0.05 0.31,-0.12 -0.36,-0.33 -0.45,-1.05 -0.28,-1.65 1.03,-3.4 9.48,-13.03 13.17,-14.43 0.23,-1.48 -3.57,-4.57 -4.25,-4.37zm23.68 35.66c0.35,0 0.52,0.2 0.52,0.55 0,1.76 -3.6,7.56 -6.92,13.11 -3.76,6.29 -8.48,13.89 -13.2,21.77 -6,0.44 -12.08,1.24 -19.88,2.57 -8.72,1.47 -15.69,3.2 -20.92,4.52 -0.49,0.6 1.03,3.03 1.55,3.6 7.68,-1.72 16.88,-4.05 23.52,-2.8 0.56,-0.32 -0.52,-2.09 -1.6,-3 5,-0.85 10.16,-1.65 15.8,-2.29 -5.95,10.01 -11.75,20.17 -15.6,28.09 -0.72,-0.97 -1.8,-1.68 -2.52,-1.68 -0.28,0 -0.52,0.11 -0.63,0.36 1.68,0.75 2.31,7.07 1.48,11.04 0.4,0.6 2.12,1.8 3.03,1.8 0.24,0 0.44,-0.12 0.52,-0.37l0.4 -1.63c2.25,-9.49 14.12,-29.44 19.17,-38.09 0,-0.03 0.03,-0.08 0.03,-0.12 4.65,-0.36 9.69,-0.51 15.17,-0.43 4.95,0.03 18.55,0.55 18.55,3.67 0,1.13 -2.2,3.2 -3.2,4.13 -0.46,0.43 -0.71,0.83 -0.71,1.07 -0.04,0.28 0.25,0.4 0.91,0.16 1.34,-0.43 5.25,-3.2 5.25,-5.56 0,-5 -14.8,-5.55 -20.88,-5.55 -5.12,0 -9.52,0.03 -13.69,0.2 6.72,-11.25 14.09,-22.12 19.17,-32.66 0.72,-1.51 -4.2,-4.86 -5.05,-4.86 -2.2,0 -11,6.83 -16.87,10.95 -7.68,5.4 -16.08,10.6 -17.85,10.6 -1.23,-1.24 5.48,-9.89 10.8,-15.04 5.85,-5.68 12.6,-10.48 16.4,-12.31 0.92,1.86 1.92,4 2.2,4.4 0.45,0.66 0.92,1.51 1.6,1.03 0.05,-1.48 -0.8,-3.48 0.8,-6.4 0.09,-1.12 -2.28,-3.57 -4.28,-3.57 -2.83,0 -13.12,6.05 -20.44,12.89 -5.88,5.51 -11.11,11.28 -12.71,16.11 -0.77,2.34 1.35,6.54 4.11,6.54 3.12,0 12.4,-6.4 20.89,-12.4 3.55,-2.54 13.35,-10.4 15.08,-10.4zm42.51 14.63c-2.75,2.23 -6.4,4.8 -7.63,4.8 -1.17,-1.17 9.31,-20.97 17.11,-30.44 0,-0.65 -2.23,-2.53 -3,-2.56 -1.4,0.03 -4.88,3.51 -6,4.48 -6.08,5.2 -23.32,22.15 -33.55,27.29 -1,-0.89 0.8,-5.09 2.23,-7.25 2.32,-3.49 6.24,-8.6 10.52,-13.24 1.77,-1.91 4.2,-4.25 5.48,-5.48 0,-0.8 -3.56,-3.52 -4.4,-3.12 -1.96,1.83 -7.6,7.89 -9.96,7.52 -0.15,0.52 1.13,1.37 1.85,1.57 -2.69,3.55 -12.06,14.11 -12.21,18.26 -0.04,1.05 3.35,6 4.61,6 6.91,-1.14 25.8,-20.86 34.2,-27.46 -5.89,6.75 -12.8,19.95 -12.8,23.32 0,1.43 3.28,4.4 5.03,4.88 1.32,0 4.65,-2.57 8.57,-6 6.8,-6 14,-13.45 14,-14.4 0,-0.34 -0.25,-0.69 -0.6,-0.69 -0.2,0 -0.48,0.09 -0.68,0.35 -0.72,0.94 -7,7.45 -12.77,12.17zm40.89 -23c0,-1.57 -2.84,-3.52 -3.89,-3.89 -0.43,-0.11 -0.91,-0.2 -1.43,-0.2 -4.52,0 -11.6,4.92 -13.52,6.32 -7.2,5.34 -16.4,13.69 -17.85,21.49 -0.87,4.85 3.97,8.72 8.08,8.32 8.49,-0.84 28.01,-14.12 34.61,-22.07 0.56,-0.65 0.71,-1.05 0.71,-1.29 0,-0.2 -0.11,-0.28 -0.31,-0.28 -0.4,0 -1.09,0.23 -1.44,0.63 -6.2,6.37 -24.85,19.66 -33.52,19.66 -1.6,0 -2.13,-0.57 -2.13,-1.97 0,-2.55 0.97,-5.29 3.85,-9.09 5.03,-1.11 12.03,-4.63 17.2,-7.75 3.64,-2.2 9.64,-6 9.64,-9.88zm-6.24 0.37c1.2,-0.61 3.09,-1.4 3.6,-1.4 0,1.74 -2.65,5.43 -7.71,8.75 -5.34,3.51 -10.89,6.05 -14.01,7.16 3.75,-5.08 12.47,-11.68 18.12,-14.51zm152.82 -45.69c-0.6,-0.6 -1.37,-0.92 -2.12,-0.92 -0.28,0 -0.56,0.03 -0.85,0.15 -17.03,6 -36.07,8.88 -52.95,9.57 -0.84,-0.29 -1.64,-0.49 -2.4,-0.6 -4.84,-0.65 -12.52,-0.65 -14.37,-1.17 -0.52,0.08 -4,6.17 -4,7.05l0 0.07c1.88,-0.92 10.2,-1.84 14.93,-1.84 7.15,0 12.44,2.4 12.44,5.72 0,0.2 0,0.4 -0.09,0.57 0.77,-0.77 1.05,-1.6 1.05,-2.48 0,-1.81 -1.4,-3.69 -3.4,-5.12 13.01,-1.12 26.01,-3.29 38.76,-6.6 -19.35,8.88 -34.64,19.8 -54.36,34.48 -31.8,23.67 -65.29,50.68 -65.97,56.16 0,1.2 2.48,5.25 3.8,5.28 4.77,-4.11 16.52,-7.2 27.52,-9.91 20.37,-5.05 45.97,-8.37 65.41,-8.37 5,0 28,0 28,6.97 0,5.91 -11.48,10.71 -11.52,10.95 0,0.13 0.17,0.33 0.57,0.33 2.06,0 15.35,-5.88 15.35,-12.33 0,-8.44 -25.72,-8.44 -30.72,-8.44 -22.32,0 -48.97,3.92 -67.89,8.24 -6.04,1.4 -17.24,4.25 -23.2,6.88 10.4,-11.52 36.08,-33.2 62.49,-52.64 20.8,-15.32 37.43,-26.77 58.64,-36.65 0.91,-0.44 2.96,-1.24 5.16,-1.24 1.12,0 1.92,0.44 2.24,0.44 0.08,0 0.11,-0.07 0.11,-0.15 0,-0.69 -1.8,-3.52 -2.63,-4.4zm3.52 68.32c-2.75,2.23 -6.4,4.8 -7.64,4.8 -1.16,-1.17 9.32,-20.97 17.12,-30.44 0,-0.65 -2.23,-2.53 -3,-2.56 -1.4,0.03 -4.88,3.51 -6,4.48 -6.08,5.2 -23.32,22.15 -33.55,27.29 -1,-0.89 0.8,-5.09 2.23,-7.25 2.32,-3.49 6.23,-8.6 10.52,-13.24 1.76,-1.91 4.2,-4.25 5.48,-5.48 0,-0.8 -3.57,-3.52 -4.4,-3.12 -1.97,1.83 -7.6,7.89 -9.97,7.52 -0.15,0.52 1.14,1.37 1.85,1.57 -2.68,3.55 -12.05,14.11 -12.2,18.26 -0.05,1.05 3.35,6 4.6,6 6.92,-1.14 25.81,-20.86 34.21,-27.46 -5.89,6.75 -12.81,19.95 -12.81,23.32 0,1.43 3.29,4.4 5.04,4.88 1.32,0 4.65,-2.57 8.57,-6 6.8,-6 14,-13.45 14,-14.4 0,-0.34 -0.25,-0.69 -0.6,-0.69 -0.2,0 -0.49,0.09 -0.68,0.35 -0.72,0.94 -7.01,7.45 -12.77,12.17zm25.05 -20.64c0,-0.96 -2.77,-3.76 -3.32,-3.76 -2.93,2.28 -6.13,4.96 -7.25,5.03 0.12,0.54 1,1.29 1.92,1.8 -3.87,5.4 -8.72,13.17 -11.6,18.49 -0.92,1.65 -2.2,4.16 -2.44,4.92 0.09,0.68 2.72,3.73 4.29,3.96 0.35,-1.11 0.31,-1.52 1.6,-3.68 6,-10.15 17.2,-18.72 26.52,-27.15 -1.52,3.23 -3.09,7.43 -3.2,10.23 -0.17,2.92 3.36,7 6.91,7 2.49,0 7.01,-3.97 7.01,-4.83 0,-0.09 -0.04,-0.2 -0.21,-0.2 -0.23,0 -3.63,3.11 -6.71,3.11 -2.64,0 -2.52,-3.48 -2.49,-4.31 0.4,-6.45 6.86,-13.46 10.21,-18.34 0,-0.55 -3.12,-3.4 -3.89,-3.07 -0.4,0 -3.47,3.35 -4.55,5.07 -8.52,6.69 -17.2,14.77 -24.65,23 3.25,-6.75 10.17,-15.23 11.85,-17.27zm21.32 27.16c2.2,0.25 3.8,0.6 5.45,1.05 1.23,0.35 2.92,0.92 4.67,1.72 -7.35,2.28 -15.27,5.31 -22.76,9.11 -19.48,9.92 -36.92,23.24 -37.45,33.84 -0.52,10.13 8.4,13.05 16.8,13.05 16.85,0 56.49,-21.37 57.57,-42.49 0.29,-5.16 -4.28,-9.6 -9.2,-13.03 7.12,-2.09 13.64,-3.37 18.77,-3.93 0.52,-0.04 1,-0.07 1.4,-0.07 0.6,0 1.04,-0.08 1.04,-0.4 0.03,-0.6 -0.89,-1.2 -2.77,-1.25 -0.52,0 -1.07,0.05 -1.72,0.11 -4.63,0.66 -11.32,2.01 -18.8,4.17 -1.35,-0.88 -3.48,-2.28 -5.28,-3.12 11.45,-6.28 28,-22.36 28,-27.31 0,-2.97 -4.24,-7.41 -8,-7.41 -11.07,0 -31.24,13.16 -31.24,19.96 0,4.11 5.6,5.71 7.8,5.71 0.49,0 3.6,-0.15 3.6,-1.23 0,-0.32 -0.11,-0.4 -0.48,-0.52 -1.32,0.4 -6.84,0.52 -6.8,-1.11 0.11,-4.4 19.4,-19.77 29.37,-19.77 0.71,0 1.4,0.2 1.4,0.96 0,7.84 -24.49,26.32 -31.49,29.24 -0.2,0.57 -0.17,2.23 0.12,2.72zm19.25 14.17c-0.85,16.52 -35.65,39.88 -56.01,39.88 -6.2,0 -11,-2.05 -10.73,-7.53 0.48,-9.8 17.37,-23 36.6,-32.95 7.74,-4 15.89,-7.2 23.49,-9.57 3.65,2.12 6.88,5.32 6.65,10.17zm23.12 -35.26c-3.45,3.49 -10.8,12 -10.8,16.77 0,2.97 4.43,6.6 6.32,6.6 12.48,0 32.92,-19.48 32.92,-27.57 0,-2.11 -1.04,-3.8 -2.95,-5.03 2.63,-0.52 5.15,-0.92 7.11,-1 4.72,-0.2 8,0.83 8,3.17 0,1.31 -1.51,3.43 -1.51,3.55 0,0.11 0.2,0.11 0.26,0.11 1.29,-0.03 3.17,-2.31 3.17,-4.15 0,-3.45 -4.48,-4.8 -9.08,-4.65 -3.75,0.17 -7.75,0.77 -11.24,1.48 -2.45,-0.71 -5.52,-1.08 -9.08,-1.08 -1.37,0 -5.17,3.65 -5.52,5.34 -2.6,1.95 -5.4,4.23 -7.6,6.46zm25.8 -4.2c0,3.34 -7.17,13.45 -16.77,19.54 -4.43,2.8 -8.11,4.75 -12.51,4.75 -1.21,0 -2,-0.32 -2,-1.55 0,-2.77 3.76,-9.14 10.08,-15.45 3.03,-3.04 7.4,-7.15 11.55,-9.95 1.8,-0.57 3.85,-1.14 5.94,-1.66 2.11,0.8 3.71,2.45 3.71,4.32zm37.09 -39.67c-0.88,2.6 -6.32,8.8 -10.37,12.24 -3.23,2.76 -4.55,2.43 -4.55,2.88 0,0.12 0.2,0.28 0.83,0.28 1.41,0 2.52,-0.28 3.52,-0.73 -2.15,3.05 -4.43,6.37 -6.75,9.8 -10.4,15.49 -21.25,33.65 -21.25,37.34 0,2.51 3.2,5.87 4.13,5.87 2.8,0 11.95,-6.56 17.07,-10.76 4.05,-3.31 9.69,-8.36 13.74,-11.85 0.35,-0.26 0.26,-0.86 0,-1.06 -0.25,-0.17 -0.65,-0.09 -0.94,0.15 -7.72,6.48 -23.75,18.6 -27.52,18.6 -0.35,0 -0.48,-0.52 -0.48,-0.89 0,-4.31 9.85,-20.83 19.29,-34.95 4.28,-6.4 15.68,-22.29 17.25,-22.4 0,-0.92 -2.65,-4.29 -3.97,-4.52zm-4.48 43.87c-3.45,3.49 -10.8,12 -10.8,16.77 0,2.97 4.43,6.6 6.31,6.6 12.49,0 32.92,-19.48 32.92,-27.57 0,-2.11 -1.03,-3.8 -2.95,-5.03 2.64,-0.52 5.15,-0.92 7.12,-1 4.72,-0.2 8,0.83 8,3.17 0,1.31 -1.52,3.43 -1.52,3.55 0,0.11 0.2,0.11 0.27,0.11 1.28,-0.03 3.17,-2.31 3.17,-4.15 0,-3.45 -4.49,-4.8 -9.09,-4.65 -3.75,0.17 -7.75,0.77 -11.23,1.48 -2.45,-0.71 -5.52,-1.08 -9.09,-1.08 -1.36,0 -5.16,3.65 -5.51,5.34 -2.6,1.95 -5.4,4.23 -7.6,6.46zm25.8 -4.2c0,3.34 -7.17,13.45 -16.77,19.54 -4.43,2.8 -8.12,4.75 -12.52,4.75 -1.2,0 -2,-0.32 -2,-1.55 0,-2.77 3.77,-9.14 10.09,-15.45 3.03,-3.04 7.4,-7.15 11.55,-9.95 1.8,-0.57 3.85,-1.14 5.93,-1.66 2.12,0.8 3.72,2.45 3.72,4.32z"/>
 </g>
</svg>