<?xml version="1.0" encoding="UTF-8"?>
<!DOCTYPE svg PUBLIC "-//W3C//DTD SVG 1.1//EN" "http://www.w3.org/Graphics/SVG/1.1/DTD/svg11.dtd">
<!-- Creator: CorelDRAW 2020 (64-Bit) -->
<svg xmlns="http://www.w3.org/2000/svg" xml:space="preserve" width="512px" height="379px" version="1.1" shape-rendering="geometricPrecision" text-rendering="geometricPrecision" image-rendering="optimizeQuality" fill-rule="evenodd" clip-rule="evenodd"
viewBox="0 0 512 378.88"
 xmlns:xlink="http://www.w3.org/1999/xlink"
 xmlns:xodm="http://www.corel.com/coreldraw/odm/2003">
 <g id="Capa_x0020_1">
  <metadata id="CorelCorpID_0Corel-Layer"/>
  <g id="_2649005903744">
   <path fill="black" fill-rule="nonzero" d="M237.5 304.5c-20.61,0 -37.23,16.6 -37.23,37.23 0,20.5 16.62,37.15 37.23,37.15 20.52,0 37.24,-16.65 37.24,-37.15 0,-20.63 -16.72,-37.23 -37.24,-37.23z"/>
   <path fill="black" fill-rule="nonzero" d="M389.23 304.5c-20.58,0 -37.23,16.6 -37.23,37.23 0,20.5 16.65,37.15 37.23,37.15 20.52,0 37.21,-16.65 37.21,-37.15 0,-20.63 -16.69,-37.23 -37.21,-37.23z"/>
   <polygon fill="black" fill-rule="nonzero" points="419.61,138.9 207.06,138.9 215.54,166.83 411.19,166.83 "/>
   <polygon fill="black" fill-rule="nonzero" points="394.3,222.59 402.74,194.71 224.02,194.71 232.49,222.59 "/>
   <polygon fill="black" fill-rule="nonzero" points="186.24,69.89 198.55,111.04 456.53,111.04 414.47,250.34 212.37,250.34 136.54,0 0,0 0,40.84 105.92,40.84 181.93,291.47 444.78,291.47 512,69.89 "/>
  </g>
 </g>
</svg>
