<?xml version="1.0" encoding="UTF-8"?>
<!DOCTYPE svg PUBLIC "-//W3C//DTD SVG 1.1//EN" "http://www.w3.org/Graphics/SVG/1.1/DTD/svg11.dtd">
<!-- Creator: CorelDRAW 2020 (64-Bit) -->
<svg xmlns="http://www.w3.org/2000/svg" xml:space="preserve" width="6448px" height="1506px" version="1.1" shape-rendering="geometricPrecision" text-rendering="geometricPrecision" image-rendering="optimizeQuality" fill-rule="evenodd" clip-rule="evenodd"
viewBox="0 0 6448 1506"
 xmlns:xlink="http://www.w3.org/1999/xlink"
 xmlns:xodm="http://www.corel.com/coreldraw/odm/2003">
 <g id="Capa_x0020_1">
  <metadata id="CorelCorpID_0Corel-Layer"/>
  <path fill="black" fill-rule="nonzero" d="M15.28 657.04c2.24,-0.56 5.22,-1.87 9.33,-3.17 171.03,-48.87 380.48,-95.87 580.04,-120.86 -57.63,92.7 -97.91,157.6 -135.03,219.71 -106.13,177.37 -187.26,331.8 -187.26,407.34 0,21.07 40.85,61.36 67.15,61.36 53.34,0 164.87,-115.82 164.87,-144.92 0,-2.24 -0.93,-3.73 -4.1,-3.73 -5.78,0 -107.43,121.42 -159.28,121.42 -6.72,0 -14.92,-5.04 -14.92,-13.99 0,-67.89 82.44,-226.42 188.56,-405.85 38.05,-64.53 78.71,-131.3 153.13,-249.36 67.51,-6.34 133.35,-10.26 195.08,-10.26 98.85,0 251.61,7.09 251.61,79.08 0,7.65 -0.94,16.23 -3.17,26.49 12.49,-12.5 24.62,-30.4 24.62,-47 0,-61.74 -137.46,-83.75 -261.49,-83.75 -54.09,0 -119,3.55 -189.31,8.96 114.7,-173.27 235,-322.29 303.08,-394.85 69.75,-4.47 141.93,-6.71 215.79,-6.71 70.13,0 409.58,14.36 409.58,87.85 0,36.18 -79.27,80.57 -79.27,90.45 0,1.31 0.93,2.24 3.17,2.24 17.35,0 100.72,-47.56 100.72,-95.49 0,-119 -441.47,-106.87 -530.06,-106.87 -22.39,0 -54.65,0.37 -94.01,2.24 13.99,-13.43 23.32,-21.08 27.42,-21.08 0,-14.36 -37.67,-55.58 -41.78,-55.95 -16.04,17.53 -61.73,59.12 -105.93,83.18 -190.8,12.12 -455.28,40.29 -666.59,97.73 -1.31,1.31 -1.87,2.99 -1.87,5.78 0,15.11 20.71,47.94 28.35,55.96 51.48,-21.45 213.93,-67.15 295.43,-51.48 6.72,-11.75 -6.34,-19.77 -21.07,-27.42 116.38,-23.68 240.78,-42.52 373.2,-54.09 -77.4,93.07 -186.13,237.62 -288.15,394.85 -128.51,12.49 -268.2,31.7 -392.23,54.09 29.09,-21.45 90.08,-70.32 90.08,-80.58 0,-1.3 -4.1,-4.47 -5.41,-3.54 -52.78,32.64 -252.53,125.33 -314.64,121.79 -3.17,15.67 7.65,53.72 14.36,60.43zm1238.99 117.69c-33.95,63.6 -40.29,89.52 -40.29,101.08 0,18.84 28.16,57.82 48.31,57.82l1.86 0c63.04,-11.56 279.21,-227.35 279.21,-244.32 0,-3.73 -2.61,-7.65 -6.72,-7.65 -2.23,0 -5.22,0.93 -7.46,3.92 -12.68,16.22 -184.45,192.1 -237.24,192.1 -5.03,0 -8.58,-0.93 -8.58,-10.26 0,-10.81 11.19,-52.78 37.12,-102.58 47.56,-90.46 115.08,-186.69 140.07,-217.47 -2.24,-2.8 -24.62,-31.89 -29.1,-31.89 -13.43,5.03 -70.13,49.8 -81.88,58.75 -14.73,-23.69 -50.17,-47 -71.06,-47 -108.36,0 -360.34,242.09 -360.34,339.63 0,3.73 16.98,44.77 36.56,44.77 74.42,0 291.89,-205.35 358.1,-268.02 3.17,0.93 11.75,0.37 20.7,-0.56 -13.42,19.4 -49.79,76.66 -79.26,131.68zm-268.58 92.13c2.61,-78.33 253.84,-305.69 302.52,-305.69 11.75,0 18.47,8.02 18.47,21.45 0,21.08 -7.28,35.44 -16.98,46.63 -113.39,111.91 -278.08,237.61 -304.01,237.61zm837.43 -443.89c2.24,0 4.48,-0.56 4.48,-1.49 -5.22,-6.72 -10.26,-12.5 -10.26,-21.45 0,-38.05 69.94,-145.85 109.67,-162.08 1.31,-0.37 2.24,-0.37 2.24,-1.31 0,-6.15 -38.98,-60.8 -45.7,-60.8 -13.43,0 -132.79,171.41 -166.92,218.78 -50.17,69.38 -101.09,144.17 -150.89,221.2 -27.6,5.78 -54.46,10.82 -85.42,19.77 -12.12,4.85 -22.38,38.79 -22.38,50.92 0,1.86 0.37,3.54 0.93,4.1 22.75,-4.47 50.92,-10.82 68.82,-15.67 -83.18,132.98 -161.89,271.19 -226.8,400.63 -60.42,119.92 -106.12,256.08 -106.12,334.41 0,35.81 38.98,95.68 85.98,95.68 63.42,0 155.74,-65.28 196.02,-96.61 180.36,-140.07 337.96,-354.56 337.96,-499.66 0,-129.25 -89.52,-229.97 -192.1,-266.71 66.77,-20.52 204.22,-52.78 284.8,-52.78 33.94,0 54.08,2.61 61.73,29.09 3.55,-6.71 5.41,-12.12 5.41,-16.97 0,-30.96 -63.23,-30.59 -84.67,-30.59 -57.26,0 -157.05,13.43 -245.27,29.1 40.29,-62.11 80.95,-123.1 120.86,-180.36 9.89,-14.36 19.59,-28.53 30.03,-42.9l0 1.68c0,35.44 21.82,44.02 27.6,44.02zm-36.18 479.33c0,165.99 -203.67,391.3 -341.5,494.63 -31.33,23.68 -101.27,71.62 -160.77,71.62 -33.95,0 -43.83,-25.56 -43.83,-53.35 0,-87.28 64.9,-218.77 115.45,-318.56 72.18,-141.93 159.84,-292.45 250.67,-436.43 76.09,11.94 179.98,121.6 179.98,242.09zm308.86 -127.57c-33.94,63.6 -40.28,89.52 -40.28,101.08 0,18.84 28.16,57.82 48.3,57.82l1.87 0c63.04,-11.56 279.2,-227.35 279.2,-244.32 0,-3.73 -2.61,-7.65 -6.71,-7.65 -2.24,0 -5.22,0.93 -7.46,3.92 -12.68,16.22 -184.46,192.1 -237.24,192.1 -5.04,0 -8.58,-0.93 -8.58,-10.26 0,-10.81 11.19,-52.78 37.11,-102.58 47.56,-90.46 115.08,-186.69 140.07,-217.47 -2.24,-2.8 -24.62,-31.89 -29.09,-31.89 -13.43,5.03 -70.13,49.8 -81.88,58.75 -14.73,-23.69 -50.17,-47 -71.06,-47 -108.36,0 -360.34,242.09 -360.34,339.63 0,3.73 16.97,44.77 36.56,44.77 74.41,0 291.89,-205.35 358.1,-268.02 3.17,0.93 11.75,0.37 20.7,-0.56 -13.43,19.4 -49.8,76.66 -79.27,131.68zm-268.57 92.13c2.61,-78.33 253.84,-305.69 302.52,-305.69 11.75,0 18.46,8.02 18.46,21.45 0,21.08 -7.27,35.44 -16.97,46.63 -113.4,111.91 -278.09,237.61 -304.01,237.61zm1919.94 -862.05c-3.17,3.55 -9.52,12.13 -17.16,24.25 -12.5,12.49 -26.86,28.54 -44.77,48.68 -104.26,-15.11 -204.41,-22.38 -279.76,-22.38 -94,0 -299.35,13.98 -299.35,91.39 0,26.29 59.12,76.09 111.91,76.09 5.4,0 11.19,-7.27 9.32,-8.02 -13.8,-7.64 -90.83,-29.09 -90.83,-70.31 0,-37.12 135.59,-63.23 265.41,-63.23 72.55,0 165.62,7.28 261.48,22.01 -47.93,56.89 -110.23,136.53 -179.98,237.24 -90.46,130.19 -186.14,281.07 -266.34,422.07 -135.59,29.66 -291.33,61.37 -426.17,79.27 -68.45,-4.48 -138.21,-6.34 -166.93,-4.1 -12.5,2.23 -18.28,8.2 -24.62,17.53 -15.29,23.31 -22.75,65.28 -7.65,63.97 22.39,-7.64 91.77,-23.31 163.01,-35.25 65.28,-11.19 186.14,-20.7 204.98,-0.93 5.78,6.15 8.95,-16.97 0.93,-20.14 -8.58,-4.11 -33.2,-8.02 -65.46,-12.13 97.73,-15.66 203.67,-35.81 304.01,-56.32 -95.31,170.84 -163.76,322.29 -163.76,394.28 0,21.08 41.03,65.84 59.5,67.14 19.21,1.31 56.89,-27.79 56.89,-37.67 0,-2.24 -0.94,-3.55 -4.11,-3.55 -5.78,0 -17.9,13.99 -51.48,13.99 -6.71,0 -14.73,-5.03 -14.73,-13.99 0,-71.61 81.88,-244.88 191.92,-435.87 42.52,-9.51 83.74,-17.9 121.79,-26.48 231.83,-51.11 809.83,-215.24 809.83,-397.46 0,-139.69 -218.03,-222.5 -442.78,-264.66 10.82,-10.25 21.08,-18.27 30.03,-21.44 0,-1.68 -0.56,-3.92 -1.86,-8.02 -4.85,-13.81 -29.47,-55.96 -43.27,-55.96zm-221.58 375.08c46.07,-66.22 91.21,-125.34 131.12,-174.02l0 4.85c0,37.68 21.82,46.07 28.16,46.07 2.24,0 4.48,-0.38 4.48,-1.31 -5.41,-6.71 -10.26,-13.05 -10.26,-22.01 0,-24.61 28.54,-77.4 59.87,-117.12 201.99,40.28 392.23,115.82 392.23,235 0,147.16 -483.06,313.71 -748.09,373.77l-90.27 20.51c72.36,-124.03 154.8,-252.91 232.76,-365.74zm521.48 278.83c-38.6,38.98 -120.85,134.28 -120.85,187.63 0,33.2 49.61,73.86 70.68,73.86 139.7,0 368.36,-218.04 368.36,-308.49 0,-23.69 -11.56,-42.53 -33.01,-56.33 29.47,-5.78 57.63,-10.26 79.64,-11.19 52.78,-2.24 89.52,9.33 89.52,35.44 0,14.73 -16.97,38.42 -16.97,39.72 0,1.31 2.24,1.31 2.99,1.31 14.36,-0.37 35.43,-25.92 35.43,-46.44 0,-38.61 -50.17,-53.72 -101.65,-52.04 -41.96,1.87 -86.72,8.58 -125.7,16.6 -27.42,-8.02 -61.74,-12.12 -101.65,-12.12 -15.3,0 -57.82,40.85 -61.74,59.68 -29.09,21.82 -60.43,47.38 -85.05,72.37zm288.72 -47c0,37.3 -80.2,150.51 -187.63,218.59 -49.61,31.33 -90.83,53.15 -140.07,53.15 -13.43,0 -22.38,-3.54 -22.38,-17.34 0,-30.96 42.15,-102.21 112.84,-172.9 33.95,-33.94 82.81,-80.01 129.25,-111.34 20.15,-6.35 43.09,-12.69 66.4,-18.47 23.69,8.95 41.59,27.42 41.59,48.31zm212.25 -20.89c0,-10.82 -30.96,-42.15 -37.12,-42.15 -32.82,25.55 -68.63,55.58 -81.13,56.32 1.31,5.97 11.19,14.36 21.45,20.15 -43.27,60.43 -97.54,147.34 -129.81,206.84 -10.26,18.46 -24.62,46.62 -27.23,55.02 0.93,7.64 30.4,41.77 47.93,44.38 3.92,-12.49 3.55,-16.97 17.91,-41.21 67.14,-113.59 192.48,-209.45 296.74,-303.83 -16.98,36.19 -34.51,83.19 -35.81,114.52 -1.87,32.64 37.67,78.33 77.4,78.33 27.79,0 78.33,-44.39 78.33,-54.08 0,-0.94 -0.37,-2.24 -2.24,-2.24 -2.61,0 -40.66,34.88 -75.16,34.88 -29.47,0 -28.16,-38.99 -27.79,-48.31 4.48,-72.18 76.66,-150.51 114.14,-205.16 0,-6.16 -34.87,-38.05 -43.45,-34.32 -4.48,0 -38.8,37.49 -50.92,56.7 -95.31,74.79 -192.48,165.25 -275.85,257.38 36.37,-75.53 113.77,-170.47 132.61,-193.22zm242.65 -207.77c0,-6.72 -9.51,-21.45 -15.67,-29.1 82.81,-12.12 178.12,-26.48 283.69,-36.18 -55.4,66.58 -118.06,137.27 -141.01,148.46 -2.61,7.27 7.65,18.84 12.13,23.31 -41.97,54.28 -82.25,108.74 -129.25,178.12 -38.61,57.45 -95.5,151.45 -95.5,193.04 0,40.28 50.73,64.9 68.64,64.9 44.76,0 268.95,-189.3 318.18,-246.19 0.94,-1.3 1.31,-3.54 1.31,-6.34 0,-3.17 -0.93,-5.78 -2.61,-5.78 -0.93,0 -1.87,0.37 -3.17,1.3 -37.12,33.57 -249.37,213.93 -309.8,213.93 -9.32,0 -12.12,-3.92 -12.12,-13.43 0,-41.59 44.76,-117.69 78.34,-169.54 87.28,-134.84 150.88,-216.72 247.68,-345.23 9.7,-12.87 20.89,-27.6 32.64,-41.96 80.57,-5.78 166.56,-8.58 257.38,-6.34 116.39,3.17 184.46,21.07 184.46,44.76 0,17.53 -58.19,48.31 -58.19,51.1 0,0.38 0.37,0.94 1.31,0.94 10.26,0.37 80.94,-27.79 80.94,-56.89 0,-41.22 -90.83,-59.12 -239.48,-63.23 -64.9,-1.3 -134.66,0 -205.34,3.73 15.66,-19.77 29.84,-38.04 38.42,-51.47 -1.31,-7.65 -23.32,-35.81 -31.34,-35.81 -21.07,31.7 -46.06,61.73 -70.31,90.83 -192.85,12.49 -388.5,38.04 -517.94,56.88 -3.92,6.16 16.6,47 25.55,50.92 33.57,-8.39 118.62,-21.07 168.42,-19.58 14.18,0.37 25.93,1.68 32.64,4.85zm590.86 181.28c0,-17.53 -31.7,-39.35 -43.45,-43.45 -4.85,-1.31 -10.26,-2.24 -16.04,-2.24 -50.55,0 -129.81,55.02 -151.26,70.69 -80.57,59.68 -183.53,153.12 -199.75,240.41 -9.7,54.27 44.39,97.54 90.45,93.07 94.94,-9.33 313.34,-157.98 387.2,-246.94 6.34,-7.28 8.02,-11.75 8.02,-14.36 0,-2.24 -1.31,-3.17 -3.54,-3.17 -4.48,0 -12.13,2.61 -16.05,7.08 -69.38,71.25 -278.08,219.9 -375.07,219.9 -17.9,0 -23.87,-6.34 -23.87,-22.01 0,-28.54 10.82,-59.13 43.08,-101.65 56.33,-12.49 134.66,-51.85 192.48,-86.73 40.66,-24.61 107.8,-67.14 107.8,-110.6zm-69.75 4.11c13.43,-6.72 34.5,-15.67 40.29,-15.67 0,19.58 -29.66,60.8 -86.36,97.92 -59.68,39.35 -121.79,67.7 -156.67,80.2 41.97,-56.89 139.51,-130.75 202.74,-162.45zm445.39 -400.63c-9.89,29.1 -70.69,98.48 -116.01,136.9 -36.19,30.96 -50.92,27.23 -50.92,32.27 0,1.3 2.24,3.17 9.32,3.17 15.67,0 28.17,-3.17 39.36,-8.21 -24.06,34.13 -49.61,71.25 -75.54,109.67 -116.38,173.27 -237.8,376.56 -237.8,417.78 0,28.17 35.81,65.65 46.26,65.65 31.33,0 133.72,-73.29 190.98,-120.3 45.32,-37.11 108.37,-93.62 153.69,-132.6 3.91,-2.99 2.98,-9.7 0,-11.94 -2.8,-1.86 -7.28,-0.93 -10.45,1.68 -86.35,72.55 -265.78,208.14 -307.93,208.14 -3.91,0 -5.4,-5.78 -5.4,-9.88 0,-48.31 110.22,-233.14 215.79,-391.11 47.93,-71.62 175.5,-249.37 193.04,-250.67 0,-10.26 -29.66,-47.94 -44.39,-50.55zm259.99 0c-9.88,29.1 -70.68,98.48 -116.01,136.9 -36.18,30.96 -50.91,27.23 -50.91,32.27 0,1.3 2.23,3.17 9.32,3.17 15.67,0 28.16,-3.17 39.35,-8.21 -24.06,34.13 -49.61,71.25 -75.53,109.67 -116.38,173.27 -237.8,376.56 -237.8,417.78 0,28.17 35.81,65.65 46.25,65.65 31.34,0 133.73,-73.29 190.99,-120.3 45.32,-37.11 108.36,-93.62 153.68,-132.6 3.92,-2.99 2.99,-9.7 0,-11.94 -2.79,-1.86 -7.27,-0.93 -10.44,1.68 -86.36,72.55 -265.78,208.14 -307.93,208.14 -3.92,0 -5.41,-5.78 -5.41,-9.88 0,-48.31 110.23,-233.14 215.79,-391.11 47.94,-71.62 175.51,-249.37 193.04,-250.67 0,-10.26 -29.65,-47.94 -44.39,-50.55zm141.38 606.91c-33.95,63.6 -40.29,89.52 -40.29,101.08 0,18.84 28.17,57.82 48.31,57.82l1.86 0c63.04,-11.56 279.21,-227.35 279.21,-244.32 0,-3.73 -2.61,-7.65 -6.72,-7.65 -2.23,0 -5.22,0.93 -7.46,3.92 -12.68,16.22 -184.45,192.1 -237.24,192.1 -5.03,0 -8.58,-0.93 -8.58,-10.26 0,-10.81 11.19,-52.78 37.12,-102.58 47.56,-90.46 115.08,-186.69 140.07,-217.47 -2.24,-2.8 -24.62,-31.89 -29.1,-31.89 -13.43,5.03 -70.12,49.8 -81.88,58.75 -14.73,-23.69 -50.17,-47 -71.06,-47 -108.36,0 -360.33,242.09 -360.33,339.63 0,3.73 16.97,44.77 36.55,44.77 74.42,0 291.89,-205.35 358.1,-268.02 3.17,0.93 11.75,0.37 20.71,-0.56 -13.43,19.4 -49.8,76.66 -79.27,131.68zm-268.58 92.13c2.61,-78.33 253.84,-305.69 302.52,-305.69 11.75,0 18.47,8.02 18.47,21.45 0,21.08 -7.28,35.44 -16.98,46.63 -113.39,111.91 -278.08,237.61 -304.01,237.61z"/>
 </g>
</svg>
