<?xml version="1.0" encoding="UTF-8"?>
<!DOCTYPE svg PUBLIC "-//W3C//DTD SVG 1.1//EN" "http://www.w3.org/Graphics/SVG/1.1/DTD/svg11.dtd">
<!-- Creator: CorelDRAW 2020 (64-Bit) -->
<svg xmlns="http://www.w3.org/2000/svg" xml:space="preserve" width="5368px" height="1936px" version="1.1" shape-rendering="geometricPrecision" text-rendering="geometricPrecision" image-rendering="optimizeQuality" fill-rule="evenodd" clip-rule="evenodd"
viewBox="0 0 5368 1936"
 xmlns:xlink="http://www.w3.org/1999/xlink"
 xmlns:xodm="http://www.corel.com/coreldraw/odm/2003">
 <g id="Capa_x0020_1">
  <metadata id="CorelCorpID_0Corel-Layer"/>
  <g id="_2649121708176">
   <path fill="white" d="M1093.17 257.96c281.47,0 530.4,139.88 681.68,354.22 -74.93,16.53 -134.78,45.44 -200.37,85.97 -113.53,-139.72 -285.5,-228.81 -478,-228.81 -54.66,0 -107.69,7.21 -158.19,20.71l0 -217.65c50.19,-9.44 101.94,-14.44 154.88,-14.44zm785.87 554.63c31.82,88.75 49.19,184.43 49.19,284.18 0,463.29 -373.88,838.85 -835.06,838.85 -461.19,0 -835.07,-375.56 -835.07,-838.85 0,-54.81 5.28,-108.37 15.29,-160.25l224.46 0c-13.34,51.29 -20.46,105.1 -20.46,160.63 0,346.75 277.18,627.81 619.09,627.81 341.94,0 619.12,-281.06 619.12,-627.81 0,-107.59 -26.71,-208.88 -73.75,-297.37 81.03,-28.72 159.57,-18.32 237.19,12.81l0 0z"/>
   <path fill="white" d="M158.7 578.06l256.41 0 -0.72 -0.72 -379.75 -379.75c-44.97,-44.97 -44.97,-118.54 0,-163.5l0 0c44.93,-44.94 118.5,-44.94 163.47,0l187.4 187.4c4.38,3.28 8.56,6.88 12.53,10.85l182.22 182.22 0 -257.57c0,-63.59 52.03,-115.62 115.63,-115.62l0 0c63.59,0 115.65,52.03 115.65,115.62l0 536.69 0 0 0 0.16 0 0.34c0,16.16 -3.37,31.56 -9.43,45.56l-0.41 0.94 -0.59 1.34 -0.91 1.94 -0.19 0.34 -1.15 2.35 -0.03 0.09c-3.75,7.28 -8.32,14.25 -13.69,20.78l-0.38 0.41 -1.25 1.53 -1.4 1.56 -0.25 0.31c-21.22,23.6 -51.94,38.47 -85.97,38.47l0 0c-3.63,0 -7.25,-0.15 -10.82,-0.5l-526.37 0c-63.6,0 -115.63,-52.03 -115.63,-115.62l0 0c0,-63.6 52.03,-115.63 115.63,-115.63l0 0.01z"/>
   <path fill="white" fill-rule="nonzero" d="M1883.17 645.34l78.03 117c-373.06,-123.19 -546.53,92 -778.38,332.31 18.6,37.72 38.25,75.37 64.35,108.56 19.15,24.09 43.28,46.44 73.72,54.53 32.75,8.91 67.34,-2.12 95.22,-19.56 36.03,60.41 70.81,121.59 106.34,182.28 1.16,1.31 3.47,3.94 4.62,5.28l0 3.5 -1.96 -0.06c-21.22,3.28 -42.66,8 -64.25,4.97 -44.5,-4.07 -84.91,-27.56 -116.94,-57.75 -34.13,-31.85 -61.38,-70.22 -85.78,-109.75 -31.72,-51.82 -58.66,-106.28 -85.44,-160.75 -77.38,83.81 -151.31,171.34 -236.56,247.43 -35.22,30.22 -72.16,60.63 -116.44,76.41 -26.03,9.44 -54.84,7.84 -81.38,1.41 -29.43,-7.07 -55.78,-26.35 -70.47,-52.94 -21.62,-38.44 -23.18,-84.37 -19.21,-127.28 6.71,-63.47 27.62,-124.69 55.28,-181.94 30.37,-61.56 69.34,-119.78 119.93,-166.56 31,-28.25 67.38,-52.63 108.85,-61.72 37.28,-8.59 78.62,-0.75 108.65,23.38 31.25,24.62 52.82,58.93 72.5,92.93 21.82,39.44 41.25,80.19 60.32,121 189,-222.78 393.97,-370.75 709,-432.68zm-993.19 243.31l0 0c-33.34,20.78 -60.81,49.69 -84.84,80.53 -19.38,25.5 -37.82,52.03 -50.63,81.5 -21.25,48.34 -33.31,100.69 -36,153.44 -1.25,41.81 2.22,86.65 26.09,122.44 16.54,25.59 47.75,40.03 77.94,37.21 34.56,-3.03 66.28,-19.09 95.25,-37.28 52.1,-33.47 97.66,-75.94 141.22,-119.65 36.69,-37.82 72.13,-76.88 105.78,-117.44 -23.16,-45.69 -45.25,-92.06 -72.78,-135.38 -12.56,-19.09 -25.72,-38.09 -42.34,-53.93 -20.6,-19.53 -47.35,-33.57 -76,-35.38 -29.63,-1.97 -58.75,8.53 -83.69,23.94l0 0z"/>
   <g>
    <path fill="white" fill-rule="nonzero" d="M2931.33 1572.04l-200 0 -67.43 -106.08 -330.28 0 -72 106.08 -197.71 0 327.99 -466.32 195.43 0 344 466.32zm-329.14 -187.47l-108.57 -164.11 -105.14 164.11 213.71 0zm1012.56 187.47l-289.14 0c-84.57,0 -152.38,-5.56 -203.42,-16.68 -64.77,-14.23 -111.24,-38.58 -139.43,-73.27 -10.67,-13.35 -18.1,-26.13 -22.29,-38.25 -4.19,-12.23 -6.28,-26.36 -6.28,-42.37l0 -295.75 205.71 0 0 291.64c0,13.34 2.67,25.02 8,35.02 5.33,10.01 14.86,19.91 28.57,29.69 19.05,14.12 41.14,23.46 66.29,27.91 25.14,4.45 57.14,6.67 96,6.67l255.99 0 0 75.39zm846.86 -194.14l-552 0 0 194.14 -196.57 0 0 -286.42c0,-17.79 5.71,-37.36 17.14,-58.71 22.1,-38.58 63.24,-67.49 123.43,-86.5 71.62,-23.13 187.81,-34.69 348.57,-34.69l259.43 0 0 78.05 -270.86 0c-72.38,0 -123.43,2.22 -153.14,6.67 -50.29,7.45 -86.48,23.57 -108.57,48.37 -16,18.12 -24,38.47 -24,61.04l556.57 0 0 78.05zm873.13 194.14l-199.99 0 -67.43 -106.08 -330.29 0 -72 106.08 -197.71 0 328 -466.32 195.43 0 343.99 466.32zm-329.14 -187.47l-108.57 -164.11 -105.14 164.11 213.71 0z"/>
    <path fill="white" fill-rule="nonzero" d="M2696.27 666.18c0,58.37 -26,104.85 -77.82,139.45 -51.81,34.6 -119.95,51.9 -204.42,51.9l-182.25 0 0 133.45 -170.55 0 0 -499.21 336.27 0c95.16,0 169.35,16.48 222.57,49.43 50.8,31.54 76.2,73.2 76.2,124.98zm-170.55 5.65c0,-30.6 -16.73,-55.67 -50.2,-75.2 -33.47,-19.54 -75.2,-29.3 -125.2,-29.3l-118.54 0 0 213.24 130.64 0c48.38,0 87.7,-10.01 117.94,-30.01 30.24,-20.01 45.36,-46.25 45.36,-78.73zm851.56 185.7l-321.75 0c-58.87,0 -100.4,-1.65 -124.59,-4.94 -40.32,-5.65 -72.58,-17.89 -96.77,-36.72 -27.42,-21.65 -41.13,-46.37 -41.13,-74.14l0 -249.96 168.14 0 0 242.19c0,11.77 8.87,21.89 26.61,30.37 17.74,8.47 36.69,12.71 56.85,12.71l164.51 0 0 -285.27 168.13 0 0 365.76zm705.21 0l-168.14 0 0 -240.78c0,-6.12 -2.42,-11.65 -7.26,-16.59 -4.84,-4.94 -11.69,-9.77 -20.56,-14.47 -16.13,-8.01 -34.68,-12.01 -55.64,-12.01l-164.51 0 0 283.85 -168.14 0 0 -365.76 321.76 0c57.25,0 98.78,1.89 124.59,5.65 40.32,5.65 72.58,18.13 96.77,37.43 27.42,22.59 41.13,47.3 41.13,74.14l0 248.54zm495.94 -289.5l-163.3 0 0 165.93c0,15.07 8.87,27.54 26.61,37.43 20.16,9.88 46.77,14.83 79.83,14.83l49.6 0 0 71.31 -156.04 0c-46.77,0 -86.69,-9.88 -119.75,-29.66 -19.36,-11.76 -31.86,-24.71 -37.5,-38.83 -5.65,-14.12 -8.47,-30.83 -8.47,-50.13l0 -170.88 -106.44 0 0 -76.26 106.44 0 0 -127.8 165.72 0 0 127.8 163.3 0 0 76.26zm788.66 105.56c0,63.67 -34.67,112.51 -104.03,146.4 -63.7,31.19 -150.39,46.72 -260.06,46.72 -109.67,0 -194.75,-14.12 -255.23,-42.48 -70.16,-32.48 -105.24,-83.2 -105.24,-152.05 0,-57.54 37.91,-102.85 113.71,-135.8 67.74,-29.78 151.2,-44.61 250.39,-44.61 108.86,0 196.16,15.89 261.88,47.78 65.72,31.78 98.58,76.5 98.58,134.04zm-187.49 -0.7c0,-29.78 -15.93,-54.72 -47.78,-74.73 -31.85,-20.12 -75.2,-30.13 -130.03,-30.13 -50,0 -91.33,10.24 -123.99,30.84 -32.66,20.47 -48.99,46.36 -48.99,77.55 0,35.89 16.54,64.49 49.6,85.67 33.06,21.3 75.8,31.89 128.22,31.89 59.67,0 104.02,-11.06 133.05,-33.3 26.61,-20.24 39.92,-49.55 39.92,-87.79z"/>
   </g>
  </g>
 </g>
</svg>
