<svg height="512pt" viewBox="-47 0 512 512.00106" width="512pt" xmlns="http://www.w3.org/2000/svg"><path d="m289.011719 405.996094c-5.523438 0-10.003907 4.480468-10.003907 10 0 5.523437 4.480469 10 10.003907 10 5.519531 0 10-4.476563 10-10 0-5.519532-4.480469-10-10-10zm0 0"/><path d="m417.128906 172.355469c-7.9375-83.609375-67.753906-151.164063-148.84375-168.097657-114.144531-23.828124-217.507812 55.292969-229.621094 164.632813-.046874.433594-.359374 5.933594-1.097656 18.511719l-31.6875 64.8125c-6.621094 8.964844-7.746094 20.644531-2.882812 30.769531 5.042968 10.492187 15.40625 17.011719 27.046875 17.011719h25.960937v96c0 16.265625 14.394532 30.003906 31.429688 30.003906h60.003906c5.367188 0 9.570312 4.390625 9.570312 10v66c0 3.164062 1.496094 6.140625 4.03125 8.023438 2.546876 1.894531 5.828126 2.460937 8.847657 1.554687l163.003906-49.003906c4.230469-1.269531 7.125-5.164063 7.121094-9.582031-.007813-12.710938-.003907-17.097657-.015625-17.351563-1.488282-41.496094 9.929687-82.332031 33.019531-118.09375 25.539063-39.574219 49.984375-83.382813 44.113281-145.191406zm-97.117187 263.820312.007812 9.386719-143.011719 42.988281v-52.550781c0-16.824219-12.988281-30.003906-29.570312-30.003906h-60.003906c-5.875 0-11.429688-4.859375-11.429688-10v-106.003906c0-5.519532-4.476562-10-10-10h-35.960937c-3.941407 0-7.3125-2.121094-9.019531-5.671876-3.066407-6.382812 1.355468-10.320312 2.382812-12.425781l33.011719-67.511719c.582031-1.191406.921875-2.484374 1-3.808593l1.152343-19.738281c11.113282-99.027344 105.3125-167.945313 205.625-147 72.460938 15.132812 125.917969 75.578124 133.023438 150.410156 5.269531 55.480468-16.390625 94.3125-41.007812 132.457031-25.285157 39.164063-37.792969 83.933594-36.199219 129.472656zm0 0"/><path d="m248.335938 419.53125-43.773438 13.128906c-5.289062 1.585938-8.289062 7.164063-6.703125 12.453125 1.589844 5.289063 7.164063 8.292969 12.453125 6.703125l43.769531-13.128906c5.292969-1.585938 8.292969-7.164062 6.707031-12.453125-1.589843-5.289063-7.160156-8.292969-12.453124-6.703125zm0 0"/><path d="m309.011719 119.988281c-5.953125 0-11.734375 1.808594-16.609375 5.042969l-34.769532-26.074219c.898438-2.871093 1.375-5.882812 1.375-8.96875 0-16.542969-13.457031-30-30-30-16.542968 0-30 13.457031-30 30 0 5.015625 1.222657 9.84375 3.527344 14.140625l-41.949218 58.171875c-3.621094-1.515625-7.539063-2.3125-11.582032-2.3125-16.539062 0-30 13.460938-30 30.003907 0 16.542968 13.460938 30 30 30 16.542969 0 30.003906-13.457032 30.003906-30 0-5.015626-1.226562-9.84375-3.53125-14.144532l41.953126-58.171875c3.617187 1.515625 7.539062 2.3125 11.578124 2.3125 5.953126 0 11.734376-1.808593 16.609376-5.042969l34.769531 26.078126c-.898438 2.871093-1.378907 5.878906-1.378907 8.964843 0 16.542969 13.460938 30.003907 30.003907 30.003907s30-13.460938 30-30.003907c0-16.539062-13.457031-30-30-30zm-160.007813 80.003907c-5.511718 0-10-4.488282-10-10 0-5.515626 4.488282-10 10-10 5.523438 0 10.003906 4.476562 10.003906 10 0 5.515624-4.488281 10-10.003906 10zm70.003906-110.003907c0-5.515625 4.484376-10 10-10 5.515626 0 10 4.484375 10 10 0 5.417969-4.363281 10-10 10-5.519531 0-10-4.480469-10-10zm90.003907 70c-5.515625 0-10-4.484375-10-10 0-5.417969 4.363281-10 10-10 5.511719 0 10 4.488281 10 10 0 5.515625-4.488281 10-10 10zm0 0"/></svg>