<svg height="480pt" viewBox="0 0 480 480.00006" width="480pt" xmlns="http://www.w3.org/2000/svg"><path d="m240 0c-132.484375.148438-239.851562 107.515625-240 240v232c0 3.183594 1.882812 6.0625 4.800781 7.335938 1.007813.441406 2.097657.667968 3.199219.664062h464c1.101562.003906 2.191406-.222656 3.199219-.664062 2.917969-1.273438 4.800781-4.152344 4.800781-7.335938v-232c-.148438-132.484375-107.515625-239.851562-240-240zm117.273438 464-41.144532-96h32.710938l102.855468 96zm-328.96875 0 102.894531-96h32.710937l-41.183594 96zm67.199218-208h.496094v-.238281l24-11.203125v22.640625l-104 55.464843v-29.601562zm-79.503906 84.800781 104-55.472656v71.199219l-104 97.074218zm120 11.199219v-152c0-57.4375 46.5625-104 104-104s104 46.5625 104 104v152zm144-272c0-4.417969 3.582031-8 8-8s8 3.582031 8 8-3.582031 8-8 8-8-3.582031-8-8zm184 213.097656v29.597656l-104-55.496093v-22.640625zm-104 63.421875v-71.199219l104 55.480469v112.800781zm16-284.519531c0 4.417969-3.582031 8-8 8s-8-3.582031-8-8 3.582031-8 8-8 8 3.582031 8 8zm-136-56c41.898438-.039062 82.953125 11.75 118.449219 34.007812-10.664063 4.5625-16.539063 16.089844-13.960938 27.398438 2.574219 11.304688 12.867188 19.152344 24.449219 18.644531 11.585938-.507812 21.152344-9.226562 22.726562-20.714843 46.117188 42.328124 72.359376 102.066406 72.335938 164.664062v35.441406l-22.398438-10.472656 6.238282-31.367188c.792968-4.085937-1.675782-8.09375-5.679688-9.226562l5.601563-22.398438-15.523438-3.871093-5.597656 22.398437-16.71875-4.183594-3.875 15.519532 24.59375 6.152344-4 20.085937-34.640625-16.238281v-36.070313l18.527344-6.183593c.644531-.285157 1.246094-.660157 1.785156-1.113282l.128906.183594 24-16-8.882812-13.3125-17.703125 11.800781-19.457031-25.945312-12.796876 9.601562 17.335938 23.121094-13.464844 4.492187c-3.265625 1.089844-5.46875 4.144532-5.472656 7.585938v34.398438l-16-7.460938v-26.9375c-.046875-41.410156-21.457031-79.867188-56.632812-101.71875 8.5-7.148438 10.972656-19.199219 5.972656-29.113281-4.996094-9.914063-16.152344-15.097657-26.953125-12.515625-10.800781 2.578125-18.410157 12.242187-18.386719 23.347656.042969.824219.125 1.648438.246094 2.464844-35.332032-7.273438-72.0625 1.730468-100.03125 24.515625-27.964844 22.789062-44.199219 56.945312-44.214844 93.019531v26.902344l-24 11.203125v-21.304688l7.632812-38.167969 15.566407-31.058593-14.320313-7.148438-9.832031 19.664063-8.351563-12.53125-13.3125 8.882812 14.160157 21.238282-3.839844 19.199218-13.304687-17.679687-12.796876 9.601562 22.398438 29.863281v26.9375l-26.640625 12.40625-3.605469-18.007812h14.246094v-16h-12.902344l4.488282-13.472656c.558593-1.636719.558593-3.417969 0-5.054688l-8-24-15.203126 5.054688 7.183594 21.472656-7.148437 21.472656c-.449219 1.316406-.539063 2.730469-.257813 4.09375l6.238282 31.402344-22.398438 10.472656v-35.441406c.140625-123.652344 100.347656-223.859375 224-224zm-99.863281 448 41.136719-96h117.453124l41.136719 96zm0 0"/><path d="m112 128c13.253906 0 24-10.746094 24-24s-10.746094-24-24-24-24 10.746094-24 24 10.746094 24 24 24zm0-32c4.417969 0 8 3.582031 8 8s-3.582031 8-8 8-8-3.582031-8-8 3.582031-8 8-8zm0 0"/><path d="m152 48h16v16h-16zm0 0"/><path d="m184 56h16v16h-16zm0 0"/><path d="m256 32h16v16h-16zm0 0"/><path d="m384 120h16v16h-16zm0 0"/><path d="m176 432h16v16h-16zm0 0"/><path d="m208 416h16v16h-16zm0 0"/></svg>